SplineFontDB: 3.2
FontName: JianZiPu
FullName: JianZiPu
FamilyName: JianZiPu
Weight: Regular
Copyright: Copyright (c) 2025, Nancy Yi Liang, Nellodee LLC. This font is licensed under the SIL Open Font License, Version 1.1 (https://openfontlicense.org/)
UComments: "2025-9-19: Created with FontForge (http://fontforge.org)"
Version: 3.01
ItalicAngle: 0
UnderlinePosition: -100
UnderlineWidth: 50
Ascent: 800
Descent: 200
InvalidEm: 0
LayerCount: 2
Layer: 0 0 "Back" 1
Layer: 1 0 "Fore" 0
XUID: [1021 967 70845085 11259623]
FSType: 0
OS2Version: 0
OS2_WeightWidthSlopeOnly: 0
OS2_UseTypoMetrics: 1
CreationTime: 1758308428
ModificationTime: 1758309091
PfmFamily: 17
TTFWeight: 400
TTFWidth: 5
LineGap: 100
VLineGap: 0
OS2TypoAscent: 1100
OS2TypoAOffset: 1
OS2TypoDescent: -500
OS2TypoDOffset: 1
OS2TypoLinegap: 100
OS2WinAscent: 1100
OS2WinAOffset: 1
OS2WinDescent: 500
OS2WinDOffset: 1
HheadAscent: 1100
HheadAOffset: 1
HheadDescent: -500
HheadDOffset: 1
OS2Vendor: 'PfEd'
MarkAttachClasses: 1
DEI: 91125
Encoding: Original
UnicodeInterp: none
NameList: AGL For New Fonts
DisplaySize: -72
AntiAlias: 1
FitToEm: 0
WinInfo: 60 20 8
BeginPrivate: 0
EndPrivate
BeginChars: 214 214

StartChar: .notdef
Encoding: 0 -1 0
Width: 374
VWidth: 1024
Flags: HW
LayerCount: 2
Fore
SplineSet
34 0 m 1
 34 682 l 1
 306 682 l 1
 306 0 l 1
 34 0 l 1
68 34 m 1
 272 34 l 1
 272 648 l 1
 68 648 l 1
 68 34 l 1
EndSplineSet
EndChar

StartChar: exclam
Encoding: 4 33 4
Width: 512
VWidth: 1024
Flags: HW
LayerCount: 2
Fore
SplineSet
194 0 m 128
 194 17.3333333333 200 32 212 44 c 128
 224 56 238.666666667 62 256 62 c 128
 273.333333333 62 288 56 300 44 c 128
 312 32 318 17.3333333333 318 0 c 128
 318 -17.3333333333 312 -32 300 -44 c 128
 288 -56 273.333333333 -62 256 -62 c 128
 238.666666667 -62 224 -56 212 -44 c 128
 200 -32 194 -17.3333333333 194 0 c 128
268 142 m 1
 248 142 l 1
 200 621 l 2
 198.666666667 633.666666667 200.666666667 644.333333333 206 653 c 256
 211.333333333 661.666666667 217.333333333 668 224 672 c 0
 232 676 242.666666667 678.333333333 256 679 c 0
 270.666666667 679 281.333333333 676.666666667 288 672 c 0
 294.666666667 668 300.666666667 661.666666667 306 653 c 256
 311.333333333 644.333333333 313.333333333 633.666666667 312 621 c 2
 268 142 l 1
EndSplineSet
EndChar

StartChar: quotedbl
Encoding: 5 34 5
Width: 512
VWidth: 1024
Flags: HW
LayerCount: 2
Fore
SplineSet
234 752 m 2
 201 498 l 2
 199.666666667 490 195.666666667 486 189 486 c 128
 182.333333333 486 178.666666667 490 178 498 c 2
 145 752 l 2
 143 769.333333333 145.833333333 784 153.5 796 c 128
 161.166666667 808 173 814 189 814 c 128
 205 814 217 808 225 796 c 128
 233 784 236 769.333333333 234 752 c 2
373 752 m 2
 341 498 l 2
 339.666666667 490 335.5 486 328.5 486 c 128
 321.5 486 317.666666667 490 317 498 c 2
 283 752 l 2
 280.333333333 769.333333333 283.333333333 784 292 796 c 0
 299.333333333 808 311 814 327 814 c 128
 343 814 355 808 363 796 c 128
 371 784 374.333333333 769.333333333 373 752 c 2
EndSplineSet
EndChar

StartChar: numbersign
Encoding: 6 35 6
Width: 512
VWidth: 1024
Flags: HW
LayerCount: 2
Fore
SplineSet
172 124 m 1
 146 -44 l 1
 108 -44 l 1
 135 124 l 1
 36 124 l 1
 47 192 l 1
 146 192 l 1
 182 422 l 1
 75 422 l 1
 86 489 l 1
 192 489 l 1
 220 662 l 1
 258 662 l 1
 230 489 l 1
 338 489 l 1
 365 662 l 1
 403 662 l 1
 376 489 l 1
 476 489 l 1
 464 422 l 1
 365 422 l 1
 328 192 l 1
 446 192 l 1
 434 124 l 1
 318 124 l 1
 292 -44 l 1
 254 -44 l 1
 280 124 l 1
 172 124 l 1
184 192 m 1
 291 192 l 1
 327 422 l 1
 220 422 l 1
 184 192 l 1
EndSplineSet
EndChar

StartChar: dollar
Encoding: 7 36 7
Width: 512
VWidth: 1024
Flags: HW
LayerCount: 2
Fore
SplineSet
272 346 m 1
 303 334 l 2
 313 330 324.666666667 325 338 319 c 128
 351.333333333 313 364 306.666666667 376 300 c 128
 388 293.333333333 401.166666667 283.5 415.5 270.5 c 128
 429.833333333 257.5 440.666666667 242.666666667 448 226 c 128
 455.333333333 209.333333333 460.166666667 195 462.5 183 c 128
 464.833333333 171 466 158.333333333 466 145 c 128
 466 131.666666667 465.333333333 118.666666667 464 106 c 0
 461.333333333 88.6666666667 456 70.1666666667 448 50.5 c 128
 440 30.8333333333 429.166666667 14.3333333333 415.5 1 c 128
 401.833333333 -12.3333333333 389.833333333 -22 379.5 -28 c 128
 369.166666667 -34 358.666666667 -39 348 -43 c 128
 337.333333333 -47 326.666666667 -50.5 316 -53.5 c 128
 305.333333333 -56.5 297 -58 291 -58 c 2
 273 -60 l 1
 273 -142 l 1
 238 -142 l 1
 238 -60 l 1
 228 -60 228 -60 220.5 -60 c 128
 215.5 -60 209 -59 201 -57 c 128
 193 -55 183.833333333 -52.6666666667 173.5 -50 c 128
 163.166666667 -47.3333333333 152.833333333 -44 142.5 -40 c 128
 132.166666667 -36 122.166666667 -30.6666666667 112.5 -24 c 128
 102.833333333 -17.3333333333 94 -10 86 -2 c 128
 78 6 71.3333333333 13.8333333333 66 21.5 c 128
 60.6666666667 29.1666666667 56.6666666667 37.1666666667 54 45.5 c 128
 51.3333333333 53.8333333333 49.3333333333 62 48 70 c 128
 46.6666666667 78 46 87.3333333333 46 98 c 128
 46 108.666666667 47.3333333333 118.666666667 50 128 c 0
 52.6666666667 135.333333333 56.5 142.166666667 61.5 148.5 c 128
 66.5 154.833333333 72.1666666667 159.333333333 78.5 162 c 128
 84.8333333333 164.666666667 90.8333333333 166 96.5 166 c 128
 102.166666667 166 108.5 164.666666667 115.5 162 c 128
 122.5 159.333333333 128 156 132 152 c 128
 136 148 139.333333333 142.333333333 142 135 c 128
 144.666666667 127.666666667 146.166666667 120 146.5 112 c 128
 146.833333333 104 143.333333333 95.6666666667 136 87 c 0
 132 83 126.333333333 78.3333333333 119 73 c 128
 111.666666667 67.6666666667 106.333333333 63.1666666667 103 59.5 c 128
 99.6666666667 55.8333333333 97.3333333333 50.6666666667 96 44 c 0
 94.6666666667 36 97.3333333333 27.3333333333 104 18 c 0
 109.333333333 9.33333333333 116.166666667 2.33333333333 124.5 -3 c 128
 132.833333333 -8.33333333333 141.166666667 -13 149.5 -17 c 128
 157.833333333 -21 166 -24.3333333333 174 -27 c 128
 182 -29.6666666667 191 -31.8333333333 201 -33.5 c 128
 211 -35.1666666667 218.666666667 -36 224 -36 c 2
 238 -36 l 1
 238 292 l 1
 220 298.666666667 196.166666667 308 166.5 320 c 128
 136.833333333 332 112 352.666666667 92 382 c 128
 72 411.333333333 61.3333333333 441.333333333 60 472 c 128
 58.6666666667 502.666666667 62.3333333333 529.333333333 71 552 c 128
 79.6666666667 574.666666667 92 595.333333333 108 614 c 0
 124 631.333333333 140 644 156 652 c 128
 172 660 185.333333333 666 196 670 c 0
 208 672.666666667 217.333333333 674.666666667 224 676 c 2
 238 677 l 1
 238 758 l 1
 273 758 l 1
 272 677 l 1
 294 674 l 2
 300 674 307.833333333 672.666666667 317.5 670 c 128
 327.166666667 667.333333333 339.333333333 663.333333333 354 658 c 0
 367.333333333 652.666666667 381.333333333 644 396 632 c 128
 410.666666667 620 422 605.666666667 430 589 c 128
 438 572.333333333 442 555.333333333 442 538 c 128
 442 520.666666667 440.333333333 507.333333333 437 498 c 0
 432.333333333 486 425.666666667 477 417 471 c 128
 408.333333333 465 398.666666667 462 388 462 c 0
 381.333333333 462 375.333333333 463.166666667 370 465.5 c 128
 364.666666667 467.833333333 359.666666667 471 355 475 c 0
 351.666666667 479 348.666666667 483.833333333 346 489.5 c 128
 343.333333333 495.166666667 342.666666667 501.666666667 344 509 c 0
 344 514.333333333 345.333333333 519.666666667 348 525 c 128
 350.666666667 530.333333333 353.666666667 534.333333333 357 537 c 2
 371 549 l 2
 377 554.333333333 381.333333333 559 384 563 c 128
 386.666666667 567 388 572.5 388 579.5 c 128
 388 586.5 386.666666667 593.333333333 384 600 c 0
 378.666666667 610.666666667 370.333333333 619.166666667 359 625.5 c 128
 347.666666667 631.833333333 334.666666667 637.5 320 642.5 c 128
 305.333333333 647.5 295.333333333 650 290 650 c 2
 272 652 l 1
 272 346 l 1
272 -36 m 1
 276 -36 280.166666667 -35.8333333333 284.5 -35.5 c 128
 288.833333333 -35.1666666667 295.666666667 -34 305 -32 c 128
 314.333333333 -30 324.666666667 -26.5 336 -21.5 c 128
 347.333333333 -16.5 359.333333333 -8.16666666667 372 3.5 c 128
 384.666666667 15.1666666667 394.833333333 29.1666666667 402.5 45.5 c 128
 410.166666667 61.8333333333 414.333333333 76 415 88 c 128
 415.666666667 100 416 109 416 115 c 0
 416 136.333333333 413.166666667 155.5 407.5 172.5 c 128
 401.833333333 189.5 394.833333333 203.333333333 386.5 214 c 128
 378.166666667 224.666666667 366 235.333333333 350 246 c 128
 334 256.666666667 314.333333333 266.666666667 291 276 c 2
 272 283 l 1
 272 -36 l 1
238 357 m 1
 238 652 l 1
 231.333333333 651.333333333 223 650.333333333 213 649 c 0
 201.666666667 647.666666667 189.333333333 643.5 176 636.5 c 128
 162.666666667 629.5 150.333333333 619.333333333 139 606 c 0
 129 592.666666667 120.833333333 577.5 114.5 560.5 c 128
 108.166666667 543.5 104.833333333 525.166666667 104.5 505.5 c 128
 104.166666667 485.833333333 107.333333333 468 114 452 c 128
 120.666666667 436 130 423 142 413 c 0
 152.666666667 401.666666667 164.666666667 392 178 384 c 0
 191.333333333 374.666666667 206.666666667 367.333333333 224 362 c 2
 238 357 l 1
EndSplineSet
EndChar

StartChar: percent
Encoding: 8 37 8
Width: 512
VWidth: 1024
Flags: HW
LayerCount: 2
Fore
SplineSet
127 655 m 0
 120.333333333 654.333333333 114.166666667 652 108.5 648 c 128
 102.833333333 644 97.6666666667 637.5 93 628.5 c 128
 88.3333333333 619.5 84.6666666667 610.5 82 601.5 c 128
 79.3333333333 592.5 77.1666666667 582.666666667 75.5 572 c 128
 73.8333333333 561.333333333 72.3333333333 546.666666667 71 528 c 128
 69.6666666667 509.333333333 69 495.333333333 69 486 c 0
 69 478 69.8333333333 464.5 71.5 445.5 c 128
 73.1666666667 426.5 74.1666666667 413 74.5 405 c 128
 74.8333333333 397 75.6666666667 389 77 381 c 128
 78.3333333333 373 80.3333333333 365 83 357 c 128
 85.6666666667 349 88.3333333333 341.833333333 91 335.5 c 128
 93.6666666667 329.166666667 98.1666666667 323.333333333 104.5 318 c 128
 110.833333333 312.666666667 118.333333333 310.333333333 127 311 c 0
 133.666666667 311 139.333333333 312.333333333 144 315 c 128
 148.666666667 317.666666667 152.666666667 321.333333333 156 326 c 128
 159.333333333 330.666666667 162.666666667 336.833333333 166 344.5 c 128
 169.333333333 352.166666667 172.166666667 360 174.5 368 c 128
 176.833333333 376 178.666666667 387 180 401 c 128
 181.333333333 415 182.5 427.5 183.5 438.5 c 128
 184.5 449.5 184.833333333 464.833333333 184.5 484.5 c 128
 184.166666667 504.166666667 184 519.833333333 184 531.5 c 128
 184 543.166666667 183.333333333 555 182 567 c 128
 180.666666667 579 178.5 590.333333333 175.5 601 c 128
 172.5 611.666666667 168.5 621.666666667 163.5 631 c 128
 158.5 640.333333333 152.666666667 646.666666667 146 650 c 128
 139.333333333 653.333333333 133 655 127 655 c 0
452 684 m 1
 480 667 l 1
 59 -57 l 1
 32 -42 l 1
 452 684 l 1
376 296 m 0
 369.333333333 295.333333333 363.333333333 293.166666667 358 289.5 c 128
 352.666666667 285.833333333 348 279.833333333 344 271.5 c 128
 340 263.166666667 336.833333333 253.833333333 334.5 243.5 c 128
 332.166666667 233.166666667 330.166666667 223.333333333 328.5 214 c 128
 326.833333333 204.666666667 325.333333333 190.666666667 324 172 c 128
 322.666666667 153.333333333 322 138.666666667 322 128 c 0
 322 118.666666667 322.5 106 323.5 90 c 128
 324.5 74 325.5 61.3333333333 326.5 52 c 128
 327.5 42.6666666667 328.666666667 33.3333333333 330 24 c 128
 331.333333333 14.6666666667 333 6.66666666667 335 0 c 128
 337 -6.66666666667 339.5 -13.5 342.5 -20.5 c 128
 345.5 -27.5 349.5 -33.1666666667 354.5 -37.5 c 128
 359.5 -41.8333333333 366.666666667 -44 376 -44 c 0
 382 -44 387.666666667 -42.6666666667 393 -40 c 128
 398.333333333 -37.3333333333 402.666666667 -34 406 -30 c 128
 409.333333333 -26 412.5 -20.1666666667 415.5 -12.5 c 128
 418.5 -4.83333333333 421.166666667 3 423.5 11 c 128
 425.833333333 19 427.666666667 30.1666666667 429 44.5 c 128
 430.333333333 58.8333333333 431.5 71.3333333333 432.5 82 c 128
 433.5 92.6666666667 434 108 434 128 c 128
 434 148 433.833333333 163.5 433.5 174.5 c 128
 433.166666667 185.5 432.333333333 197.166666667 431 209.5 c 128
 429.666666667 221.833333333 427.666666667 233 425 243 c 128
 422.333333333 253 418.5 262.666666667 413.5 272 c 128
 408.5 281.333333333 402.666666667 288 396 292 c 0
 389.333333333 294.666666667 382.666666667 296 376 296 c 0
126 290 m 0
 116.666666667 290 107.666666667 291 99 293 c 128
 90.3333333333 295 82.3333333333 298.5 75 303.5 c 128
 67.6666666667 308.5 60.8333333333 315.166666667 54.5 323.5 c 128
 48.1666666667 331.833333333 42.8333333333 340.833333333 38.5 350.5 c 128
 34.1666666667 360.166666667 30.8333333333 370.833333333 28.5 382.5 c 128
 26.1666666667 394.166666667 24.5 404 23.5 412 c 128
 22.5 420 21.3333333333 430 20 442 c 128
 18.6666666667 454 18 468.666666667 18 486 c 0
 18 502 18.6666666667 517.666666667 20 533 c 128
 21.3333333333 548.333333333 23.6666666667 563.333333333 27 578 c 128
 30.3333333333 592.666666667 35.3333333333 606.666666667 42 620 c 128
 48.6666666667 633.333333333 56.3333333333 644.333333333 65 653 c 128
 73.6666666667 661.666666667 83.3333333333 667.666666667 94 671 c 128
 104.666666667 674.333333333 115.333333333 676.333333333 126 677 c 0
 135.333333333 677 145.166666667 675.5 155.5 672.5 c 128
 165.833333333 669.5 175.333333333 664 184 656 c 128
 192.666666667 648 200.333333333 638.666666667 207 628 c 128
 213.666666667 617.333333333 218.833333333 605.666666667 222.5 593 c 128
 226.166666667 580.333333333 229 567 231 553 c 128
 233 539 234.166666667 526.666666667 234.5 516 c 128
 234.833333333 505.333333333 235 495.166666667 235 485.5 c 128
 235 475.833333333 234.5 464 233.5 450 c 128
 232.5 436 231.333333333 424.166666667 230 414.5 c 128
 228.666666667 404.833333333 226.333333333 393.666666667 223 381 c 128
 219.666666667 368.333333333 215.333333333 356.5 210 345.5 c 128
 204.666666667 334.5 199 325.666666667 193 319 c 128
 187 312.333333333 180.166666667 306.666666667 172.5 302 c 128
 164.833333333 297.333333333 156.833333333 294.166666667 148.5 292.5 c 128
 140.166666667 290.833333333 132.666666667 290 126 290 c 0
378 -66 m 0
 370 -66 361.333333333 -65 352 -63 c 128
 342.666666667 -61 334 -57.5 326 -52.5 c 128
 318 -47.5 311.166666667 -40.8333333333 305.5 -32.5 c 128
 299.833333333 -24.1666666667 294.833333333 -15.1666666667 290.5 -5.5 c 128
 286.166666667 4.16666666667 282.666666667 14.8333333333 280 26.5 c 128
 277.333333333 38.1666666667 275.5 47.3333333333 274.5 54 c 128
 273.5 60.6666666667 272.5 71.5 271.5 86.5 c 128
 270.5 101.5 270 115.833333333 270 129.5 c 128
 270 143.166666667 270.666666667 158 272 174 c 0
 273.333333333 191.333333333 275.666666667 207 279 221 c 128
 282.333333333 235 287.333333333 249 294 263 c 128
 300.666666667 277 308.333333333 288.333333333 317 297 c 128
 325.666666667 305.666666667 335.333333333 311.666666667 346 315 c 128
 356.666666667 318.333333333 367.333333333 320.333333333 378 321 c 0
 387.333333333 321 397 319.5 407 316.5 c 128
 417 313.5 426.333333333 308 435 300 c 128
 443.666666667 292 451.333333333 282.666666667 458 272 c 128
 464.666666667 261.333333333 470 249.666666667 474 237 c 128
 478 224.333333333 481 210.666666667 483 196 c 128
 485 181.333333333 486 169.333333333 486 160 c 0
 486.666666667 149.333333333 487 138.666666667 487 128 c 0
 487 116 486.5 104.5 485.5 93.5 c 128
 484.5 82.5 483.333333333 70.6666666667 482 58 c 128
 480.666666667 45.3333333333 478.333333333 33.8333333333 475 23.5 c 128
 471.666666667 13.1666666667 467.166666667 2 461.5 -10 c 128
 455.833333333 -22 450.166666667 -31 444.5 -37 c 128
 438.833333333 -43 432 -48.5 424 -53.5 c 128
 416 -58.5 407.666666667 -61.8333333333 399 -63.5 c 128
 390.333333333 -65.1666666667 383.333333333 -66 378 -66 c 0
EndSplineSet
EndChar

StartChar: ampersand
Encoding: 9 38 9
Width: 512
VWidth: 1024
Flags: HW
LayerCount: 2
Fore
SplineSet
285 29 m 1
 258 82 l 2
 251.333333333 96 242 115.666666667 230 141 c 2
 199 214 l 2
 189.666666667 238 181.333333333 259.333333333 174 278 c 2
 156 326 l 1
 148 319.333333333 139.333333333 310.666666667 130 300 c 0
 120.666666667 290.666666667 112.166666667 277 104.5 259 c 128
 96.8333333333 241 91.3333333333 222.333333333 88 203 c 128
 84.6666666667 183.666666667 83 166 83 150 c 128
 83 134 84 118 86 102 c 0
 88 84.6666666667 91.1666666667 69 95.5 55 c 128
 99.8333333333 41 107.166666667 27.6666666667 117.5 15 c 128
 127.833333333 2.33333333333 139.5 -7.33333333333 152.5 -14 c 128
 165.5 -20.6666666667 180.666666667 -23.3333333333 198 -22 c 0
 211.333333333 -22 221.666666667 -20 229 -16 c 128
 236.333333333 -12 245 -6.66666666667 255 0 c 0
 265 8 271.333333333 13.6666666667 274 17 c 2
 285 29 l 1
196 387 m 1
 217 403 l 2
 225 409 233.166666667 415.833333333 241.5 423.5 c 128
 249.833333333 431.166666667 258.5 441.5 267.5 454.5 c 128
 276.5 467.5 283 480.833333333 287 494.5 c 128
 291 508.166666667 293.5 525.833333333 294.5 547.5 c 128
 295.5 569.166666667 294.666666667 586.666666667 292 600 c 0
 288 617.333333333 280.333333333 630.666666667 269 640 c 0
 259 649.333333333 246 653.666666667 230 653 c 0
 210 651.666666667 195 643.5 185 628.5 c 128
 175 613.5 168.666666667 598 166 582 c 0
 163.333333333 567.333333333 162.666666667 553.333333333 164 540 c 0
 164 532 164.666666667 520.666666667 166 506 c 0
 168 492.666666667 170.333333333 479.666666667 173 467 c 128
 175.666666667 454.333333333 180 437.666666667 186 417 c 2
 196 387 l 1
489 96 m 1
 486.333333333 78.6666666667 484 64 482 52 c 128
 480 40 476.166666667 26 470.5 10 c 128
 464.833333333 -6 458.666666667 -18.3333333333 452 -27 c 128
 445.333333333 -35.6666666667 436 -43.1666666667 424 -49.5 c 128
 412 -55.8333333333 400.666666667 -59 390 -59 c 0
 378 -59 366.333333333 -56 355 -50 c 128
 343.666666667 -44 334 -36.8333333333 326 -28.5 c 128
 318 -20.1666666667 312 -12.6666666667 308 -6 c 2
 298 8 l 1
 292.666666667 1.33333333333 287.666666667 -4.33333333333 283 -9 c 128
 278.333333333 -13.6666666667 270.666666667 -20.3333333333 260 -29 c 128
 249.333333333 -37.6666666667 237 -45.3333333333 223 -52 c 128
 209 -58.6666666667 191.333333333 -62 170 -62 c 0
 158 -62 146.333333333 -60.5 135 -57.5 c 128
 123.666666667 -54.5 111.666666667 -49.5 99 -42.5 c 128
 86.3333333333 -35.5 73.8333333333 -22.8333333333 61.5 -4.5 c 128
 49.1666666667 13.8333333333 40.8333333333 30.1666666667 36.5 44.5 c 128
 32.1666666667 58.8333333333 29.3333333333 74.1666666667 28 90.5 c 128
 26.6666666667 106.833333333 26 122 26 136 c 0
 26 160 29 182 35 202 c 128
 41 222 47.3333333333 238.333333333 54 251 c 128
 60.6666666667 263.666666667 68.3333333333 275.333333333 77 286 c 128
 85.6666666667 296.666666667 95.3333333333 307.333333333 106 318 c 128
 116.666666667 328.666666667 125.333333333 336.666666667 132 342 c 2
 146 353 l 1
 142.666666667 362.333333333 139.666666667 371 137 379 c 128
 134.333333333 387 130.833333333 399.833333333 126.5 417.5 c 128
 122.166666667 435.166666667 118.833333333 450.666666667 116.5 464 c 128
 114.166666667 477.333333333 112.833333333 489.333333333 112.5 500 c 128
 112.166666667 510.666666667 112.666666667 522.666666667 114 536 c 0
 115.333333333 548 117.666666667 561.333333333 121 576 c 128
 124.333333333 590.666666667 129.666666667 604.5 137 617.5 c 128
 144.333333333 630.5 153.666666667 642.166666667 165 652.5 c 128
 176.333333333 662.833333333 186.666666667 669.666666667 196 673 c 128
 205.333333333 676.333333333 214.666666667 678 224 678 c 0
 242.666666667 678.666666667 259.5 675.833333333 274.5 669.5 c 128
 289.5 663.166666667 302.166666667 654.666666667 312.5 644 c 128
 322.833333333 633.333333333 330.5 621.666666667 335.5 609 c 128
 340.5 596.333333333 343.166666667 580.666666667 343.5 562 c 128
 343.833333333 543.333333333 342 525.333333333 338 508 c 0
 332.666666667 489.333333333 324.333333333 471.5 313 454.5 c 128
 301.666666667 437.5 288 422.166666667 272 408.5 c 128
 256 394.833333333 243.333333333 384.666666667 234 378 c 2
 205 358 l 1
 210.333333333 343.333333333 216.833333333 325.333333333 224.5 304 c 128
 232.166666667 282.666666667 244.333333333 252.666666667 261 214 c 128
 277.666666667 175.333333333 292.666666667 144 306 120 c 2
 324 86 l 1
 329.333333333 96.6666666667 333.666666667 105.666666667 337 113 c 128
 340.333333333 120.333333333 344 129.666666667 348 141 c 128
 352 152.333333333 357.166666667 167.333333333 363.5 186 c 128
 369.833333333 204.666666667 373.833333333 218.333333333 375.5 227 c 128
 377.166666667 235.666666667 378.666666667 246.833333333 380 260.5 c 128
 381.333333333 274.166666667 380.666666667 284.166666667 378 290.5 c 128
 375.333333333 296.833333333 372 302 368 306 c 128
 364 310 358.333333333 313.333333333 351 316 c 128
 343.666666667 318.666666667 334.666666667 320 324 320 c 2
 311 320 l 1
 311 342 l 1
 478 342 l 1
 478 320 l 1
 468 320 l 2
 456 320 446.666666667 317 440 311 c 128
 433.333333333 305 428 298 424 290 c 128
 420 282 416 271.333333333 412 258 c 2
 396 210 l 2
 390 192 390 192 383 171 c 128
 378.333333333 157 373 143 367 129 c 128
 361 115 355.666666667 102.666666667 351 92 c 2
 336 61 l 1
 340 54.3333333333 344 48 348 42 c 128
 352 36 357.666666667 28.8333333333 365 20.5 c 128
 372.333333333 12.1666666667 379.666666667 6.16666666667 387 2.5 c 128
 394.333333333 -1.16666666667 400.666666667 -2.83333333333 406 -2.5 c 128
 411.333333333 -2.16666666667 417 -1 423 1 c 128
 429 3 434.5 7.66666666667 439.5 15 c 128
 444.5 22.3333333333 448.833333333 31.6666666667 452.5 43 c 128
 456.166666667 54.3333333333 459.333333333 66 462 78 c 2
 468 98 l 1
 489 96 l 1
EndSplineSet
EndChar

StartChar: quotesingle
Encoding: 10 39 10
Width: 512
VWidth: 1024
Flags: HW
LayerCount: 2
Fore
SplineSet
220 717 m 2
 41 534 l 2
 35.6666666667 528.666666667 30.5 528 25.5 532 c 128
 20.5 536 19.3333333333 541.333333333 22 548 c 2
 148 770 l 2
 156.666666667 785.333333333 167.833333333 795.666666667 181.5 801 c 128
 195.166666667 806.333333333 208.333333333 804.166666667 221 794.5 c 128
 233.666666667 784.833333333 239.666666667 772.5 239 757.5 c 128
 238.333333333 742.5 232 729 220 717 c 2
EndSplineSet
EndChar

StartChar: parenleft
Encoding: 11 40 11
Width: 512
VWidth: 1024
Flags: HW
LayerCount: 2
Fore
SplineSet
478 780 m 1
 482 768 l 1
 471.333333333 760 461.333333333 752.333333333 452 745 c 128
 442.666666667 737.666666667 431.833333333 728.666666667 419.5 718 c 128
 407.166666667 707.333333333 392.166666667 693.333333333 374.5 676 c 128
 356.833333333 658.666666667 342 641.833333333 330 625.5 c 128
 318 609.166666667 307.333333333 593.5 298 578.5 c 128
 288.666666667 563.5 280.666666667 548 274 532 c 128
 267.333333333 516 260.833333333 498.666666667 254.5 480 c 128
 248.166666667 461.333333333 242.833333333 442.333333333 238.5 423 c 128
 234.166666667 403.666666667 231.333333333 385.166666667 230 367.5 c 128
 228.666666667 349.833333333 228 328.666666667 228 304 c 128
 228 279.333333333 229.333333333 253.833333333 232 227.5 c 128
 234.666666667 201.166666667 239.166666667 176 245.5 152 c 128
 251.833333333 128 260.833333333 104 272.5 80 c 128
 284.166666667 56 296.333333333 35 309 17 c 128
 321.666666667 -1 336.333333333 -19.3333333333 353 -38 c 128
 369.666666667 -56.6666666667 384.333333333 -72.3333333333 397 -85 c 128
 409.666666667 -97.6666666667 422.666666667 -109.666666667 436 -121 c 128
 449.333333333 -132.333333333 460.333333333 -141 469 -147 c 2
 483 -158 l 1
 477 -168 l 1
 466.333333333 -162.666666667 456.5 -157.666666667 447.5 -153 c 128
 438.5 -148.333333333 426 -140.666666667 410 -130 c 128
 394 -119.333333333 377 -107 359 -93 c 128
 341 -79 323.666666667 -62.6666666667 307 -44 c 128
 290.333333333 -25.3333333333 275.333333333 -6.5 262 12.5 c 128
 248.666666667 31.5 236.333333333 51.8333333333 225 73.5 c 128
 213.666666667 95.1666666667 205 115 199 133 c 128
 193 151 188.5 168 185.5 184 c 128
 182.5 200 179.833333333 218.333333333 177.5 239 c 128
 175.166666667 259.666666667 174 280.666666667 174 302 c 128
 174 323.333333333 174.666666667 343.666666667 176 363 c 128
 177.333333333 382.333333333 180 402 184 422 c 128
 188 442 194 463.5 202 486.5 c 128
 210 509.5 220.166666667 532.166666667 232.5 554.5 c 128
 244.833333333 576.833333333 257.5 596.333333333 270.5 613 c 128
 283.5 629.666666667 296 644 308 656 c 128
 320 668 332.5 679.666666667 345.5 691 c 128
 358.5 702.333333333 370.166666667 711.666666667 380.5 719 c 128
 390.833333333 726.333333333 405.333333333 736 424 748 c 0
 442.666666667 761.333333333 456.333333333 770 465 774 c 2
 478 780 l 1
EndSplineSet
EndChar

StartChar: parenright
Encoding: 12 41 12
Width: 512
VWidth: 1024
Flags: HW
LayerCount: 2
Fore
SplineSet
34 778 m 1
 52 768 l 2
 58.6666666667 764.666666667 71 757 89 745 c 2
 131 717 l 2
 141.666666667 709.666666667 153.5 700.5 166.5 689.5 c 128
 179.5 678.5 192 666.833333333 204 654.5 c 128
 216 642.166666667 228.5 627.666666667 241.5 611 c 128
 254.5 594.333333333 267 574.666666667 279 552 c 128
 291 529.333333333 301 506.666666667 309 484 c 128
 317 461.333333333 323 440 327 420 c 128
 331 400 333.666666667 380.5 335 361.5 c 128
 336.333333333 342.5 337.166666667 323.166666667 337.5 303.5 c 128
 337.833333333 283.833333333 336.666666667 262 334 238 c 0
 332 220.666666667 329.166666667 204 325.5 188 c 128
 321.833333333 172 317.333333333 155.333333333 312 138 c 128
 306.666666667 120.666666667 298 100.666666667 286 78 c 128
 274 55.3333333333 262 35 250 17 c 0
 237.333333333 -2.33333333333 222.166666667 -21.5 204.5 -40.5 c 128
 186.833333333 -59.5 169.333333333 -75.8333333333 152 -89.5 c 128
 134.666666667 -103.166666667 117.333333333 -116 100 -128 c 128
 82.6666666667 -140 69.3333333333 -148 60 -152 c 2
 35 -164 l 1
 29 -154 l 1
 48 -139 l 2
 54.6666666667 -133.666666667 63.8333333333 -126.166666667 75.5 -116.5 c 128
 87.1666666667 -106.833333333 100.333333333 -94.6666666667 115 -80 c 128
 129.666666667 -65.3333333333 144.5 -49.5 159.5 -32.5 c 128
 174.5 -15.5 188.666666667 2.5 202 21.5 c 128
 215.333333333 40.5 227.666666667 61.5 239 84.5 c 128
 250.333333333 107.5 259.333333333 131.333333333 266 156 c 128
 272.666666667 180.666666667 277.166666667 206.166666667 279.5 232.5 c 128
 281.833333333 258.833333333 283 283.333333333 283 306 c 128
 283 328.666666667 282.333333333 348.666666667 281 366 c 128
 279.666666667 383.333333333 277 401.666666667 273 421 c 128
 269 440.333333333 263.833333333 459.333333333 257.5 478 c 128
 251.166666667 496.666666667 244.666666667 514 238 530 c 128
 231.333333333 546 223.333333333 561.5 214 576.5 c 128
 204.666666667 591.5 194 607 182 623 c 128
 170 639 155.166666667 655.833333333 137.5 673.5 c 128
 119.833333333 691.166666667 104 705.666666667 90 717 c 2
 54 748 l 1
 30 766 l 1
 34 778 l 1
EndSplineSet
EndChar

StartChar: asterisk
Encoding: 13 42 13
Width: 512
VWidth: 1024
Flags: HW
LayerCount: 2
Fore
SplineSet
244 329 m 1
 214 579 l 2
 211.333333333 596.333333333 213.333333333 610.166666667 220 620.5 c 128
 226.666666667 630.833333333 238 636 254 636 c 128
 270 636 282 630.666666667 290 620 c 128
 298 609.333333333 300.666666667 595.666666667 298 579 c 2
 267 329 l 1
 402 471 l 2
 411.333333333 480.333333333 420.666666667 485.5 430 486.5 c 128
 439.333333333 487.5 448 485.666666667 456 481 c 128
 464 476.333333333 469 470.666666667 471 464 c 128
 473 457.333333333 474 451 474 445 c 0
 474 435.666666667 472 427.666666667 468 421 c 128
 464 414.333333333 457.333333333 408.333333333 448 403 c 2
 278 304 l 1
 434 218 l 2
 448.666666667 210 459 202 465 194 c 128
 471 186 473.5 176.333333333 472.5 165 c 128
 471.5 153.666666667 466.833333333 144.666666667 458.5 138 c 128
 450.166666667 131.333333333 441 129 431 131 c 0
 421 131.666666667 408 140.666666667 392 158 c 2
 267 284 l 1
 298 32 l 2
 300 16 297.333333333 3.16666666667 290 -6.5 c 128
 282.666666667 -16.1666666667 271 -21 255 -21 c 128
 239 -21 227.833333333 -16.1666666667 221.5 -6.5 c 128
 215.166666667 3.16666666667 212.666666667 16 214 32 c 2
 244 284 l 1
 120 158 l 2
 104 141.333333333 90.8333333333 132.166666667 80.5 130.5 c 128
 70.1666666667 128.833333333 60.8333333333 131.333333333 52.5 138 c 128
 44.1666666667 144.666666667 39.6666666667 153.666666667 39 165 c 0
 37 177 39.1666666667 186.833333333 45.5 194.5 c 128
 51.8333333333 202.166666667 62.6666666667 210 78 218 c 2
 234 304 l 1
 64 403 l 2
 53.3333333333 408.333333333 46.3333333333 414.333333333 43 421 c 128
 39.6666666667 427.666666667 38 435.666666667 38 445 c 0
 38 450.333333333 39.1666666667 456.5 41.5 463.5 c 128
 43.8333333333 470.5 48.8333333333 476.333333333 56.5 481 c 128
 64.1666666667 485.666666667 72.6666666667 487.5 82 486.5 c 128
 91.3333333333 485.5 100.666666667 480.333333333 110 471 c 2
 244 329 l 1
EndSplineSet
EndChar

StartChar: plus
Encoding: 14 43 14
Width: 512
VWidth: 1024
Flags: HW
LayerCount: 2
Fore
SplineSet
237 648 m 1
 276 648 l 1
 276 323 l 1
 466 323 l 1
 466 285 l 1
 276 285 l 1
 276 -36 l 1
 237 -36 l 1
 237 285 l 1
 45 285 l 1
 45 323 l 1
 237 323 l 1
 237 648 l 1
EndSplineSet
EndChar

StartChar: comma
Encoding: 15 44 15
Width: 512
VWidth: 1024
Flags: HW
LayerCount: 2
Fore
SplineSet
68 -196 m 1
 54 -180 l 1
 75 -156 l 2
 81.6666666667 -149.333333333 88.3333333333 -140.833333333 95 -130.5 c 128
 101.666666667 -120.166666667 107 -110.5 111 -101.5 c 128
 115 -92.5 117 -84 117 -76 c 0
 117 -70 115.833333333 -65.3333333333 113.5 -62 c 128
 111.166666667 -58.6666666667 106.666666667 -55.6666666667 100 -53 c 2
 76 -47 l 2
 64 -43 55.3333333333 -37.1666666667 50 -29.5 c 128
 44.6666666667 -21.8333333333 42 -12 42 0 c 128
 42 12 44.3333333333 22.6666666667 49 32 c 0
 54.3333333333 42.6666666667 61.5 50.3333333333 70.5 55 c 128
 79.5 59.6666666667 88.6666666667 62.3333333333 98 63 c 0
 108.666666667 63.6666666667 118.666666667 62 128 58 c 128
 137.333333333 54 145.833333333 48 153.5 40 c 128
 161.166666667 32 166.833333333 23 170.5 13 c 128
 174.166666667 3 176 -10 176 -26 c 0
 176 -34.6666666667 174.833333333 -44.8333333333 172.5 -56.5 c 128
 170.166666667 -68.1666666667 166.833333333 -79.3333333333 162.5 -90 c 128
 158.166666667 -100.666666667 151.666666667 -112 143 -124 c 128
 134.333333333 -136 124.666666667 -147.333333333 114 -158 c 128
 103.333333333 -168.666666667 96 -175.666666667 92 -179 c 2
 68 -196 l 1
EndSplineSet
EndChar

StartChar: hyphen
Encoding: 16 45 16
Width: 512
VWidth: 1024
Flags: HW
LayerCount: 2
Fore
SplineSet
47 322 m 1
 466 322 l 1
 466 287 l 1
 47 287 l 1
 47 322 l 1
EndSplineSet
EndChar

StartChar: period
Encoding: 17 46 17
Width: 512
VWidth: 1024
Flags: HW
LayerCount: 2
Fore
SplineSet
106 68 m 0
 117.333333333 68 128.333333333 65.3333333333 139 60 c 128
 149.666666667 54.6666666667 158 46.5 164 35.5 c 128
 170 24.5 173 13.1666666667 173 1.5 c 128
 173 -10.1666666667 170 -21.3333333333 164 -32 c 128
 158 -42.6666666667 149.666666667 -51 139 -57 c 128
 128.333333333 -63 117.166666667 -66 105.5 -66 c 128
 93.8333333333 -66 82.8333333333 -63 72.5 -57 c 128
 62.1666666667 -51 54 -42.8333333333 48 -32.5 c 128
 42 -22.1666666667 39 -11.1666666667 39 0.5 c 128
 39 12.1666666667 42 23.3333333333 48 34 c 128
 54 44.6666666667 62.5 53 73.5 59 c 128
 84.5 65 95.3333333333 68 106 68 c 0
EndSplineSet
EndChar

StartChar: slash
Encoding: 18 47 18
Width: 512
VWidth: 1024
Flags: HW
LayerCount: 2
Fore
SplineSet
478 751 m 1
 66 -152 l 1
 36 -136 l 1
 446 768 l 1
 478 751 l 1
EndSplineSet
EndChar

StartChar: zero
Encoding: 19 48 19
Width: 512
VWidth: 1024
Flags: HW
LayerCount: 2
Fore
SplineSet
255 -65 m 0
 248.333333333 -65 240.5 -64.1666666667 231.5 -62.5 c 128
 222.5 -60.8333333333 211.333333333 -57.3333333333 198 -52 c 128
 184.666666667 -46.6666666667 172 -38.1666666667 160 -26.5 c 128
 148 -14.8333333333 136.666666667 1.16666666667 126 21.5 c 128
 115.333333333 41.8333333333 106.833333333 62 100.5 82 c 128
 94.1666666667 102 89.3333333333 124.666666667 86 150 c 128
 82.6666666667 175.333333333 80.1666666667 200 78.5 224 c 128
 76.8333333333 248 76 274.5 76 303.5 c 128
 76 332.5 76.8333333333 361.5 78.5 390.5 c 128
 80.1666666667 419.5 82.6666666667 445.5 86 468.5 c 128
 89.3333333333 491.5 94.3333333333 514.5 101 537.5 c 128
 107.666666667 560.5 116.166666667 580.666666667 126.5 598 c 128
 136.833333333 615.333333333 149 630.666666667 163 644 c 128
 177 657.333333333 191.666666667 666.833333333 207 672.5 c 128
 222.333333333 678.166666667 238 681.333333333 254 682 c 0
 272.666666667 682 288.833333333 678.666666667 302.5 672 c 128
 316.166666667 665.333333333 329.666666667 656.833333333 343 646.5 c 128
 356.333333333 636.166666667 368.166666667 623.166666667 378.5 607.5 c 128
 388.833333333 591.833333333 397 576 403 560 c 128
 409 544 414.666666667 526.166666667 420 506.5 c 128
 425.333333333 486.833333333 429.166666667 467 431.5 447 c 128
 433.833333333 427 435.833333333 403.5 437.5 376.5 c 128
 439.166666667 349.5 440 324.666666667 440 302 c 128
 440 279.333333333 439.333333333 258.166666667 438 238.5 c 128
 436.666666667 218.833333333 434 193.666666667 430 163 c 128
 426 132.333333333 420 103 412 75 c 0
 402.666666667 47 392 24.6666666667 380 8 c 128
 368 -8.66666666667 356.166666667 -22 344.5 -32 c 128
 332.833333333 -42 321.833333333 -49.3333333333 311.5 -54 c 128
 301.166666667 -58.6666666667 290.666666667 -61.6666666667 280 -63 c 128
 269.333333333 -64.3333333333 261 -65 255 -65 c 0
254 648 m 0
 235.333333333 646.666666667 219.666666667 641.333333333 207 632 c 0
 193 622.666666667 182 608 174 588 c 128
 166 568 160 545.833333333 156 521.5 c 128
 152 497.166666667 149.166666667 474.833333333 147.5 454.5 c 128
 145.833333333 434.166666667 144.5 406.833333333 143.5 372.5 c 128
 142.5 338.166666667 142 315.666666667 142 305 c 0
 142 301.666666667 142.333333333 286 143 258 c 2
 145 196 l 2
 146.333333333 173.333333333 149 146.5 153 115.5 c 128
 157 84.5 163.666666667 57.8333333333 173 35.5 c 128
 182.333333333 13.1666666667 192.333333333 -2 203 -10 c 128
 213.666666667 -18 222.833333333 -23.5 230.5 -26.5 c 128
 238.166666667 -29.5 246.666666667 -31 256 -31 c 0
 264 -31 272.333333333 -29.6666666667 281 -27 c 128
 289.666666667 -24.3333333333 299.5 -18.8333333333 310.5 -10.5 c 128
 321.5 -2.16666666667 330.833333333 11.8333333333 338.5 31.5 c 128
 346.166666667 51.1666666667 352.666666667 77.5 358 110.5 c 128
 363.333333333 143.5 366.5 167.666666667 367.5 183 c 128
 368.5 198.333333333 369.666666667 220.666666667 371 250 c 128
 372.333333333 279.333333333 373 300 373 312 c 128
 373 324 372.666666667 343.666666667 372 371 c 0
 370.666666667 405.666666667 368.833333333 434.166666667 366.5 456.5 c 128
 364.166666667 478.833333333 361 501 357 523 c 128
 353 545 347 564.666666667 339 582 c 128
 331 599.333333333 322.5 612.666666667 313.5 622 c 128
 304.5 631.333333333 294.666666667 638.333333333 284 643 c 0
 273.333333333 646.333333333 263.333333333 648 254 648 c 0
EndSplineSet
EndChar

StartChar: one
Encoding: 20 49 20
Width: 512
VWidth: 1024
Flags: HW
LayerCount: 2
Fore
SplineSet
264 680 m 1
 288 680 l 1
 288 46 l 2
 288 30 289.833333333 18 293.5 10 c 128
 297.166666667 2 302.833333333 -4.33333333333 310.5 -9 c 128
 318.166666667 -13.6666666667 330 -16 346 -16 c 2
 388 -16 l 1
 388 -46 l 1
 124 -46 l 1
 124 -16 l 1
 174 -16 l 2
 187.333333333 -16 198.666666667 -13.6666666667 208 -9 c 128
 217.333333333 -4.33333333333 223.666666667 2 227 10 c 0
 231.666666667 18 234 30 234 46 c 2
 234 552 l 2
 234 565.333333333 231.166666667 575.166666667 225.5 581.5 c 128
 219.833333333 587.833333333 209 591.333333333 193 592 c 2
 122 592 l 1
 122 624 l 1
 142 624 l 2
 154 624 167.666666667 626 183 630 c 0
 197 634 209.333333333 639.333333333 220 646 c 128
 230.666666667 652.666666667 239.333333333 659.333333333 246 666 c 2
 264 680 l 1
EndSplineSet
EndChar

StartChar: two
Encoding: 21 50 21
Width: 512
VWidth: 1024
Flags: HW
LayerCount: 2
Fore
SplineSet
453 119 m 1
 441 -46 l 1
 61 -46 l 1
 62 -32 l 2
 62 -26.6666666667 62.5 -20.6666666667 63.5 -14 c 128
 64.5 -7.33333333333 67.3333333333 6.66666666667 72 28 c 128
 76.6666666667 49.3333333333 82.3333333333 68.3333333333 89 85 c 0
 95.6666666667 103 102 116.833333333 108 126.5 c 128
 114 136.166666667 122.833333333 148.333333333 134.5 163 c 128
 146.166666667 177.666666667 157.833333333 191.5 169.5 204.5 c 128
 181.166666667 217.5 193.333333333 229.666666667 206 241 c 2
 254 283 l 1
 301 322 l 2
 313 332.666666667 326.333333333 345.333333333 341 360 c 128
 355.666666667 374.666666667 368 394 378 418 c 0
 389.333333333 442 393.666666667 471.333333333 391 506 c 0
 389.666666667 524.666666667 385.666666667 543.333333333 379 562 c 0
 373.666666667 580.666666667 365 596.166666667 353 608.5 c 128
 341 620.833333333 326.5 630.166666667 309.5 636.5 c 128
 292.5 642.833333333 276.666666667 646.666666667 262 648 c 0
 244.666666667 649.333333333 228.666666667 648 214 644 c 128
 199.333333333 640 186.166666667 635.333333333 174.5 630 c 128
 162.833333333 624.666666667 153.5 619.333333333 146.5 614 c 128
 139.5 608.666666667 131.333333333 600 122 588 c 128
 112.666666667 576 106.166666667 562.833333333 102.5 548.5 c 128
 98.8333333333 534.166666667 97 523 97 515 c 0
 97 505.666666667 98.3333333333 498.5 101 493.5 c 128
 103.666666667 488.5 106.666666667 485.333333333 110 484 c 128
 113.333333333 482.666666667 117.666666667 481.166666667 123 479.5 c 128
 128.333333333 477.833333333 132.333333333 475.666666667 135 473 c 128
 137.666666667 470.333333333 140.333333333 466.5 143 461.5 c 128
 145.666666667 456.5 147 450.666666667 147 444 c 0
 146.333333333 434.666666667 143.5 426.666666667 138.5 420 c 128
 133.5 413.333333333 125 410 113 410 c 0
 105 410 97.6666666667 411.833333333 91 415.5 c 128
 84.3333333333 419.166666667 78.5 424.833333333 73.5 432.5 c 128
 68.5 440.166666667 65 448 63 456 c 128
 61 464 59.8333333333 475.333333333 59.5 490 c 128
 59.1666666667 504.666666667 61.6666666667 522 67 542 c 0
 71 558 77.6666666667 574 87 590 c 128
 96.3333333333 606 106.666666667 618.833333333 118 628.5 c 128
 129.333333333 638.166666667 139.666666667 645.833333333 149 651.5 c 128
 158.333333333 657.166666667 168.166666667 662 178.5 666 c 128
 188.833333333 670 200.666666667 673.333333333 214 676 c 128
 227.333333333 678.666666667 241.666666667 680 257 680 c 0
 274.333333333 680 291.333333333 678.166666667 308 674.5 c 128
 324.666666667 670.833333333 343.333333333 663.5 364 652.5 c 128
 384.666666667 641.5 404 624 422 600 c 128
 440 576 449.666666667 548 451 516 c 128
 452.333333333 484 449.333333333 456.333333333 442 433 c 0
 432 401.666666667 418.666666667 376.666666667 402 358 c 128
 385.333333333 339.333333333 368.833333333 323.333333333 352.5 310 c 128
 336.166666667 296.666666667 321 284.666666667 307 274 c 2
 277 252 l 1
 238 223 l 2
 222.666666667 211 209.666666667 199.5 199 188.5 c 128
 188.333333333 177.5 178.333333333 166.333333333 169 155 c 128
 159.666666667 143.666666667 152 133.333333333 146 124 c 128
 140 114.666666667 134.333333333 104.666666667 129 94 c 128
 123.666666667 83.3333333333 119.666666667 74.6666666667 117 68 c 0
 115.666666667 61.3333333333 112.333333333 46 107 22 c 2
 105 7 l 1
 346 7 l 2
 356.666666667 7 366.166666667 8 374.5 10 c 128
 382.833333333 12 390.5 17 397.5 25 c 128
 404.5 33 410 45.3333333333 414 62 c 2
 427 119 l 1
 453 119 l 1
EndSplineSet
EndChar

StartChar: three
Encoding: 22 51 22
Width: 512
VWidth: 1024
Flags: HW
LayerCount: 2
Fore
SplineSet
232 348 m 1
 236.666666667 347.333333333 240.666666667 347 244 347 c 128
 247.333333333 347 253 347.833333333 261 349.5 c 128
 269 351.166666667 279.166666667 355 291.5 361 c 128
 303.833333333 367 315.666666667 376 327 388 c 128
 338.333333333 400 346.333333333 410.5 351 419.5 c 128
 355.666666667 428.5 359.333333333 441 362 457 c 128
 364.666666667 473 366.666666667 488.333333333 368 503 c 0
 368 517.666666667 366.666666667 532.666666667 364 548 c 0
 361.333333333 558.666666667 357.5 569.5 352.5 580.5 c 128
 347.5 591.5 340.5 601.666666667 331.5 611 c 128
 322.5 620.333333333 312.5 627.5 301.5 632.5 c 128
 290.5 637.5 279.833333333 640.833333333 269.5 642.5 c 128
 259.166666667 644.166666667 248.666666667 645.333333333 238 646 c 0
 232.666666667 646 226 645.666666667 218 645 c 128
 210 644.333333333 201.333333333 642.666666667 192 640 c 128
 182.666666667 637.333333333 174.666666667 634.5 168 631.5 c 128
 161.333333333 628.5 154.666666667 624.5 148 619.5 c 128
 141.333333333 614.5 135.5 608.666666667 130.5 602 c 128
 125.5 595.333333333 121.833333333 587.833333333 119.5 579.5 c 128
 117.166666667 571.166666667 116.666666667 563.666666667 118 557 c 0
 118 553 118.666666667 549.666666667 120 547 c 128
 121.333333333 544.333333333 123 541.833333333 125 539.5 c 128
 127 537.166666667 130 535.333333333 134 534 c 128
 138 532.666666667 142.333333333 531 147 529 c 128
 151.666666667 527 156 523.333333333 160 518 c 128
 164 512.666666667 166 505.333333333 166 496 c 128
 166 486.666666667 162.666666667 478.166666667 156 470.5 c 128
 149.333333333 462.833333333 141.333333333 458.833333333 132 458.5 c 128
 122.666666667 458.166666667 113.333333333 462 104 470 c 0
 95.3333333333 476.666666667 89.1666666667 485.833333333 85.5 497.5 c 128
 81.8333333333 509.166666667 80.6666666667 522 82 536 c 0
 82 544 82.8333333333 552.666666667 84.5 562 c 128
 86.1666666667 571.333333333 89 581.166666667 93 591.5 c 128
 97 601.833333333 103 611.833333333 111 621.5 c 128
 119 631.166666667 128.833333333 640.166666667 140.5 648.5 c 128
 152.166666667 656.833333333 165 663.833333333 179 669.5 c 128
 193 675.166666667 206 678.666666667 218 680 c 0
 228.666666667 681.333333333 239.333333333 682 250 682 c 0
 258 682 266.666666667 681.333333333 276 680 c 0
 284 678.666666667 294.833333333 676.166666667 308.5 672.5 c 128
 322.166666667 668.833333333 336 663 350 655 c 128
 364 647 377.5 635.166666667 390.5 619.5 c 128
 403.5 603.833333333 413.166666667 586 419.5 566 c 128
 425.833333333 546 428.333333333 523.333333333 427 498 c 0
 426.333333333 486 424.666666667 473.166666667 422 459.5 c 128
 419.333333333 445.833333333 414 431.833333333 406 417.5 c 128
 398 403.166666667 389 390.833333333 379 380.5 c 128
 369 370.166666667 358.666666667 361.833333333 348 355.5 c 128
 337.333333333 349.166666667 329.333333333 344.666666667 324 342 c 2
 308 336 l 1
 312.666666667 334.666666667 316.833333333 333.333333333 320.5 332 c 128
 324.166666667 330.666666667 330.666666667 328 340 324 c 128
 349.333333333 320 359.333333333 314.333333333 370 307 c 128
 380.666666667 299.666666667 391.833333333 289.333333333 403.5 276 c 128
 415.166666667 262.666666667 425.333333333 244 434 220 c 0
 443.333333333 197.333333333 447.666666667 171 447 141 c 0
 446.333333333 105 440.333333333 75.5 429 52.5 c 128
 417.666666667 29.5 406.666666667 12 396 0 c 128
 385.333333333 -12 372.833333333 -22.5 358.5 -31.5 c 128
 344.166666667 -40.5 331.166666667 -47 319.5 -51 c 128
 307.833333333 -55 298.5 -57.5 291.5 -58.5 c 128
 284.5 -59.5 275.166666667 -60.6666666667 263.5 -62 c 128
 251.833333333 -63.3333333333 244 -64 240 -64 c 0
 233.333333333 -64 224.666666667 -63.5 214 -62.5 c 128
 203.333333333 -61.5 193.166666667 -59.6666666667 183.5 -57 c 128
 173.833333333 -54.3333333333 164.833333333 -51 156.5 -47 c 128
 148.166666667 -43 139.166666667 -37.5 129.5 -30.5 c 128
 119.833333333 -23.5 111 -15.3333333333 103 -6 c 128
 95 3.33333333333 88.5 12.6666666667 83.5 22 c 128
 78.5 31.3333333333 74.6666666667 40.6666666667 72 50 c 128
 69.3333333333 59.3333333333 67.3333333333 67 66 73 c 0
 66 81 66 81 66 93 c 0
 66 106.333333333 66.8333333333 117.833333333 68.5 127.5 c 128
 70.1666666667 137.166666667 73.5 145.333333333 78.5 152 c 128
 83.5 158.666666667 89.3333333333 163.333333333 96 166 c 128
 102.666666667 168.666666667 108.5 170 113.5 170 c 128
 118.5 170 123.666666667 168 129 164 c 0
 134.333333333 161.333333333 139.166666667 156.666666667 143.5 150 c 128
 147.833333333 143.333333333 150 136 150 128 c 128
 150 120 148.166666667 114 144.5 110 c 128
 140.833333333 106 135.666666667 102.333333333 129 99 c 128
 122.333333333 95.6666666667 117.333333333 92.6666666667 114 90 c 128
 110.666666667 87.3333333333 108.166666667 84.6666666667 106.5 82 c 128
 104.833333333 79.3333333333 104 75.6666666667 104 71 c 0
 104 67.6666666667 104.666666667 62.6666666667 106 56 c 128
 107.333333333 49.3333333333 109.666666667 42 113 34 c 128
 116.333333333 26 121.333333333 18.5 128 11.5 c 128
 134.666666667 4.5 142 -1.33333333333 150 -6 c 0
 156.666666667 -11.3333333333 164.5 -15.8333333333 173.5 -19.5 c 128
 182.5 -23.1666666667 191.833333333 -25.8333333333 201.5 -27.5 c 128
 211.166666667 -29.1666666667 221.333333333 -30 232 -30 c 0
 244 -30 256 -29.3333333333 268 -28 c 0
 280 -25.3333333333 291 -21.5 301 -16.5 c 128
 311 -11.5 319.5 -6.5 326.5 -1.5 c 128
 333.5 3.5 341.166666667 10.6666666667 349.5 20 c 128
 357.833333333 29.3333333333 364.833333333 40.1666666667 370.5 52.5 c 128
 376.166666667 64.8333333333 380.166666667 79.8333333333 382.5 97.5 c 128
 384.833333333 115.166666667 386 131.666666667 386 147 c 128
 386 162.333333333 385 176.666666667 383 190 c 128
 381 203.333333333 378.666666667 215.833333333 376 227.5 c 128
 373.333333333 239.166666667 368.5 250.333333333 361.5 261 c 128
 354.5 271.666666667 345 281.166666667 333 289.5 c 128
 321 297.833333333 311 303.666666667 303 307 c 0
 295 309 285.5 311.333333333 274.5 314 c 128
 263.5 316.666666667 256 318 252 318 c 2
 235 320 l 1
 232 320 l 1
 232 348 l 1
EndSplineSet
EndChar

StartChar: four
Encoding: 23 52 23
Width: 512
VWidth: 1024
Flags: HW
LayerCount: 2
Fore
SplineSet
376 164 m 1
 471 164 l 1
 471 133 l 1
 376 133 l 1
 376 35 l 2
 376 27.6666666667 377.166666667 20.6666666667 379.5 14 c 128
 381.833333333 7.33333333333 384.833333333 2 388.5 -2 c 128
 392.166666667 -6 397.333333333 -9.16666666667 404 -11.5 c 128
 410.666666667 -13.8333333333 418.666666667 -15 428 -15 c 2
 454 -15 l 1
 454 -46 l 1
 236 -46 l 1
 236 -15 l 1
 272 -15 l 2
 278.666666667 -15 285.666666667 -14 293 -12 c 0
 299 -10.6666666667 304 -8.16666666667 308 -4.5 c 128
 312 -0.833333333333 315.333333333 4.16666666667 318 10.5 c 128
 320.666666667 16.8333333333 322.333333333 25 323 35 c 2
 323 133 l 1
 40 133 l 1
 40 161 l 1
 351 682 l 1
 376 682 l 1
 376 164 l 1
74 164 m 1
 323 164 l 1
 323 570 l 1
 74 164 l 1
EndSplineSet
EndChar

StartChar: five
Encoding: 24 53 24
Width: 512
VWidth: 1024
Flags: HW
LayerCount: 2
Fore
SplineSet
125 328 m 1
 133 337.333333333 140.333333333 345.666666667 147 353 c 128
 153.666666667 360.333333333 164.5 368 179.5 376 c 128
 194.5 384 209.333333333 389.333333333 224 392 c 128
 238.666666667 394.666666667 253.333333333 396 268 396 c 0
 298.666666667 394.666666667 324.166666667 388 344.5 376 c 128
 364.833333333 364 382.333333333 349.333333333 397 332 c 128
 411.666666667 314.666666667 422.166666667 297.833333333 428.5 281.5 c 128
 434.833333333 265.166666667 439.333333333 250 442 236 c 128
 444.666666667 222 446 200.666666667 446 172 c 128
 446 143.333333333 442 114.666666667 434 86 c 0
 427.333333333 64.6666666667 418.666666667 46 408 30 c 128
 397.333333333 14 385.333333333 -0.166666666667 372 -12.5 c 128
 358.666666667 -24.8333333333 343.666666667 -35.1666666667 327 -43.5 c 128
 310.333333333 -51.8333333333 296 -56.8333333333 284 -58.5 c 128
 272 -60.1666666667 261.333333333 -61.5 252 -62.5 c 128
 242.666666667 -63.5 235.333333333 -64 230 -64 c 0
 222 -64 213.333333333 -63.3333333333 204 -62 c 0
 196 -60.6666666667 186.666666667 -58.6666666667 176 -56 c 128
 165.333333333 -53.3333333333 153.666666667 -48.8333333333 141 -42.5 c 128
 128.333333333 -36.1666666667 117.333333333 -28.5 108 -19.5 c 128
 98.6666666667 -10.5 90.6666666667 -0.666666666667 84 10 c 128
 77.3333333333 20.6666666667 72.6666666667 31.3333333333 70 42 c 0
 66 52.6666666667 64 63.6666666667 64 75 c 0
 64 85 64.6666666667 94 66 102 c 128
 67.3333333333 110 70.6666666667 116.666666667 76 122 c 0
 80 127.333333333 84.6666666667 130.666666667 90 132 c 0
 95.3333333333 134.666666667 102.333333333 135.833333333 111 135.5 c 128
 119.666666667 135.166666667 127.333333333 131.5 134 124.5 c 128
 140.666666667 117.5 143.666666667 109.333333333 143 100 c 0
 143.666666667 94.6666666667 142.666666667 90.3333333333 140 87 c 0
 138.666666667 83 136.666666667 80 134 78 c 2
 124 68 l 2
 121.333333333 64.6666666667 119.166666667 61.3333333333 117.5 58 c 128
 115.833333333 54.6666666667 115 50.8333333333 115 46.5 c 128
 115 42.1666666667 115.666666667 37.3333333333 117 32 c 0
 119 25.3333333333 121.333333333 19.3333333333 124 14 c 128
 126.666666667 8.66666666667 130.833333333 3.33333333333 136.5 -2 c 128
 142.166666667 -7.33333333333 148.166666667 -11.5 154.5 -14.5 c 128
 160.833333333 -17.5 167.333333333 -20.3333333333 174 -23 c 0
 182 -25 191.333333333 -26.6666666667 202 -28 c 128
 212.666666667 -29.3333333333 221.666666667 -30 229 -30 c 0
 239.666666667 -30 251.5 -29.1666666667 264.5 -27.5 c 128
 277.5 -25.8333333333 289.333333333 -21.8333333333 300 -15.5 c 128
 310.666666667 -9.16666666667 320 -2.33333333333 328 5 c 128
 336 12.3333333333 344.166666667 22 352.5 34 c 128
 360.833333333 46 367.333333333 59.3333333333 372 74 c 128
 376.666666667 88.6666666667 380.166666667 104 382.5 120 c 128
 384.833333333 136 386 150.833333333 386 164.5 c 128
 386 178.166666667 385.333333333 191.666666667 384 205 c 2
 382 226 l 2
 380.666666667 234.666666667 378.166666667 246.333333333 374.5 261 c 128
 370.833333333 275.666666667 365.166666667 289.5 357.5 302.5 c 128
 349.833333333 315.5 340.833333333 326.666666667 330.5 336 c 128
 320.166666667 345.333333333 308.5 352.666666667 295.5 358 c 128
 282.5 363.333333333 271 366 261 366 c 0
 254.333333333 366 245 365.166666667 233 363.5 c 128
 221 361.833333333 211 359.5 203 356.5 c 128
 195 353.5 186.833333333 349.333333333 178.5 344 c 128
 170.166666667 338.666666667 163.333333333 333.333333333 158 328 c 128
 152.666666667 322.666666667 147.666666667 316.333333333 143 309 c 0
 139.666666667 302.333333333 137.333333333 298.333333333 136 297 c 2
 132 288 l 1
 95 288 l 1
 104 660 l 1
 431 660 l 1
 418 607 l 1
 130 607 l 1
 125 328 l 1
EndSplineSet
EndChar

StartChar: six
Encoding: 25 54 25
Width: 512
VWidth: 1024
Flags: HW
LayerCount: 2
Fore
SplineSet
134 272 m 1
 134 254 133.833333333 239.833333333 133.5 229.5 c 128
 133.166666667 219.166666667 133.833333333 201.666666667 135.5 177 c 128
 137.166666667 152.333333333 139.333333333 130 142 110 c 128
 144.666666667 90 148.333333333 73.3333333333 153 60 c 128
 157.666666667 46.6666666667 163.333333333 34 170 22 c 128
 176.666666667 10 184 -0.333333333333 192 -9 c 128
 200 -17.6666666667 209.333333333 -24 220 -28 c 128
 230.666666667 -32 242 -34 254 -34 c 0
 260.666666667 -34 267.5 -33.5 274.5 -32.5 c 128
 281.5 -31.5 288.833333333 -29 296.5 -25 c 128
 304.166666667 -21 311.333333333 -16.3333333333 318 -11 c 128
 324.666666667 -5.66666666667 330.833333333 0.5 336.5 7.5 c 128
 342.166666667 14.5 348.166666667 25.1666666667 354.5 39.5 c 128
 360.833333333 53.8333333333 366 71.5 370 92.5 c 128
 374 113.5 376.166666667 136.666666667 376.5 162 c 128
 376.833333333 187.333333333 376.333333333 208.666666667 375 226 c 0
 373.666666667 238.666666667 370.833333333 251.666666667 366.5 265 c 128
 362.166666667 278.333333333 356 291.333333333 348 304 c 0
 338.666666667 316.666666667 329.166666667 326 319.5 332 c 128
 309.833333333 338 300.333333333 342.166666667 291 344.5 c 128
 281.666666667 346.833333333 273 348 265 348 c 0
 253.666666667 348 243.166666667 346.666666667 233.5 344 c 128
 223.833333333 341.333333333 213.5 336.833333333 202.5 330.5 c 128
 191.5 324.166666667 181 316.833333333 171 308.5 c 128
 161 300.166666667 154 294 150 290 c 2
 134 272 l 1
134 312 m 1
 139.333333333 318 144.333333333 323.5 149 328.5 c 128
 153.666666667 333.5 161.833333333 340.333333333 173.5 349 c 128
 185.166666667 357.666666667 199.5 365.333333333 216.5 372 c 128
 233.5 378.666666667 251.333333333 382 270 382 c 0
 287.333333333 382 305.333333333 378.666666667 324 372 c 128
 342.666666667 365.333333333 359.833333333 354.666666667 375.5 340 c 128
 391.166666667 325.333333333 403.5 309 412.5 291 c 128
 421.5 273 428 254.166666667 432 234.5 c 128
 436 214.833333333 437.666666667 192.333333333 437 167 c 0
 436.333333333 149.666666667 434.833333333 132.5 432.5 115.5 c 128
 430.166666667 98.5 425.833333333 81 419.5 63 c 128
 413.166666667 45 406 30 398 18 c 128
 390 6 382.166666667 -4.16666666667 374.5 -12.5 c 128
 366.833333333 -20.8333333333 360.5 -26.8333333333 355.5 -30.5 c 128
 350.5 -34.1666666667 344 -38.6666666667 336 -44 c 128
 328 -49.3333333333 319.166666667 -53.6666666667 309.5 -57 c 128
 299.833333333 -60.3333333333 289.833333333 -62.6666666667 279.5 -64 c 128
 269.166666667 -65.3333333333 260.333333333 -66 253 -66 c 0
 244.333333333 -66 236.333333333 -65.3333333333 229 -64 c 128
 221.666666667 -62.6666666667 212.666666667 -60.3333333333 202 -57 c 128
 191.333333333 -53.6666666667 180.333333333 -48.3333333333 169 -41 c 128
 157.666666667 -33.6666666667 147.333333333 -24.3333333333 138 -13 c 128
 128.666666667 -1.66666666667 119.666666667 13.6666666667 111 33 c 128
 102.333333333 52.3333333333 96.1666666667 70.1666666667 92.5 86.5 c 128
 88.8333333333 102.833333333 86 117.5 84 130.5 c 128
 82 143.5 80.5 155.333333333 79.5 166 c 128
 78.5 176.666666667 77.5 190.5 76.5 207.5 c 128
 75.5 224.5 75 240.833333333 75 256.5 c 128
 75 280 75 280 75 302 c 0
 75 314.666666667 75.3333333333 327.666666667 76 341 c 128
 76.6666666667 354.333333333 78.1666666667 372.166666667 80.5 394.5 c 128
 82.8333333333 416.833333333 85.8333333333 437.166666667 89.5 455.5 c 128
 93.1666666667 473.833333333 97.8333333333 492.5 103.5 511.5 c 128
 109.166666667 530.5 116.5 549.666666667 125.5 569 c 128
 134.5 588.333333333 145.5 606.333333333 158.5 623 c 128
 171.5 639.666666667 187.333333333 653.333333333 206 664 c 0
 223.333333333 674.666666667 244.666666667 680.333333333 270 681 c 0
 282 681 294 679.833333333 306 677.5 c 128
 318 675.166666667 330.333333333 671.333333333 343 666 c 128
 355.666666667 660.666666667 368.5 651.666666667 381.5 639 c 128
 394.5 626.333333333 403.833333333 612 409.5 596 c 128
 415.166666667 580 417.666666667 564 417 548 c 0
 416.333333333 534.666666667 414 524 410 516 c 128
 406 508 401 501.333333333 395 496 c 128
 389 490.666666667 381.333333333 488.666666667 372 490 c 0
 366.666666667 490 361.833333333 491.333333333 357.5 494 c 128
 353.166666667 496.666666667 349.5 500.5 346.5 505.5 c 128
 343.5 510.5 342 516.166666667 342 522.5 c 128
 342 528.833333333 343.333333333 535.666666667 346 543 c 0
 347.333333333 547 348.666666667 550.666666667 350 554 c 2
 358 565 l 2
 360 568.333333333 361.5 571.833333333 362.5 575.5 c 128
 363.5 579.166666667 364 583.166666667 364 587.5 c 128
 364 591.833333333 363.333333333 596.333333333 362 601 c 0
 359.333333333 607.666666667 354 614.833333333 346 622.5 c 128
 338 630.166666667 330 635.666666667 322 639 c 128
 314 642.333333333 306 644.666666667 298 646 c 128
 290 647.333333333 283.333333333 648 278 648 c 128
 272.666666667 648 265.166666667 647 255.5 645 c 128
 245.833333333 643 238.166666667 640.833333333 232.5 638.5 c 128
 226.833333333 636.166666667 220 631.333333333 212 624 c 128
 204 616.666666667 196.333333333 608.333333333 189 599 c 128
 181.666666667 589.666666667 174.833333333 576.666666667 168.5 560 c 128
 162.166666667 543.333333333 156.833333333 527.166666667 152.5 511.5 c 128
 148.166666667 495.833333333 145 478.333333333 143 459 c 128
 141 439.666666667 139 417 137 391 c 128
 135 365 134 338.666666667 134 312 c 1
EndSplineSet
EndChar

StartChar: seven
Encoding: 26 55 26
Width: 512
VWidth: 1024
Flags: HW
LayerCount: 2
Fore
SplineSet
460 616 m 1
 422 567 l 2
 410 551.666666667 397.833333333 533.333333333 385.5 512 c 128
 373.166666667 490.666666667 361.833333333 468.666666667 351.5 446 c 128
 341.166666667 423.333333333 334 406.666666667 330 396 c 128
 326 385.333333333 321.833333333 373 317.5 359 c 128
 313.166666667 345 309.166666667 331.333333333 305.5 318 c 128
 301.833333333 304.666666667 298.666666667 291 296 277 c 0
 293.333333333 264.333333333 291 252 289 240 c 0
 288.333333333 228.666666667 286.833333333 214.666666667 284.5 198 c 128
 282.166666667 181.333333333 280.666666667 168.5 280 159.5 c 128
 279.333333333 150.5 278.833333333 137.333333333 278.5 120 c 128
 278.166666667 102.666666667 277.333333333 80 276 52 c 128
 274.666666667 24 274.166666667 2.66666666667 274.5 -12 c 128
 274.833333333 -26.6666666667 273.666666667 -37.3333333333 271 -44 c 0
 268.333333333 -49.3333333333 264.666666667 -54 260 -58 c 128
 255.333333333 -62 248.833333333 -64.3333333333 240.5 -65 c 128
 232.166666667 -65.6666666667 224.666666667 -62.6666666667 218 -56 c 0
 214.666666667 -52 211.833333333 -46.6666666667 209.5 -40 c 128
 207.166666667 -33.3333333333 206.666666667 -20.6666666667 208 -2 c 2
 211 42 l 2
 211.666666667 55.3333333333 213.333333333 76 216 104 c 128
 218.666666667 132 221.5 154.333333333 224.5 171 c 128
 227.5 187.666666667 232.5 210 239.5 238 c 128
 246.5 266 254.666666667 294 264 322 c 128
 273.333333333 350 283 375.333333333 293 398 c 128
 303 420.666666667 313.666666667 443.333333333 325 466 c 128
 336.333333333 488.666666667 346 506 354 518 c 2
 385 567 l 1
 409 606 l 1
 152 606 l 2
 136 606 122.666666667 602.333333333 112 595 c 128
 101.333333333 587.666666667 94 577 90 563 c 128
 86 549 83.3333333333 535.666666667 82 523 c 2
 78 482 l 1
 51 482 l 1
 62 660 l 1
 460 660 l 1
 460 616 l 1
EndSplineSet
EndChar

StartChar: eight
Encoding: 27 56 27
Width: 512
VWidth: 1024
Flags: HW
LayerCount: 2
Fore
SplineSet
309 343 m 1
 334 327 l 2
 342 321.666666667 350 316.166666667 358 310.5 c 128
 366 304.833333333 374.5 298 383.5 290 c 128
 392.5 282 401.5 272.666666667 410.5 262 c 128
 419.5 251.333333333 427.333333333 238.5 434 223.5 c 128
 440.666666667 208.5 445.166666667 193 447.5 177 c 128
 449.833333333 161 451 148 451 138 c 0
 450.333333333 123.333333333 448.666666667 109.166666667 446 95.5 c 128
 443.333333333 81.8333333333 440.333333333 70.1666666667 437 60.5 c 128
 433.666666667 50.8333333333 429.333333333 41.3333333333 424 32 c 128
 418.666666667 22.6666666667 412 13.6666666667 404 5 c 128
 396 -3.66666666667 387.5 -12 378.5 -20 c 128
 369.5 -28 361.333333333 -33.8333333333 354 -37.5 c 128
 346.666666667 -41.1666666667 338.833333333 -44.6666666667 330.5 -48 c 128
 322.166666667 -51.3333333333 313.5 -54.1666666667 304.5 -56.5 c 128
 295.5 -58.8333333333 286.166666667 -60.3333333333 276.5 -61 c 128
 266.833333333 -61.6666666667 258.666666667 -62 252 -62 c 0
 244 -62 235.333333333 -61.6666666667 226 -61 c 128
 216.666666667 -60.3333333333 207.833333333 -59.1666666667 199.5 -57.5 c 128
 191.166666667 -55.8333333333 182.333333333 -53 173 -49 c 128
 163.666666667 -45 154.5 -40.1666666667 145.5 -34.5 c 128
 136.5 -28.8333333333 128.666666667 -22.6666666667 122 -16 c 128
 115.333333333 -9.33333333333 108.666666667 -2 102 6 c 128
 95.3333333333 14 89 23.6666666667 83 35 c 0
 78.3333333333 46.3333333333 74.1666666667 57.3333333333 70.5 68 c 128
 66.8333333333 78.6666666667 64.1666666667 90 62.5 102 c 128
 60.8333333333 114 60 127.333333333 60 142 c 0
 60 158 61.8333333333 174.666666667 65.5 192 c 128
 69.1666666667 209.333333333 75.6666666667 226 85 242 c 0
 95 259.333333333 106 273.333333333 118 284 c 128
 130 294.666666667 142 303.333333333 154 310 c 128
 166 316.666666667 175.666666667 322.333333333 183 327 c 2
 206 338 l 1
 194 345.333333333 184 351.833333333 176 357.5 c 128
 168 363.166666667 158 370.833333333 146 380.5 c 128
 134 390.166666667 123.666666667 400 115 410 c 0
 107.666666667 420.666666667 101.333333333 431.333333333 96 442 c 128
 90.6666666667 452.666666667 86.6666666667 463 84 473 c 128
 81.3333333333 483 80.3333333333 494.666666667 81 508 c 0
 80.3333333333 520 81.3333333333 532.166666667 84 544.5 c 128
 86.6666666667 556.833333333 90.6666666667 569.166666667 96 581.5 c 128
 101.333333333 593.833333333 108 605.666666667 116 617 c 128
 124 628.333333333 132.833333333 638 142.5 646 c 128
 152.166666667 654 163.666666667 660.666666667 177 666 c 128
 190.333333333 671.333333333 203.5 675.333333333 216.5 678 c 128
 229.5 680.666666667 242.666666667 682 256 682 c 0
 266.666666667 682 278.833333333 680.666666667 292.5 678 c 128
 306.166666667 675.333333333 319.833333333 671 333.5 665 c 128
 347.166666667 659 359.333333333 651.666666667 370 643 c 0
 380.666666667 635.666666667 391.333333333 624.166666667 402 608.5 c 128
 412.666666667 592.833333333 419.666666667 576.166666667 423 558.5 c 128
 426.333333333 540.833333333 428 525.333333333 428 512 c 0
 428 494.666666667 426.5 480 423.5 468 c 128
 420.5 456 416.666666667 444.5 412 433.5 c 128
 407.333333333 422.5 401.666666667 412.666666667 395 404 c 128
 388.333333333 395.333333333 380.666666667 387.333333333 372 380 c 128
 363.333333333 372.666666667 356.333333333 367.5 351 364.5 c 128
 345.666666667 361.5 337.333333333 357.333333333 326 352 c 2
 309 343 l 1
284 356 m 1
 288.666666667 358 292.833333333 360.166666667 296.5 362.5 c 128
 300.166666667 364.833333333 305.333333333 368.666666667 312 374 c 128
 318.666666667 379.333333333 324.833333333 384.666666667 330.5 390 c 128
 336.166666667 395.333333333 341.666666667 402.333333333 347 411 c 128
 352.333333333 419.666666667 356.5 428 359.5 436 c 128
 362.5 444 365.333333333 455.333333333 368 470 c 0
 370.666666667 483.333333333 372 496.666666667 372 510 c 128
 372 523.333333333 371.333333333 535.333333333 370 546 c 0
 368 558.666666667 365 570.166666667 361 580.5 c 128
 357 590.833333333 351.166666667 600.666666667 343.5 610 c 128
 335.833333333 619.333333333 327.333333333 626.666666667 318 632 c 128
 308.666666667 637.333333333 298.666666667 641.333333333 288 644 c 128
 277.333333333 646.666666667 267.5 648 258.5 648 c 128
 249.5 648 239.5 646.833333333 228.5 644.5 c 128
 217.5 642.166666667 206.666666667 638.166666667 196 632.5 c 128
 185.333333333 626.833333333 176 619.333333333 168 610 c 128
 160 600.666666667 153.833333333 590.666666667 149.5 580 c 128
 145.166666667 569.333333333 142 558.666666667 140 548 c 0
 138.666666667 538.666666667 138 528 138 516 c 128
 138 504 138.666666667 494.666666667 140 488 c 0
 141.333333333 479.333333333 144.166666667 470.666666667 148.5 462 c 128
 152.833333333 453.333333333 158.5 445 165.5 437 c 128
 172.5 429 179.333333333 422.166666667 186 416.5 c 128
 192.666666667 410.833333333 201.333333333 404.666666667 212 398 c 2
 242 379 l 2
 251.333333333 373 258.666666667 368.666666667 264 366 c 2
 284 356 l 1
232 324 m 1
 224 320 216.666666667 316 210 312 c 128
 203.333333333 308 196.333333333 303.333333333 189 298 c 128
 181.666666667 292.666666667 174.833333333 286.666666667 168.5 280 c 128
 162.166666667 273.333333333 155.833333333 265.666666667 149.5 257 c 128
 143.166666667 248.333333333 138.333333333 239.666666667 135 231 c 128
 131.666666667 222.333333333 128.666666667 212.333333333 126 201 c 128
 123.333333333 189.666666667 121.666666667 178.333333333 121 167 c 128
 120.333333333 155.666666667 120 144.666666667 120 134 c 0
 120 117.333333333 121.333333333 100.166666667 124 82.5 c 128
 126.666666667 64.8333333333 131.666666667 50 139 38 c 128
 146.333333333 26 153 16.5 159 9.5 c 128
 165 2.5 172.666666667 -4.16666666667 182 -10.5 c 128
 191.333333333 -16.8333333333 201.666666667 -21.6666666667 213 -25 c 128
 224.333333333 -28.3333333333 237.333333333 -30 252 -30 c 0
 264 -30 275 -29 285 -27 c 128
 295 -25 304.666666667 -21.6666666667 314 -17 c 128
 323.333333333 -12.3333333333 332.666666667 -6.33333333333 342 1 c 128
 351.333333333 8.33333333333 359 17 365 27 c 128
 371 37 375.666666667 47 379 57 c 128
 382.333333333 67 385 78.8333333333 387 92.5 c 128
 389 106.166666667 390 118.666666667 390 130 c 128
 390 141.333333333 389 152.166666667 387 162.5 c 128
 385 172.833333333 383.166666667 181 381.5 187 c 128
 379.833333333 193 376.833333333 200.666666667 372.5 210 c 128
 368.166666667 219.333333333 363.333333333 228 358 236 c 128
 352.666666667 244 346.333333333 251.333333333 339 258 c 128
 331.666666667 264.666666667 325.666666667 269.666666667 321 273 c 128
 316.333333333 276.333333333 307.333333333 282.333333333 294 291 c 128
 280.666666667 299.666666667 271.333333333 305 266 307 c 2
 244 317 l 1
 232 324 l 1
EndSplineSet
EndChar

StartChar: nine
Encoding: 28 57 28
Width: 512
VWidth: 1024
Flags: HW
LayerCount: 2
Fore
SplineSet
378 306 m 1
 368.666666667 296.666666667 360.5 288.666666667 353.5 282 c 128
 346.5 275.333333333 338.333333333 269 329 263 c 128
 319.666666667 257 310.166666667 251.666666667 300.5 247 c 128
 290.833333333 242.333333333 280 238.166666667 268 234.5 c 128
 256 230.833333333 240.666666667 229.666666667 222 231 c 0
 212.666666667 231 204.5 231.833333333 197.5 233.5 c 128
 190.5 235.166666667 183.5 237.333333333 176.5 240 c 128
 169.5 242.666666667 161 247.333333333 151 254 c 128
 141 260.666666667 132.666666667 267.166666667 126 273.5 c 128
 119.333333333 279.833333333 112.666666667 288.5 106 299.5 c 128
 99.3333333333 310.5 93.3333333333 322.166666667 88 334.5 c 128
 82.6666666667 346.833333333 79.1666666667 359.166666667 77.5 371.5 c 128
 75.8333333333 383.833333333 74.6666666667 395.333333333 74 406 c 128
 73.3333333333 416.666666667 73 428 73 440 c 128
 73 452 73.5 464.5 74.5 477.5 c 128
 75.5 490.5 77.3333333333 503.333333333 80 516 c 128
 82.6666666667 528.666666667 86.3333333333 541.166666667 91 553.5 c 128
 95.6666666667 565.833333333 102 579 110 593 c 128
 118 607 127.166666667 619.333333333 137.5 630 c 128
 147.833333333 640.666666667 157.666666667 649.333333333 167 656 c 0
 176.333333333 661.333333333 186.5 666 197.5 670 c 128
 208.5 674 217.666666667 677 225 679 c 128
 232.333333333 681 243 682 257 682 c 0
 269 682 281 680.666666667 293 678 c 128
 305 675.333333333 316.833333333 670.666666667 328.5 664 c 128
 340.166666667 657.333333333 351.166666667 649.166666667 361.5 639.5 c 128
 371.833333333 629.833333333 381.166666667 619 389.5 607 c 128
 397.833333333 595 405.5 579 412.5 559 c 128
 419.5 539 424.833333333 517.833333333 428.5 495.5 c 128
 432.166666667 473.166666667 434.333333333 455.333333333 435 442 c 128
 435.666666667 428.666666667 436.666666667 409.166666667 438 383.5 c 128
 439.333333333 357.833333333 439.666666667 340.333333333 439 331 c 0
 438.333333333 330.333333333 437.333333333 316.666666667 436 290 c 2
 434 250 l 2
 432.666666667 236 431.333333333 219 430 199 c 0
 427.333333333 179.666666667 424.666666667 162.166666667 422 146.5 c 128
 419.333333333 130.833333333 414.166666667 111.5 406.5 88.5 c 128
 398.833333333 65.5 389.833333333 45.5 379.5 28.5 c 128
 369.166666667 11.5 358.666666667 -2.33333333333 348 -13 c 128
 337.333333333 -23.6666666667 326 -32.8333333333 314 -40.5 c 128
 302 -48.1666666667 290.833333333 -53.3333333333 280.5 -56 c 128
 270.166666667 -58.6666666667 261 -60.6666666667 253 -62 c 128
 245 -63.3333333333 239 -64 235 -64 c 0
 229 -64 222 -63.5 214 -62.5 c 128
 206 -61.5 198.333333333 -60.3333333333 191 -59 c 128
 183.666666667 -57.6666666667 174 -54.3333333333 162 -49 c 128
 150 -43.6666666667 139 -36.6666666667 129 -28 c 0
 120.333333333 -19.3333333333 112.833333333 -10.1666666667 106.5 -0.5 c 128
 100.166666667 9.16666666667 95.6666666667 19.3333333333 93 30 c 128
 90.3333333333 40.6666666667 88.8333333333 52 88.5 64 c 128
 88.1666666667 76 90.1666666667 86.6666666667 94.5 96 c 128
 98.8333333333 105.333333333 105.166666667 112.666666667 113.5 118 c 128
 121.833333333 123.333333333 130 126 138 126 c 0
 142 126 146.333333333 124.833333333 151 122.5 c 128
 155.666666667 120.166666667 160.666666667 115.5 166 108.5 c 128
 171.333333333 101.5 173.333333333 93.3333333333 172 84 c 0
 170.666666667 76.6666666667 168.666666667 71.8333333333 166 69.5 c 128
 163.333333333 67.1666666667 159.333333333 64 154 60 c 128
 148.666666667 56 144.666666667 52 142 48 c 0
 139.333333333 42.6666666667 138 36 138 28 c 128
 138 20 140.666666667 12 146 4 c 0
 150 -4 157.5 -10.8333333333 168.5 -16.5 c 128
 179.5 -22.1666666667 189.5 -26.1666666667 198.5 -28.5 c 128
 207.5 -30.8333333333 215.333333333 -32 222 -32 c 0
 227.333333333 -32 235 -31.3333333333 245 -30 c 128
 255 -28.6666666667 265.166666667 -26.6666666667 275.5 -24 c 128
 285.833333333 -21.3333333333 296 -14.3333333333 306 -3 c 0
 315.333333333 7 323.166666667 18 329.5 30 c 128
 335.833333333 42 341.5 55.3333333333 346.5 70 c 128
 351.5 84.6666666667 355.333333333 98.6666666667 358 112 c 128
 360.666666667 125.333333333 363.166666667 139.333333333 365.5 154 c 128
 367.833333333 168.666666667 370 186.5 372 207.5 c 128
 374 228.5 375.333333333 250 376 272 c 128
 376.666666667 294 377.333333333 305.333333333 378 306 c 1
378 344 m 1
 378 360 l 1
 378 403 l 1
 376 436 l 1
 374 479 l 2
 372.666666667 493 370.833333333 506.5 368.5 519.5 c 128
 366.166666667 532.5 362.833333333 545.5 358.5 558.5 c 128
 354.166666667 571.5 348.666666667 584 342 596 c 0
 335.333333333 606.666666667 327.333333333 615.833333333 318 623.5 c 128
 308.666666667 631.166666667 298.833333333 636.833333333 288.5 640.5 c 128
 278.166666667 644.166666667 267.666666667 646 257 646 c 0
 239 646 223.333333333 642 210 634 c 128
 196.666666667 626 184.666666667 613.833333333 174 597.5 c 128
 163.333333333 581.166666667 155.833333333 565.5 151.5 550.5 c 128
 147.166666667 535.5 144.166666667 522.5 142.5 511.5 c 128
 140.833333333 500.5 139.333333333 486 138 468 c 128
 136.666666667 450 136 436.833333333 136 428.5 c 128
 136 420.166666667 136.666666667 410 138 398 c 0
 139.333333333 380.666666667 142 364.5 146 349.5 c 128
 150 334.5 156 320.833333333 164 308.5 c 128
 172 296.166666667 180 287.333333333 188 282 c 128
 196 276.666666667 204.166666667 272.666666667 212.5 270 c 128
 220.833333333 267.333333333 229.666666667 266 239 266 c 0
 249.666666667 266 260.333333333 267.5 271 270.5 c 128
 281.666666667 273.5 291 277.5 299 282.5 c 128
 307 287.5 317.166666667 294 329.5 302 c 128
 341.833333333 310 351.333333333 317.333333333 358 324 c 2
 378 344 l 1
EndSplineSet
EndChar

StartChar: colon
Encoding: 29 58 29
Width: 512
VWidth: 1024
Flags: HW
LayerCount: 2
Fore
SplineSet
256 433 m 0
 266.666666667 432.333333333 277.333333333 429.333333333 288 424 c 128
 298.666666667 418.666666667 307 410.666666667 313 400 c 128
 319 389.333333333 322 378 322 366 c 128
 322 354 319 342.833333333 313 332.5 c 128
 307 322.166666667 299.166666667 314.166666667 289.5 308.5 c 128
 279.833333333 302.833333333 268.833333333 300 256.5 300 c 128
 244.166666667 300 232.666666667 302.833333333 222 308.5 c 128
 211.333333333 314.166666667 203.333333333 322.333333333 198 333 c 128
 192.666666667 343.666666667 190 354.833333333 190 366.5 c 128
 190 378.166666667 192.666666667 389.333333333 198 400 c 0
 204.666666667 410.666666667 213.333333333 418.833333333 224 424.5 c 128
 234.666666667 430.166666667 245.333333333 433 256 433 c 0
256 69 m 0
 267.333333333 69 278.166666667 66.1666666667 288.5 60.5 c 128
 298.833333333 54.8333333333 307 46.6666666667 313 36 c 128
 319 25.3333333333 322 14.3333333333 322 3 c 128
 322 -8.33333333333 319 -19.3333333333 313 -30 c 128
 307 -40.6666666667 299.166666667 -48.6666666667 289.5 -54 c 128
 279.833333333 -59.3333333333 268.833333333 -62 256.5 -62 c 128
 244.166666667 -62 232.666666667 -59.3333333333 222 -54 c 128
 211.333333333 -48.6666666667 203.333333333 -40.6666666667 198 -30 c 128
 192.666666667 -19.3333333333 190 -8.33333333333 190 3 c 128
 190 14.3333333333 192.833333333 25.3333333333 198.5 36 c 128
 204.166666667 46.6666666667 212.333333333 54.6666666667 223 60 c 128
 233.666666667 65.3333333333 244.666666667 68.3333333333 256 69 c 0
EndSplineSet
EndChar

StartChar: semicolon
Encoding: 30 59 30
Width: 512
VWidth: 1024
Flags: HW
LayerCount: 2
Fore
SplineSet
257 433 m 0
 267.666666667 433 278.333333333 430.166666667 289 424.5 c 128
 299.666666667 418.833333333 308 410.666666667 314 400 c 128
 320 389.333333333 323 378 323 366 c 128
 323 354 319.833333333 342.833333333 313.5 332.5 c 128
 307.166666667 322.166666667 299.166666667 314.166666667 289.5 308.5 c 128
 279.833333333 302.833333333 268.833333333 300 256.5 300 c 128
 244.166666667 300 233.166666667 303 223.5 309 c 128
 213.833333333 315 205.833333333 323.166666667 199.5 333.5 c 128
 193.166666667 343.833333333 189.833333333 354.833333333 189.5 366.5 c 128
 189.166666667 378.166666667 192.166666667 389.333333333 198.5 400 c 128
 204.833333333 410.666666667 213.333333333 418.666666667 224 424 c 128
 234.666666667 429.333333333 245.666666667 432.333333333 257 433 c 0
215 -193 m 1
 200 -176 l 1
 222 -151 l 2
 228.666666667 -143 235.166666667 -134.5 241.5 -125.5 c 128
 247.833333333 -116.5 253 -107.333333333 257 -98 c 128
 261 -88.6666666667 263 -80 263 -72 c 0
 263 -66.6666666667 261.666666667 -62 259 -58 c 128
 256.333333333 -54 252 -51 246 -49 c 2
 223 -43 l 2
 211 -39 202.166666667 -33.1666666667 196.5 -25.5 c 128
 190.833333333 -17.8333333333 187.833333333 -8 187.5 4 c 128
 187.166666667 16 189.666666667 26.8333333333 195 36.5 c 128
 200.333333333 46.1666666667 207.666666667 53.5 217 58.5 c 128
 226.333333333 63.5 235.666666667 66.3333333333 245 67 c 0
 255.666666667 67.6666666667 265.666666667 66 275 62 c 0
 285.666666667 58 294.333333333 52 301 44 c 128
 307.666666667 36 313 26.8333333333 317 16.5 c 128
 321 6.16666666667 323 -6.66666666667 323 -22 c 0
 323 -30 321.833333333 -40 319.5 -52 c 128
 317.166666667 -64 313.833333333 -75.3333333333 309.5 -86 c 128
 305.166666667 -96.6666666667 298.5 -108 289.5 -120 c 128
 280.5 -132 270.833333333 -143.333333333 260.5 -154 c 128
 250.166666667 -164.666666667 242.666666667 -171.666666667 238 -175 c 2
 215 -193 l 1
EndSplineSet
EndChar

StartChar: less
Encoding: 31 60 31
Width: 512
VWidth: 1024
Flags: HW
LayerCount: 2
Fore
SplineSet
48 306 m 1
 463 658 l 1
 464 610 l 1
 110 306 l 1
 463 4 l 1
 463 -50 l 1
 48 306 l 1
EndSplineSet
EndChar

StartChar: equal
Encoding: 32 61 32
Width: 512
VWidth: 1024
Flags: HW
LayerCount: 2
Fore
SplineSet
46 420 m 1
 465 420 l 1
 465 380 l 1
 46 380 l 1
 46 420 l 1
46 231 m 1
 465 231 l 1
 465 191 l 1
 46 191 l 1
 46 231 l 1
EndSplineSet
EndChar

StartChar: greater
Encoding: 33 62 33
Width: 512
VWidth: 1024
Flags: HW
LayerCount: 2
Fore
SplineSet
464 306 m 1
 48 -50 l 1
 48 4 l 1
 401 306 l 1
 48 610 l 1
 48 658 l 1
 464 306 l 1
EndSplineSet
EndChar

StartChar: question
Encoding: 34 63 34
Width: 512
VWidth: 1024
Flags: HW
LayerCount: 2
Fore
SplineSet
232 142 m 1
 232 196 l 2
 232 210 232.333333333 223.333333333 233 236 c 128
 233.666666667 248.666666667 234.666666667 259.833333333 236 269.5 c 128
 237.333333333 279.166666667 239.833333333 289.333333333 243.5 300 c 128
 247.166666667 310.666666667 251.833333333 321.333333333 257.5 332 c 128
 263.166666667 342.666666667 269.333333333 352 276 360 c 128
 282.666666667 368 291.5 378.5 302.5 391.5 c 128
 313.5 404.5 322 414.833333333 328 422.5 c 128
 334 430.166666667 340.333333333 439.166666667 347 449.5 c 128
 353.666666667 459.833333333 358.833333333 470.5 362.5 481.5 c 128
 366.166666667 492.5 368.166666667 504 368.5 516 c 128
 368.833333333 528 368.333333333 538.666666667 367 548 c 0
 366.333333333 556 363.5 565.333333333 358.5 576 c 128
 353.5 586.666666667 345.833333333 598 335.5 610 c 128
 325.166666667 622 313.333333333 630.666666667 300 636 c 128
 286.666666667 641.333333333 270.666666667 644.666666667 252 646 c 0
 233.333333333 646 216.666666667 643.833333333 202 639.5 c 128
 187.333333333 635.166666667 176 629.333333333 168 622 c 0
 158.666666667 615.333333333 150.666666667 608 144 600 c 128
 137.333333333 592 132 584 128 576 c 128
 124 568 122.333333333 560.666666667 123 554 c 0
 122.333333333 546 124 540 128 536 c 0
 130.666666667 532 135.166666667 528.166666667 141.5 524.5 c 128
 147.833333333 520.833333333 151.833333333 518.333333333 153.5 517 c 128
 155.166666667 515.666666667 157.666666667 512.333333333 161 507 c 128
 164.333333333 501.666666667 166 495 166 487 c 128
 166 479 163.666666667 471.333333333 159 464 c 0
 155 458 149 453.166666667 141 449.5 c 128
 133 445.833333333 125.333333333 444.333333333 118 445 c 0
 102.666666667 445 91.6666666667 449.166666667 85 457.5 c 128
 78.3333333333 465.833333333 73.6666666667 474 71 482 c 128
 68.3333333333 490 67.1666666667 500 67.5 512 c 128
 67.8333333333 524 69.3333333333 537.333333333 72 552 c 128
 74.6666666667 566.666666667 78.6666666667 578.666666667 84 588 c 0
 89.3333333333 598.666666667 96.1666666667 608.666666667 104.5 618 c 128
 112.833333333 627.333333333 121.333333333 635.333333333 130 642 c 128
 138.666666667 648.666666667 148.833333333 655 160.5 661 c 128
 172.166666667 667 186 672 202 676 c 128
 218 680 234.666666667 682 252 682 c 0
 270.666666667 682 288.666666667 680 306 676 c 128
 323.333333333 672 339.333333333 666.666666667 354 660 c 128
 368.666666667 653.333333333 381.833333333 644.666666667 393.5 634 c 128
 405.166666667 623.333333333 414.833333333 611.666666667 422.5 599 c 128
 430.166666667 586.333333333 436 573.666666667 440 561 c 0
 444 547 446 532.5 446 517.5 c 128
 446 502.5 444.666666667 488.666666667 442 476 c 0
 439.333333333 464.666666667 435.333333333 453.666666667 430 443 c 128
 424.666666667 432.333333333 416.833333333 421.166666667 406.5 409.5 c 128
 396.166666667 397.833333333 384.666666667 386.666666667 372 376 c 2
 340 349 l 2
 325.333333333 335.666666667 312.666666667 323 302 311 c 128
 291.333333333 299 284 288.666666667 280 280 c 128
 276 271.333333333 272 258.333333333 268 241 c 128
 264 223.666666667 262 204.666666667 262 184 c 2
 262 162 l 1
 262 141 l 1
 232 142 l 1
230 66 m 1
 251.333333333 66 267.166666667 63.1666666667 277.5 57.5 c 128
 287.833333333 51.8333333333 295.833333333 43.8333333333 301.5 33.5 c 128
 307.166666667 23.1666666667 310 12.3333333333 310 1 c 128
 310 -10.3333333333 307.166666667 -21 301.5 -31 c 128
 295.833333333 -41 288.166666667 -48.6666666667 278.5 -54 c 128
 268.833333333 -59.3333333333 258 -62 246 -62 c 128
 234 -62 223.166666667 -59.3333333333 213.5 -54 c 128
 203.833333333 -48.6666666667 196.166666667 -41 190.5 -31 c 128
 184.833333333 -21 182 -10.3333333333 182 1 c 128
 182 12.3333333333 184.666666667 23.3333333333 190 34 c 128
 195.333333333 44.6666666667 208.666666667 55.3333333333 230 66 c 1
EndSplineSet
EndChar

StartChar: at
Encoding: 35 64 35
Width: 512
VWidth: 1024
Flags: HW
LayerCount: 2
Fore
SplineSet
276 146 m 1
 269.333333333 138 263.5 131.333333333 258.5 126 c 128
 253.5 120.666666667 246.333333333 115.333333333 237 110 c 128
 227.666666667 104.666666667 217.666666667 101.333333333 207 100 c 0
 197.666666667 98.6666666667 188.166666667 100.166666667 178.5 104.5 c 128
 168.833333333 108.833333333 160.666666667 117.333333333 154 130 c 128
 147.333333333 142.666666667 143 155.666666667 141 169 c 128
 139 182.333333333 138 194.166666667 138 204.5 c 128
 138 214.833333333 138.666666667 227.333333333 140 242 c 0
 141.333333333 258 143.166666667 273.5 145.5 288.5 c 128
 147.833333333 303.5 150.833333333 319.166666667 154.5 335.5 c 128
 158.166666667 351.833333333 162.666666667 368 168 384 c 128
 173.333333333 400 179.833333333 416 187.5 432 c 128
 195.166666667 448 203 461.833333333 211 473.5 c 128
 219 485.166666667 229.5 495.166666667 242.5 503.5 c 128
 255.5 511.833333333 268 516 280 516 c 0
 288 516 295.333333333 514.666666667 302 512 c 0
 310 508 315.333333333 504 318 500 c 2
 328 488 l 1
 332 507 l 1
 381 508 l 1
 328 185 l 2
 325.333333333 167 324.666666667 155.666666667 326 151 c 0
 328.666666667 145.666666667 332.833333333 142.666666667 338.5 142 c 128
 344.166666667 141.333333333 350.666666667 144.666666667 358 152 c 0
 363.333333333 157.333333333 368.666666667 164.666666667 374 174 c 128
 379.333333333 183.333333333 386.666666667 198.166666667 396 218.5 c 128
 405.333333333 238.833333333 412 256.5 416 271.5 c 128
 420 286.5 423 303.833333333 425 323.5 c 128
 427 343.166666667 428 364.166666667 428 386.5 c 128
 428 408.833333333 426 433.666666667 422 461 c 0
 418 485.666666667 412 508.666666667 404 530 c 128
 396 551.333333333 386.833333333 570 376.5 586 c 128
 366.166666667 602 354.666666667 615.333333333 342 626 c 128
 329.333333333 636.666666667 315.833333333 644.666666667 301.5 650 c 128
 287.166666667 655.333333333 272 657.333333333 256 656 c 0
 242.666666667 655.333333333 227.166666667 651.666666667 209.5 645 c 128
 191.833333333 638.333333333 173 620.833333333 153 592.5 c 128
 133 564.166666667 117.5 533.166666667 106.5 499.5 c 128
 95.5 465.833333333 88.5 436 85.5 410 c 128
 82.5 384 80.8333333333 358.5 80.5 333.5 c 128
 80.1666666667 308.5 80.6666666667 285.333333333 82 264 c 0
 82.6666666667 238.666666667 83.8333333333 215.333333333 85.5 194 c 128
 87.1666666667 172.666666667 90 152.666666667 94 134 c 128
 98 115.333333333 103.333333333 97.3333333333 110 80 c 128
 116.666666667 62.6666666667 125 46.6666666667 135 32 c 128
 145 17.3333333333 156.666666667 4.5 170 -6.5 c 128
 183.333333333 -17.5 198.166666667 -25.8333333333 214.5 -31.5 c 128
 230.833333333 -37.1666666667 246.666666667 -40 262 -40 c 0
 280.666666667 -40 297.333333333 -36.5 312 -29.5 c 128
 326.666666667 -22.5 340.666666667 -13.1666666667 354 -1.5 c 128
 367.333333333 10.1666666667 378.666666667 23.8333333333 388 39.5 c 128
 397.333333333 55.1666666667 405.333333333 69 412 81 c 128
 418.666666667 93 424.333333333 105.666666667 429 119 c 0
 435 132.333333333 440.166666667 146.833333333 444.5 162.5 c 128
 448.833333333 178.166666667 451.666666667 189 453 195 c 2
 463 238 l 1
 485 238 l 1
 480.333333333 213.333333333 476 193.5 472 178.5 c 128
 468 163.5 463.666666667 148.666666667 459 134 c 128
 454.333333333 119.333333333 448.666666667 104 442 88 c 128
 435.333333333 72 428 56.6666666667 420 42 c 0
 412 26 402.333333333 11.3333333333 391 -2 c 128
 379.666666667 -15.3333333333 369.333333333 -26 360 -34 c 128
 350.666666667 -42 340.5 -49.3333333333 329.5 -56 c 128
 318.5 -62.6666666667 306.333333333 -68 293 -72 c 0
 280.333333333 -74.6666666667 268.666666667 -76 258 -76 c 0
 244.666666667 -76 231.333333333 -74.6666666667 218 -72 c 128
 204.666666667 -69.3333333333 191.5 -64.8333333333 178.5 -58.5 c 128
 165.5 -52.1666666667 151.833333333 -43.1666666667 137.5 -31.5 c 128
 123.166666667 -19.8333333333 109.5 -5.83333333333 96.5 10.5 c 128
 83.5 26.8333333333 72.5 46.5 63.5 69.5 c 128
 54.5 92.5 48 113.833333333 44 133.5 c 128
 40 153.166666667 37.3333333333 170.166666667 36 184.5 c 128
 34.6666666667 198.833333333 33 217.5 31 240.5 c 128
 29 263.5 28 282.5 28 297.5 c 128
 28 312.5 28.6666666667 328.666666667 30 346 c 0
 31.3333333333 372.666666667 34 400 38 428 c 128
 42 456 49.3333333333 484.5 60 513.5 c 128
 70.6666666667 542.5 82.6666666667 566.833333333 96 586.5 c 128
 109.333333333 606.166666667 124 623.833333333 140 639.5 c 128
 156 655.166666667 173.333333333 667.5 192 676.5 c 128
 210.666666667 685.5 231.333333333 690 254 690 c 0
 280.666666667 690 304.833333333 684.5 326.5 673.5 c 128
 348.166666667 662.5 365.166666667 649.666666667 377.5 635 c 128
 389.833333333 620.333333333 400 605.833333333 408 591.5 c 128
 416 577.166666667 423.166666667 561.166666667 429.5 543.5 c 128
 435.833333333 525.833333333 440.833333333 509.166666667 444.5 493.5 c 128
 448.166666667 477.833333333 451 460.666666667 453 442 c 128
 455 423.333333333 456 405 456 387 c 0
 456 375 455.333333333 361.166666667 454 345.5 c 128
 452.666666667 329.833333333 450.833333333 314.166666667 448.5 298.5 c 128
 446.166666667 282.833333333 443 268 439 254 c 128
 435 240 429.5 225.166666667 422.5 209.5 c 128
 415.5 193.833333333 408.5 180 401.5 168 c 128
 394.5 156 387.166666667 145.666666667 379.5 137 c 128
 371.833333333 128.333333333 363.833333333 120.333333333 355.5 113 c 128
 347.166666667 105.666666667 339 100.666666667 331 98 c 128
 323 95.3333333333 314.666666667 95.3333333333 306 98 c 0
 299.333333333 100 293.833333333 103.5 289.5 108.5 c 128
 285.166666667 113.5 282.333333333 119.333333333 281 126 c 2
 276 146 l 1
294 270 m 2
 310 383 l 2
 314 408.333333333 316.333333333 426.833333333 317 438.5 c 128
 317.666666667 450.166666667 314.166666667 460.333333333 306.5 469 c 128
 298.833333333 477.666666667 290.166666667 482 280.5 482 c 128
 270.833333333 482 260.666666667 475.666666667 250 463 c 0
 243.333333333 455.666666667 237.333333333 445.333333333 232 432 c 128
 226.666666667 418.666666667 221.5 402.666666667 216.5 384 c 128
 211.5 365.333333333 207.666666667 348 205 332 c 128
 202.333333333 316 199.333333333 295.666666667 196 271 c 128
 192.666666667 246.333333333 191 230 191 222 c 128
 191 210 191 210 191 196 c 0
 191 181.333333333 191.5 170.5 192.5 163.5 c 128
 193.5 156.5 196.333333333 150.166666667 201 144.5 c 128
 205.666666667 138.833333333 212 136 220 136 c 0
 225.333333333 136 231.333333333 138.333333333 238 143 c 128
 244.666666667 147.666666667 250.666666667 153.333333333 256 160 c 128
 261.333333333 166.666666667 265.833333333 174.166666667 269.5 182.5 c 128
 273.166666667 190.833333333 276.833333333 200.666666667 280.5 212 c 128
 284.166666667 223.333333333 286.833333333 233 288.5 241 c 128
 290.166666667 249 292 258.666666667 294 270 c 2
EndSplineSet
EndChar

StartChar: A
Encoding: 36 65 36
Width: 512
VWidth: 1024
Flags: HW
LayerCount: 2
Fore
SplineSet
266 676 m 1
 429 30 l 2
 432.333333333 19.3333333333 435.5 11.3333333333 438.5 6 c 128
 441.5 0.666666666667 444.666666667 -3.5 448 -6.5 c 128
 451.333333333 -9.5 455.833333333 -11.8333333333 461.5 -13.5 c 128
 467.166666667 -15.1666666667 473.333333333 -16 480 -16 c 2
 488 -16 l 1
 488 -45 l 1
 326 -45 l 1
 326 -16 l 1
 346 -16 l 2
 359.333333333 -16 367.5 -14.6666666667 370.5 -12 c 128
 373.5 -9.33333333333 375 -5.66666666667 375 -1 c 128
 375 3.66666666667 373 14 369 30 c 2
 321 225 l 1
 158 225 l 1
 112 30 l 2
 109.333333333 19.3333333333 108 10.6666666667 108 4 c 128
 108 -2.66666666667 110 -7.33333333333 114 -10 c 128
 118 -12.6666666667 122 -14.6666666667 126 -16 c 0
 134 -16 134 -16 148 -16 c 2
 167 -16 l 1
 167 -45 l 1
 18 -45 l 1
 18 -16 l 1
 32 -16 l 2
 42.6666666667 -16 50 -15.3333333333 54 -14 c 128
 58 -12.6666666667 61.3333333333 -10.1666666667 64 -6.5 c 128
 66.6666666667 -2.83333333333 69.6666666667 2 73 8 c 0
 75 13.3333333333 77.3333333333 20.3333333333 80 29 c 2
 234 662 l 1
 266 676 l 1
242 562 m 1
 166 254 l 1
 314 254 l 1
 242 562 l 1
EndSplineSet
EndChar

StartChar: B
Encoding: 37 66 37
Width: 512
VWidth: 1024
Flags: HW
LayerCount: 2
Fore
SplineSet
293 323 m 1
 303 321.666666667 311.5 320.5 318.5 319.5 c 128
 325.5 318.5 335.5 316.333333333 348.5 313 c 128
 361.5 309.666666667 374 305.333333333 386 300 c 128
 398 294.666666667 409.833333333 287 421.5 277 c 128
 433.166666667 267 443.166666667 255.333333333 451.5 242 c 128
 459.833333333 228.666666667 466.666666667 214.666666667 472 200 c 128
 477.333333333 185.333333333 480.166666667 167.5 480.5 146.5 c 128
 480.833333333 125.5 478.333333333 105.333333333 473 86 c 0
 463.666666667 54 450.666666667 30.6666666667 434 16 c 128
 417.333333333 1.33333333333 399.666666667 -10 381 -18 c 128
 362.333333333 -26 347.833333333 -31.1666666667 337.5 -33.5 c 128
 327.166666667 -35.8333333333 317 -37.6666666667 307 -39 c 0
 298.333333333 -40.3333333333 286.666666667 -41.6666666667 272 -43 c 128
 257.333333333 -44.3333333333 244.666666667 -45 234 -45 c 2
 28 -45 l 1
 28 -16 l 1
 48 -16 l 2
 62.6666666667 -16 73.3333333333 -13.6666666667 80 -9 c 128
 86.6666666667 -4.33333333333 89.6666666667 8 89 28 c 2
 89 591 l 2
 89.6666666667 604.333333333 86.6666666667 614.5 80 621.5 c 128
 73.3333333333 628.5 63.3333333333 632 50 632 c 2
 30 632 l 1
 30 660 l 1
 246 660 l 2
 252.666666667 660 262.666666667 659.333333333 276 658 c 128
 289.333333333 656.666666667 303.333333333 654.166666667 318 650.5 c 128
 332.666666667 646.833333333 348.166666667 640.833333333 364.5 632.5 c 128
 380.833333333 624.166666667 395.666666667 612.666666667 409 598 c 128
 422.333333333 583.333333333 431.5 570.166666667 436.5 558.5 c 128
 441.5 546.833333333 444.666666667 536 446 526 c 0
 448.666666667 516.666666667 450 505.333333333 450 492 c 0
 450 480.666666667 448.666666667 469 446 457 c 0
 444.666666667 445 440.666666667 432.5 434 419.5 c 128
 427.333333333 406.5 417.333333333 394 404 382 c 128
 390.666666667 370 374.666666667 358.666666667 356 348 c 128
 337.333333333 337.333333333 322 330.666666667 310 328 c 2
 293 323 l 1
144 309 m 1
 144 37 l 2
 144 24.3333333333 145.666666667 14.5 149 7.5 c 128
 152.333333333 0.5 159.333333333 -5.33333333333 170 -10 c 128
 180.666666667 -14.6666666667 193.5 -17 208.5 -17 c 128
 231 -17 231 -17 237 -17 c 0
 256.333333333 -17 274 -15.6666666667 290 -13 c 0
 304.666666667 -10.3333333333 318.5 -6.33333333333 331.5 -1 c 128
 344.5 4.33333333333 357.166666667 12.1666666667 369.5 22.5 c 128
 381.833333333 32.8333333333 392 44.6666666667 400 58 c 128
 408 71.3333333333 413.666666667 85.3333333333 417 100 c 0
 421 113.333333333 423.166666667 127.333333333 423.5 142 c 128
 423.833333333 156.666666667 422 172.666666667 418 190 c 0
 415.333333333 199.333333333 412.5 208.333333333 409.5 217 c 128
 406.5 225.666666667 401.666666667 235 395 245 c 128
 388.333333333 255 379.666666667 264.5 369 273.5 c 128
 358.333333333 282.5 347.5 289.166666667 336.5 293.5 c 128
 325.5 297.833333333 313.333333333 300.833333333 300 302.5 c 128
 286.666666667 304.166666667 274.333333333 305.666666667 263 307 c 128
 251.666666667 308.333333333 239.666666667 309 227 309 c 2
 144 309 l 1
144 338 m 1
 227 338 l 2
 231.666666667 338 238.666666667 338.666666667 248 340 c 128
 257.333333333 341.333333333 267.333333333 343.333333333 278 346 c 128
 288.666666667 348.666666667 301.166666667 353.833333333 315.5 361.5 c 128
 329.833333333 369.166666667 341.166666667 377 349.5 385 c 128
 357.833333333 393 365.166666667 402.166666667 371.5 412.5 c 128
 377.833333333 422.833333333 382.833333333 434.666666667 386.5 448 c 128
 390.166666667 461.333333333 391.833333333 476.666666667 391.5 494 c 128
 391.166666667 511.333333333 388.166666667 527.333333333 382.5 542 c 128
 376.833333333 556.666666667 370 568.666666667 362 578 c 128
 354 587.333333333 343 596.333333333 329 605 c 128
 315 613.666666667 300.833333333 620 286.5 624 c 128
 272.166666667 628 257.666666667 630.333333333 243 631 c 128
 228.333333333 631.666666667 215 632 203 632 c 128
 191 632 181 630.666666667 173 628 c 0
 165.666666667 626.666666667 160 624 156 620 c 128
 152 616 149 611.333333333 147 606 c 128
 145 600.666666667 144 594 144 586 c 2
 144 338 l 1
EndSplineSet
EndChar

StartChar: C
Encoding: 38 67 38
Width: 512
VWidth: 1024
Flags: HW
LayerCount: 2
Fore
SplineSet
458 160 m 1
 478 152 l 1
 472.666666667 134.666666667 467.333333333 119.666666667 462 107 c 128
 456.666666667 94.3333333333 450.5 81.3333333333 443.5 68 c 128
 436.5 54.6666666667 429.333333333 42 422 30 c 0
 415.333333333 19.3333333333 408.333333333 10 401 2 c 128
 393.666666667 -6 385 -14 375 -22 c 128
 365 -30 355.333333333 -36.6666666667 346 -42 c 128
 336.666666667 -47.3333333333 328.166666667 -51.3333333333 320.5 -54 c 128
 312.833333333 -56.6666666667 304.5 -58.8333333333 295.5 -60.5 c 128
 286.5 -62.1666666667 278.666666667 -63 272 -63 c 0
 264 -63 254.333333333 -62 243 -60 c 128
 231.666666667 -58 220.833333333 -55.3333333333 210.5 -52 c 128
 200.166666667 -48.6666666667 189.166666667 -43.5 177.5 -36.5 c 128
 165.833333333 -29.5 153.333333333 -20 140 -8 c 128
 126.666666667 4 116 15.3333333333 108 26 c 128
 100 36.6666666667 92 49.1666666667 84 63.5 c 128
 76 77.8333333333 68.3333333333 94.8333333333 61 114.5 c 128
 53.6666666667 134.166666667 48 155.166666667 44 177.5 c 128
 40 199.833333333 37.5 219.5 36.5 236.5 c 128
 35.5 253.5 35 276.666666667 35 306 c 0
 35 326 35.3333333333 341.333333333 36 352 c 128
 36.6666666667 362.666666667 37.6666666667 373.833333333 39 385.5 c 128
 40.3333333333 397.166666667 42.3333333333 410.166666667 45 424.5 c 128
 47.6666666667 438.833333333 51.6666666667 455.333333333 57 474 c 128
 62.3333333333 492.666666667 69.1666666667 511.333333333 77.5 530 c 128
 85.8333333333 548.666666667 96 566.333333333 108 583 c 128
 120 599.666666667 134.5 615.333333333 151.5 630 c 128
 168.5 644.666666667 184.833333333 655.333333333 200.5 662 c 128
 216.166666667 668.666666667 230.666666667 672.666666667 244 674 c 128
 257.333333333 675.333333333 267.333333333 676 274 676 c 0
 282 676 291.666666667 675 303 673 c 128
 314.333333333 671 323 669 329 667 c 128
 335 665 342 662.5 350 659.5 c 128
 358 656.5 363.666666667 654.333333333 367 653 c 128
 370.333333333 651.666666667 374 651 378 651 c 0
 383.333333333 651 388.166666667 651.666666667 392.5 653 c 128
 396.833333333 654.333333333 404.666666667 658.666666667 416 666 c 2
 430 675 l 1
 470 503 l 1
 450 498 l 1
 434 529 l 1
 417 560 l 2
 411 570.666666667 403.333333333 582 394 594 c 0
 384.666666667 604.666666667 374.833333333 613.333333333 364.5 620 c 128
 354.166666667 626.666666667 339.833333333 633 321.5 639 c 128
 303.166666667 645 287.666666667 648 275 648 c 0
 259.666666667 648 243.333333333 644 226 636 c 128
 208.666666667 628 193.5 616.666666667 180.5 602 c 128
 167.5 587.333333333 155.166666667 569 143.5 547 c 128
 131.833333333 525 123 504.666666667 117 486 c 0
 109.666666667 467.333333333 104.666666667 448 102 428 c 128
 99.3333333333 408 97.6666666667 390.333333333 97 375 c 128
 96.3333333333 359.666666667 95.8333333333 338.666666667 95.5 312 c 128
 95.1666666667 285.333333333 95.3333333333 264 96 248 c 0
 97.3333333333 228 99.5 207.333333333 102.5 186 c 128
 105.5 164.666666667 110.333333333 144 117 124 c 0
 123 105.333333333 131.666666667 87.3333333333 143 70 c 128
 154.333333333 52.6666666667 167.333333333 37.3333333333 182 24 c 128
 196.666666667 10.6666666667 209.333333333 1.33333333333 220 -4 c 128
 230.666666667 -9.33333333333 240.833333333 -13 250.5 -15 c 128
 260.166666667 -17 268.666666667 -18 276 -18 c 0
 286 -18 298.5 -15.6666666667 313.5 -11 c 128
 328.5 -6.33333333333 342 0 354 8 c 128
 366 16 376.666666667 25.5 386 36.5 c 128
 395.333333333 47.5 404.666666667 59.5 414 72.5 c 128
 423.333333333 85.5 434 104.666666667 446 130 c 2
 458 160 l 1
EndSplineSet
EndChar

StartChar: D
Encoding: 39 68 39
Width: 512
VWidth: 1024
Flags: HW
LayerCount: 2
Fore
SplineSet
32 660 m 1
 216 660 l 2
 226 660 238.166666667 659 252.5 657 c 128
 266.833333333 655 280.333333333 652.333333333 293 649 c 128
 305.666666667 645.666666667 319 640.5 333 633.5 c 128
 347 626.5 360 617.666666667 372 607 c 128
 384 596.333333333 396 584 408 570 c 0
 418.666666667 555.333333333 428 541.333333333 436 528 c 128
 444 514.666666667 450.666666667 499.333333333 456 482 c 128
 461.333333333 464.666666667 466 444.666666667 470 422 c 128
 474 399.333333333 476.166666667 370.666666667 476.5 336 c 128
 476.833333333 301.333333333 476.333333333 270.666666667 475 244 c 0
 472.333333333 210.666666667 468.5 184 463.5 164 c 128
 458.5 144 451.666666667 124.5 443 105.5 c 128
 434.333333333 86.5 424.666666667 69.1666666667 414 53.5 c 128
 403.333333333 37.8333333333 392.166666667 24.6666666667 380.5 14 c 128
 368.833333333 3.33333333333 356.333333333 -6 343 -14 c 128
 329.666666667 -22 317 -27.3333333333 305 -30 c 0
 293 -34 282.666666667 -36.6666666667 274 -38 c 128
 265.333333333 -39.3333333333 256.5 -40.6666666667 247.5 -42 c 128
 238.5 -43.3333333333 228 -44 216 -44 c 2
 32 -44 l 1
 32 -16 l 1
 49 -16 l 2
 60.3333333333 -16 69.3333333333 -12.6666666667 76 -6 c 0
 82.6666666667 -0.666666666667 85.6666666667 9.33333333333 85 24 c 2
 85 594 l 2
 85 596.666666667 84.3333333333 600.666666667 83 606 c 128
 81.6666666667 611.333333333 79.1666666667 616 75.5 620 c 128
 71.8333333333 624 66.5 627 59.5 629 c 128
 52.5 631 44.3333333333 632 35 632 c 2
 32 632 l 1
 32 660 l 1
218 632 m 2
 189 632 l 2
 178.333333333 632 170.333333333 630.833333333 165 628.5 c 128
 159.666666667 626.166666667 155 623.833333333 151 621.5 c 128
 147 619.166666667 144.166666667 615.5 142.5 610.5 c 128
 140.833333333 605.5 140 600 140 594 c 2
 140 24 l 2
 140 10.6666666667 141.833333333 2 145.5 -2 c 128
 149.166666667 -6 154.666666667 -9.33333333333 162 -12 c 128
 169.333333333 -14.6666666667 178.333333333 -16 189 -16 c 2
 218 -16 l 2
 230 -16 242.666666667 -14.8333333333 256 -12.5 c 128
 269.333333333 -10.1666666667 282.5 -5.66666666667 295.5 1 c 128
 308.5 7.66666666667 321 16.5 333 27.5 c 128
 345 38.5 357 52.5 369 69.5 c 128
 381 86.5 389.833333333 104.166666667 395.5 122.5 c 128
 401.166666667 140.833333333 405.666666667 158.666666667 409 176 c 128
 412.333333333 193.333333333 414.666666667 213.333333333 416 236 c 128
 417.333333333 258.666666667 418 287.833333333 418 323.5 c 128
 418 359.166666667 417 386.833333333 415 406.5 c 128
 413 426.166666667 410 445.333333333 406 464 c 128
 402 482.666666667 395.333333333 501.5 386 520.5 c 128
 376.666666667 539.5 365.333333333 556.5 352 571.5 c 128
 338.666666667 586.5 325.833333333 597.833333333 313.5 605.5 c 128
 301.166666667 613.166666667 289.5 618.833333333 278.5 622.5 c 128
 267.5 626.166666667 256.666666667 628.666666667 246 630 c 0
 236.666666667 631.333333333 227.333333333 632 218 632 c 2
EndSplineSet
EndChar

StartChar: E
Encoding: 40 69 40
Width: 512
VWidth: 1024
Flags: HW
LayerCount: 2
Fore
SplineSet
481 136 m 1
 452 -45 l 1
 36 -45 l 1
 36 -16 l 1
 48 -16 l 2
 54.6666666667 -16 62 -13.3333333333 70 -8 c 0
 79.3333333333 -3.33333333333 86 1.5 90 6.5 c 128
 94 11.5 95.6666666667 19 95 29 c 2
 95 591 l 2
 95.6666666667 595.666666667 94.6666666667 601.333333333 92 608 c 128
 89.3333333333 614.666666667 86 620.333333333 82 625 c 128
 78 629.666666667 68.6666666667 632 54 632 c 2
 36 632 l 1
 36 658 l 1
 452 658 l 1
 470 479 l 1
 450 479 l 1
 436 506 l 1
 421 534 l 2
 415.666666667 543.333333333 408.666666667 554 400 566 c 128
 391.333333333 578 382.666666667 587.833333333 374 595.5 c 128
 365.333333333 603.166666667 355.833333333 609.333333333 345.5 614 c 128
 335.166666667 618.666666667 324.666666667 622.5 314 625.5 c 128
 303.333333333 628.5 293 630 283 630 c 2
 202 630 l 2
 188.666666667 630 179.166666667 628.666666667 173.5 626 c 128
 167.833333333 623.333333333 162.666666667 619.333333333 158 614 c 128
 153.333333333 608.666666667 151 601 151 591 c 2
 151 334 l 1
 262 334 l 2
 269.333333333 334 275.666666667 335.333333333 281 338 c 128
 286.333333333 340.666666667 291.666666667 345.5 297 352.5 c 128
 302.333333333 359.5 306 367 308 375 c 128
 310 383 311.666666667 391.333333333 313 400 c 128
 314.333333333 408.666666667 315 417 315 425 c 2
 315 443 l 1
 344 443 l 1
 344 188 l 1
 315 188 l 1
 315 202 l 2
 314.333333333 216.666666667 313.333333333 230.5 312 243.5 c 128
 310.666666667 256.5 308.666666667 266.166666667 306 272.5 c 128
 303.333333333 278.833333333 300.166666667 284.333333333 296.5 289 c 128
 292.833333333 293.666666667 287.833333333 297.666666667 281.5 301 c 128
 275.166666667 304.333333333 268.666666667 306 262 306 c 2
 151 306 l 1
 151 24 l 2
 151 12 155.5 2.33333333333 164.5 -5 c 128
 173.5 -12.3333333333 186 -16 202 -16 c 2
 283 -16 l 2
 297 -16 311 -14.6666666667 325 -12 c 128
 339 -9.33333333333 353.333333333 -2.83333333333 368 7.5 c 128
 382.666666667 17.8333333333 395.333333333 29.3333333333 406 42 c 0
 415.333333333 54 423.333333333 65.6666666667 430 77 c 2
 452 118 l 1
 460 136 l 1
 481 136 l 1
EndSplineSet
EndChar

StartChar: F
Encoding: 41 70 41
Width: 512
VWidth: 1024
Flags: HW
LayerCount: 2
Fore
SplineSet
452 484 m 1
 437 513 l 2
 431 524.333333333 424.666666667 535.5 418 546.5 c 128
 411.333333333 557.5 403.666666667 568 395 578 c 0
 387.666666667 588 378.833333333 596.5 368.5 603.5 c 128
 358.166666667 610.5 348 615.5 338 618.5 c 128
 328 621.5 320.333333333 623.5 315 624.5 c 128
 309.666666667 625.5 299.833333333 627 285.5 629 c 128
 271.166666667 631 260.666666667 632 254 632 c 2
 196 632 l 2
 186.666666667 632 178.833333333 630 172.5 626 c 128
 166.166666667 622 161.833333333 618 159.5 614 c 128
 157.166666667 610 156 604 156 596 c 2
 156 332 l 1
 245 332 l 2
 251.666666667 332 258.5 333.666666667 265.5 337 c 128
 272.5 340.333333333 278.5 345.833333333 283.5 353.5 c 128
 288.5 361.166666667 292.166666667 371.333333333 294.5 384 c 128
 296.833333333 396.666666667 298 410 298 424 c 2
 298 444 l 1
 328 444 l 1
 328 188 l 1
 298 188 l 1
 298 207 l 2
 298 222.333333333 297 235.166666667 295 245.5 c 128
 293 255.833333333 290.833333333 264.166666667 288.5 270.5 c 128
 286.166666667 276.833333333 283.166666667 282.666666667 279.5 288 c 128
 275.833333333 293.333333333 271.333333333 297.333333333 266 300 c 128
 260.666666667 302.666666667 253.666666667 304 245 304 c 2
 156 304 l 1
 156 24 l 2
 156 12.6666666667 158.666666667 4.5 164 -0.5 c 128
 169.333333333 -5.5 177.166666667 -9.33333333333 187.5 -12 c 128
 197.833333333 -14.6666666667 208 -16 218 -16 c 2
 234 -16 l 1
 234 -44 l 1
 43 -44 l 1
 43 -16 l 1
 56 -16 l 2
 65.3333333333 -16 73.3333333333 -15 80 -13 c 128
 86.6666666667 -11 92 -6.66666666667 96 0 c 128
 100 6.66666666667 102 15.3333333333 102 26 c 2
 102 594 l 2
 102 606 98.6666666667 615.333333333 92 622 c 128
 85.3333333333 628.666666667 74.3333333333 632 59 632 c 2
 43 632 l 1
 43 660 l 1
 448 660 l 1
 468 484 l 1
 452 484 l 1
EndSplineSet
EndChar

StartChar: G
Encoding: 42 71 42
Width: 512
VWidth: 1024
Flags: HW
LayerCount: 2
Fore
SplineSet
318 255 m 1
 478 255 l 1
 478 226 l 1
 461 226 l 2
 453 226 446.166666667 222.666666667 440.5 216 c 128
 434.833333333 209.333333333 432 200 432 188 c 2
 430 -20 l 1
 418 -20 418 -20 409 -20 c 128
 403 -20 396.333333333 -21 389 -23 c 128
 381.666666667 -25 376 -26.6666666667 372 -28 c 128
 368 -29.3333333333 362.333333333 -31.6666666667 355 -35 c 128
 347.666666667 -38.3333333333 338.333333333 -42.3333333333 327 -47 c 128
 315.666666667 -51.6666666667 306.666666667 -55 300 -57 c 128
 293.333333333 -59 283.333333333 -60 270 -60 c 0
 251.333333333 -61.3333333333 234.666666667 -60.8333333333 220 -58.5 c 128
 205.333333333 -56.1666666667 189.333333333 -50.5 172 -41.5 c 128
 154.666666667 -32.5 138.333333333 -20.6666666667 123 -6 c 128
 107.666666667 8.66666666667 93.8333333333 28.3333333333 81.5 53 c 128
 69.1666666667 77.6666666667 59.5 102.666666667 52.5 128 c 128
 45.5 153.333333333 40.5 179.333333333 37.5 206 c 128
 34.5 232.666666667 32.8333333333 260.333333333 32.5 289 c 128
 32.1666666667 317.666666667 32.6666666667 344 34 368 c 0
 35.3333333333 389.333333333 38 410 42 430 c 128
 46 450 51.3333333333 471 58 493 c 128
 64.6666666667 515 73.1666666667 536.833333333 83.5 558.5 c 128
 93.8333333333 580.166666667 105.5 597.833333333 118.5 611.5 c 128
 131.5 625.166666667 145.333333333 637.166666667 160 647.5 c 128
 174.666666667 657.833333333 187.333333333 664.5 198 667.5 c 128
 208.666666667 670.5 219.833333333 673 231.5 675 c 128
 243.166666667 677 255.166666667 677.666666667 267.5 677 c 128
 279.833333333 676.333333333 291 675 301 673 c 128
 311 671 322.166666667 667.5 334.5 662.5 c 128
 346.833333333 657.5 355.166666667 654.5 359.5 653.5 c 128
 363.833333333 652.5 367.833333333 652 371.5 652 c 128
 375.166666667 652 379.5 653.333333333 384.5 656 c 128
 389.5 658.666666667 394.333333333 661.333333333 399 664 c 128
 403.666666667 666.666666667 407.333333333 668.666666667 410 670 c 2
 415 675 l 1
 452 504 l 1
 430 498 l 1
 427.333333333 503.333333333 424.5 509.166666667 421.5 515.5 c 128
 418.5 521.833333333 413.666666667 530.833333333 407 542.5 c 128
 400.333333333 554.166666667 394.5 564.333333333 389.5 573 c 128
 384.5 581.666666667 379.5 589 374.5 595 c 128
 369.5 601 364.833333333 606.333333333 360.5 611 c 128
 356.166666667 615.666666667 350.5 620.5 343.5 625.5 c 128
 336.5 630.5 327.166666667 635.5 315.5 640.5 c 128
 303.833333333 645.5 290 648 274 648 c 0
 261.333333333 648 250 646.833333333 240 644.5 c 128
 230 642.166666667 219.833333333 638.166666667 209.5 632.5 c 128
 199.166666667 626.833333333 188.666666667 619.333333333 178 610 c 128
 167.333333333 600.666666667 157 588.333333333 147 573 c 128
 137 557.666666667 128.833333333 542.333333333 122.5 527 c 128
 116.166666667 511.666666667 111.166666667 496.333333333 107.5 481 c 128
 103.833333333 465.666666667 101 448.166666667 99 428.5 c 128
 97 408.833333333 95.3333333333 385.666666667 94 359 c 128
 92.6666666667 332.333333333 92.6666666667 307.666666667 94 285 c 0
 94 258.333333333 95.3333333333 230.833333333 98 202.5 c 128
 100.666666667 174.166666667 105 150.333333333 111 131 c 128
 117 111.666666667 123.666666667 93.3333333333 131 76 c 128
 138.333333333 58.6666666667 145.833333333 44.3333333333 153.5 33 c 128
 161.166666667 21.6666666667 170.166666667 11.3333333333 180.5 2 c 128
 190.833333333 -7.33333333333 203.333333333 -15.3333333333 218 -22 c 128
 232.666666667 -28.6666666667 252.666666667 -31.3333333333 278 -30 c 0
 294 -28.6666666667 308 -25.3333333333 320 -20 c 128
 332 -14.6666666667 341.666666667 -8.33333333333 349 -1 c 128
 356.333333333 6.33333333333 363 16.3333333333 369 29 c 128
 375 41.6666666667 378 58 378 78 c 2
 378 188 l 2
 378 199.333333333 373.666666667 208.5 365 215.5 c 128
 356.333333333 222.5 344.666666667 226 330 226 c 2
 318 226 l 1
 318 255 l 1
EndSplineSet
EndChar

StartChar: H
Encoding: 43 72 43
Width: 512
VWidth: 1024
Flags: HW
LayerCount: 2
Fore
SplineSet
488 632 m 1
 472 632 l 2
 456 632 444.666666667 628.333333333 438 621 c 128
 431.333333333 613.666666667 428 604.666666667 428 594 c 2
 428 30 l 2
 428 12.6666666667 431.333333333 0.333333333333 438 -7 c 128
 444.666666667 -14.3333333333 456 -18 472 -18 c 2
 488 -18 l 1
 488 -46 l 1
 314 -46 l 1
 314 -18 l 1
 326 -18 l 2
 332 -18 339.333333333 -16.8333333333 348 -14.5 c 128
 356.666666667 -12.1666666667 363.166666667 -7.16666666667 367.5 0.5 c 128
 371.833333333 8.16666666667 374 18 374 30 c 2
 374 304 l 1
 136 304 l 1
 136 30 l 2
 136 19.3333333333 136.666666667 11.1666666667 138 5.5 c 128
 139.333333333 -0.166666666667 142 -4.83333333333 146 -8.5 c 128
 150 -12.1666666667 155.333333333 -14.6666666667 162 -16 c 128
 168.666666667 -17.3333333333 177.333333333 -18 188 -18 c 2
 198 -18 l 1
 198 -46 l 1
 22 -46 l 1
 22 -18 l 1
 30 -18 l 2
 41.3333333333 -19.3333333333 51.1666666667 -17.5 59.5 -12.5 c 128
 67.8333333333 -7.5 73.6666666667 -2.16666666667 77 3.5 c 128
 80.3333333333 9.16666666667 82 18 82 30 c 2
 82 594 l 2
 82 604 78 612.833333333 70 620.5 c 128
 62 628.166666667 52 632 40 632 c 2
 22 632 l 1
 22 660 l 1
 202 660 l 1
 202 632 l 1
 186 632 l 2
 167.333333333 632 154.333333333 629 147 623 c 0
 139.666666667 615.666666667 136 606 136 594 c 2
 136 333 l 1
 374 333 l 1
 374 594 l 2
 374 604.666666667 370.666666667 613.666666667 364 621 c 128
 357.333333333 628.333333333 346.666666667 632 332 632 c 2
 314 632 l 1
 314 660 l 1
 488 660 l 1
 488 632 l 1
EndSplineSet
EndChar

StartChar: I
Encoding: 44 73 44
Width: 512
VWidth: 1024
Flags: HW
LayerCount: 2
Fore
SplineSet
352 632 m 1
 327 632 l 2
 311 632 299.833333333 629.166666667 293.5 623.5 c 128
 287.166666667 617.833333333 284 608.333333333 284 595 c 2
 284 30 l 2
 284 11.3333333333 288 -1.33333333333 296 -8 c 128
 304 -14.6666666667 316.666666667 -18 334 -18 c 2
 352 -18 l 1
 352 -46 l 1
 158 -46 l 1
 158 -18 l 1
 178 -18 l 2
 196.666666667 -18 210 -14.3333333333 218 -7 c 0
 226 1.66666666667 230 14.6666666667 230 32 c 2
 230 595 l 2
 230 606.333333333 226.666666667 615.333333333 220 622 c 128
 213.333333333 628.666666667 202.666666667 632 188 632 c 2
 158 632 l 1
 158 660 l 1
 352 660 l 1
 352 632 l 1
EndSplineSet
EndChar

StartChar: J
Encoding: 45 74 45
Width: 512
VWidth: 1024
Flags: HW
LayerCount: 2
Fore
SplineSet
411 632 m 1
 404 632 l 2
 393.333333333 632 383.333333333 631.333333333 374 630 c 128
 364.666666667 628.666666667 357.5 626.333333333 352.5 623 c 128
 347.5 619.666666667 344 615.333333333 342 610 c 128
 340 604.666666667 339 598.666666667 339 592 c 2
 339 226 l 2
 339 215.333333333 338.5 198.666666667 337.5 176 c 128
 336.5 153.333333333 335.333333333 135.833333333 334 123.5 c 128
 332.666666667 111.166666667 330.666666667 97.6666666667 328 83 c 128
 325.333333333 68.3333333333 321.833333333 54.8333333333 317.5 42.5 c 128
 313.166666667 30.1666666667 307.833333333 18.6666666667 301.5 8 c 128
 295.166666667 -2.66666666667 288.666666667 -11.5 282 -18.5 c 128
 275.333333333 -25.5 268.166666667 -31.8333333333 260.5 -37.5 c 128
 252.833333333 -43.1666666667 243.666666667 -48 233 -52 c 128
 222.333333333 -56 211.833333333 -58.6666666667 201.5 -60 c 128
 191.166666667 -61.3333333333 182 -61.3333333333 174 -60 c 0
 166 -60 158.833333333 -59 152.5 -57 c 128
 146.166666667 -55 140.5 -52.6666666667 135.5 -50 c 128
 130.5 -47.3333333333 125 -42.6666666667 119 -36 c 0
 113 -30.6666666667 108.666666667 -24.6666666667 106 -18 c 128
 103.333333333 -11.3333333333 102 -4 102 4 c 128
 102 12 103.5 18.8333333333 106.5 24.5 c 128
 109.5 30.1666666667 114.166666667 34.5 120.5 37.5 c 128
 126.833333333 40.5 133.333333333 42 140 42 c 128
 146.666666667 42 152.666666667 40 158 36 c 128
 163.333333333 32 168 24.6666666667 172 14 c 2
 174 6 l 2
 175.333333333 2 177.333333333 -2.66666666667 180 -8 c 128
 182.666666667 -13.3333333333 186 -17.6666666667 190 -21 c 128
 194 -24.3333333333 202 -25.6666666667 214 -25 c 0
 224 -25 231 -23.8333333333 235 -21.5 c 128
 239 -19.1666666667 243 -16.5 247 -13.5 c 128
 251 -10.5 254.333333333 -7.5 257 -4.5 c 128
 259.666666667 -1.5 263.333333333 3.66666666667 268 11 c 128
 272.666666667 18.3333333333 276.333333333 27.3333333333 279 38 c 128
 281.666666667 48.6666666667 283.5 60.8333333333 284.5 74.5 c 128
 285.5 88.1666666667 286 98.5 286 105.5 c 128
 286 116 286 116 286 167 c 2
 286 592 l 2
 286 602.666666667 284.333333333 610.666666667 281 616 c 0
 276.333333333 621.333333333 271.333333333 625.333333333 266 628 c 0
 259.333333333 630.666666667 251.333333333 632 242 632 c 2
 206 632 l 1
 206 660 l 1
 411 660 l 1
 411 632 l 1
EndSplineSet
EndChar

StartChar: K
Encoding: 46 75 46
Width: 512
VWidth: 1024
Flags: HW
LayerCount: 2
Fore
SplineSet
133 287 m 1
 345 580 l 1
 358 600 l 2
 364.666666667 609.333333333 366.666666667 616.666666667 364 622 c 0
 362.666666667 624.666666667 360.5 627 357.5 629 c 128
 354.5 631 349 632 341 632 c 2
 310 632 l 1
 310 660 l 1
 475 660 l 1
 475 632 l 1
 466 632 l 2
 456.666666667 631.333333333 446.666666667 628.833333333 436 624.5 c 128
 425.333333333 620.166666667 416.666666667 615.333333333 410 610 c 128
 403.333333333 604.666666667 395 594.666666667 385 580 c 2
 248 397 l 1
 410 40 l 2
 415.333333333 26.6666666667 420.666666667 16.6666666667 426 10 c 128
 431.333333333 3.33333333333 438.5 -3 447.5 -9 c 128
 456.5 -15 464.666666667 -18 472 -18 c 2
 482 -18 l 1
 482 -46 l 1
 313 -46 l 1
 313 -18 l 1
 332 -18 l 2
 342.666666667 -18 350 -16.8333333333 354 -14.5 c 128
 358 -12.1666666667 360 -9 360 -5 c 128
 360 -1 357.333333333 7.33333333333 352 20 c 2
 212 348 l 1
 133 242 l 1
 133 28 l 2
 133 13.3333333333 136.666666667 2.16666666667 144 -5.5 c 128
 151.333333333 -13.1666666667 161.333333333 -17 174 -17 c 2
 186 -17 l 1
 186 -46 l 1
 24 -46 l 1
 24 -17 l 1
 40 -18 l 2
 52 -19.3333333333 61.5 -15.6666666667 68.5 -7 c 128
 75.5 1.66666666667 79 13.3333333333 79 28 c 2
 79 597 l 2
 78.3333333333 603 77.3333333333 608 76 612 c 128
 74.6666666667 616 72.3333333333 619.5 69 622.5 c 128
 65.6666666667 625.5 61.6666666667 627.833333333 57 629.5 c 128
 52.3333333333 631.166666667 46.6666666667 632 40 632 c 2
 25 632 l 1
 25 660 l 1
 187 660 l 1
 187 632 l 1
 172 632 l 2
 170 632 165.666666667 631.333333333 159 630 c 128
 152.333333333 628.666666667 147.5 626.666666667 144.5 624 c 128
 141.5 621.333333333 138.833333333 617.333333333 136.5 612 c 128
 134.166666667 606.666666667 133 601.666666667 133 597 c 2
 133 287 l 1
EndSplineSet
EndChar

StartChar: L
Encoding: 47 76 47
Width: 512
VWidth: 1024
Flags: HW
LayerCount: 2
Fore
SplineSet
479 144 m 1
 452 -46 l 1
 30 -46 l 1
 31 -18 l 1
 44 -18 l 2
 54.6666666667 -18 64 -15.6666666667 72 -11 c 128
 80 -6.33333333333 86.3333333333 -0.666666666667 91 6 c 0
 95.6666666667 14 98 22.6666666667 98 32 c 2
 98 594 l 2
 98 599.333333333 97 604.5 95 609.5 c 128
 93 614.5 90.3333333333 618.833333333 87 622.5 c 128
 83.6666666667 626.166666667 79.3333333333 628.666666667 74 630 c 128
 68.6666666667 631.333333333 62.6666666667 632 56 632 c 2
 30 632 l 1
 30 660 l 1
 225 660 l 1
 225 632 l 1
 204 632 l 2
 199.333333333 632 192.833333333 631.333333333 184.5 630 c 128
 176.166666667 628.666666667 170 626.666666667 166 624 c 128
 162 621.333333333 158.666666667 617 156 611 c 128
 153.333333333 605 152 599.333333333 152 594 c 2
 152 32 l 2
 152 24 153.333333333 17 156 11 c 0
 158.666666667 6.33333333333 161.666666667 2 165 -2 c 0
 169.666666667 -6 174 -8.66666666667 178 -10 c 128
 182 -11.3333333333 190.166666667 -13.1666666667 202.5 -15.5 c 128
 214.833333333 -17.8333333333 222.333333333 -18.6666666667 225 -18 c 2
 266 -18 l 2
 290 -18 309.666666667 -16.1666666667 325 -12.5 c 128
 340.333333333 -8.83333333333 353.333333333 -4.5 364 0.5 c 128
 374.666666667 5.5 384.666666667 12.3333333333 394 21 c 0
 402 30.3333333333 410 41.1666666667 418 53.5 c 128
 426 65.8333333333 432 77.3333333333 436 88 c 2
 450 124 l 1
 456 144 l 1
 479 144 l 1
EndSplineSet
EndChar

StartChar: M
Encoding: 48 77 48
Width: 512
VWidth: 1024
Flags: HW
LayerCount: 2
Fore
SplineSet
394 528 m 1
 256 -46 l 1
 232 -46 l 1
 99 547 l 1
 99 20 l 2
 98.3333333333 6.66666666667 101.333333333 -3 108 -9 c 128
 114.666666667 -15 123.333333333 -18 134 -18 c 2
 158 -18 l 1
 158 -46 l 1
 17 -46 l 1
 17 -18 l 1
 36 -18 l 2
 48 -18 56.6666666667 -15.3333333333 62 -10 c 128
 67.3333333333 -4.66666666667 70 5.33333333333 70 20 c 2
 70 590 l 2
 70 604.666666667 66.6666666667 615.333333333 60 622 c 128
 53.3333333333 628.666666667 45.3333333333 632 36 632 c 2
 16 632 l 1
 16 660 l 1
 122 660 l 1
 255 77 l 1
 392 660 l 1
 496 660 l 1
 496 632 l 1
 474 632 l 2
 468.666666667 632 464.666666667 631.333333333 462 630 c 128
 459.333333333 628.666666667 457 626.666666667 455 624 c 128
 453 621.333333333 451.333333333 617.333333333 450 612 c 128
 448.666666667 606.666666667 448 600.666666667 448 594 c 2
 448 26 l 2
 448 15.3333333333 448.833333333 6.83333333333 450.5 0.5 c 128
 452.166666667 -5.83333333333 455.166666667 -10.5 459.5 -13.5 c 128
 463.833333333 -16.5 470 -18 478 -18 c 2
 496 -18 l 1
 496 -46 l 1
 335 -46 l 1
 335 -18 l 1
 348 -18 l 2
 354.666666667 -18 360.666666667 -17.3333333333 366 -16 c 128
 371.333333333 -14.6666666667 376 -12.6666666667 380 -10 c 128
 384 -7.33333333333 387.333333333 -3.33333333333 390 2 c 128
 392.666666667 7.33333333333 394 15.3333333333 394 26 c 2
 394 528 l 1
EndSplineSet
EndChar

StartChar: N
Encoding: 49 78 49
Width: 512
VWidth: 1024
Flags: HW
LayerCount: 2
Fore
SplineSet
334 660 m 1
 484 660 l 1
 484 632 l 1
 473 632 l 2
 460.333333333 632 450.666666667 628.333333333 444 621 c 0
 437.333333333 615 434 606.666666667 434 596 c 2
 434 -46 l 1
 401 -46 l 1
 113 548 l 1
 114 16 l 2
 114 4 117.333333333 -4.66666666667 124 -10 c 128
 130.666666667 -15.3333333333 142.666666667 -18 160 -18 c 2
 178 -18 l 1
 178 -46 l 1
 24 -46 l 1
 24 -18 l 1
 42 -18 l 2
 58 -18 69 -15.3333333333 75 -10 c 128
 81 -4.66666666667 84 4 84 16 c 2
 84 592 l 2
 84 604 80.6666666667 613.333333333 74 620 c 0
 67.3333333333 628 59.3333333333 632 50 632 c 2
 28 632 l 1
 28 660 l 1
 120 660 l 1
 404 79 l 1
 404 596 l 2
 404 608 401.333333333 616.666666667 396 622 c 0
 390.666666667 628.666666667 380 632 364 632 c 2
 335 632 l 1
 334 660 l 1
EndSplineSet
EndChar

StartChar: O
Encoding: 50 79 50
Width: 512
VWidth: 1024
Flags: HW
LayerCount: 2
Fore
SplineSet
252 -63 m 0
 250.666666667 -63 244.666666667 -62.6666666667 234 -62 c 128
 223.333333333 -61.3333333333 210.833333333 -58.5 196.5 -53.5 c 128
 182.166666667 -48.5 168.166666667 -40.6666666667 154.5 -30 c 128
 140.833333333 -19.3333333333 128.166666667 -5.66666666667 116.5 11 c 128
 104.833333333 27.6666666667 95 44 87 60 c 128
 79 76 71.8333333333 92.1666666667 65.5 108.5 c 128
 59.1666666667 124.833333333 53.8333333333 142.5 49.5 161.5 c 128
 45.1666666667 180.5 41.8333333333 206 39.5 238 c 128
 37.1666666667 270 36 299.666666667 36 327 c 0
 36 352.333333333 37.3333333333 377.833333333 40 403.5 c 128
 42.6666666667 429.166666667 46.6666666667 451.5 52 470.5 c 128
 57.3333333333 489.5 63.6666666667 508.166666667 71 526.5 c 128
 78.3333333333 544.833333333 87.3333333333 562.333333333 98 579 c 128
 108.666666667 595.666666667 119.333333333 609.833333333 130 621.5 c 128
 140.666666667 633.166666667 152 643 164 651 c 128
 176 659 187 664.5 197 667.5 c 128
 207 670.5 216.666666667 672.833333333 226 674.5 c 128
 235.333333333 676.166666667 244.666666667 677 254 677 c 0
 257.333333333 677 261.166666667 676.833333333 265.5 676.5 c 128
 269.833333333 676.166666667 275.5 675.5 282.5 674.5 c 128
 289.5 673.5 298.5 671.166666667 309.5 667.5 c 128
 320.5 663.833333333 331.666666667 658.666666667 343 652 c 128
 354.333333333 645.333333333 365.5 636.666666667 376.5 626 c 128
 387.5 615.333333333 397.833333333 603 407.5 589 c 128
 417.166666667 575 426.333333333 558.666666667 435 540 c 128
 443.666666667 521.333333333 450.666666667 502.333333333 456 483 c 128
 461.333333333 463.666666667 466 438.5 470 407.5 c 128
 474 376.5 475.666666667 342 475 304 c 0
 475 289.333333333 474.333333333 273.666666667 473 257 c 128
 471.666666667 240.333333333 469.166666667 218.333333333 465.5 191 c 128
 461.833333333 163.666666667 455 136.166666667 445 108.5 c 128
 435 80.8333333333 423.666666667 57.5 411 38.5 c 128
 398.333333333 19.5 385.833333333 3.66666666667 373.5 -9 c 128
 361.166666667 -21.6666666667 349.333333333 -31.3333333333 338 -38 c 128
 326.666666667 -44.6666666667 315.166666667 -50 303.5 -54 c 128
 291.833333333 -58 281.833333333 -60.5 273.5 -61.5 c 128
 265.166666667 -62.5 258 -63 252 -63 c 0
94 325 m 0
 94 300.333333333 94.6666666667 275 96 249 c 128
 97.3333333333 223 99.3333333333 201 102 183 c 128
 104.666666667 165 108.333333333 147 113 129 c 128
 117.666666667 111 123 94.1666666667 129 78.5 c 128
 135 62.8333333333 143 46.5 153 29.5 c 128
 163 12.5 173.166666667 -0.333333333333 183.5 -9 c 128
 193.833333333 -17.6666666667 204.166666667 -24 214.5 -28 c 128
 224.833333333 -32 233.333333333 -34.3333333333 240 -35 c 128
 246.666666667 -35.6666666667 251.333333333 -35.6666666667 254 -35 c 0
 263.333333333 -35 272.666666667 -33.5 282 -30.5 c 128
 291.333333333 -27.5 301 -22.6666666667 311 -16 c 128
 321 -9.33333333333 331 0 341 12 c 128
 351 24 359.666666667 36.5 367 49.5 c 128
 374.333333333 62.5 382.333333333 79 391 99 c 128
 399.666666667 119 405.666666667 142.833333333 409 170.5 c 128
 412.333333333 198.166666667 414.5 224 415.5 248 c 128
 416.5 272 417 295.333333333 417 318 c 0
 417 346 415.833333333 372.666666667 413.5 398 c 128
 411.166666667 423.333333333 407.666666667 446 403 466 c 128
 398.333333333 486 393 504 387 520 c 128
 381 536 374.333333333 550.833333333 367 564.5 c 128
 359.666666667 578.166666667 351.5 590.5 342.5 601.5 c 128
 333.5 612.5 323.5 621.833333333 312.5 629.5 c 128
 301.5 637.166666667 290.5 642.166666667 279.5 644.5 c 128
 268.5 646.833333333 261.5 648 258.5 648 c 128
 255.5 648 250.666666667 647.666666667 244 647 c 128
 237.333333333 646.333333333 230 645 222 643 c 128
 214 641 204.666666667 636.5 194 629.5 c 128
 183.333333333 622.5 173 613.166666667 163 601.5 c 128
 153 589.833333333 143.5 575.333333333 134.5 558 c 128
 125.5 540.666666667 117.666666667 518.666666667 111 492 c 128
 104.333333333 465.333333333 99.8333333333 439.5 97.5 414.5 c 128
 95.1666666667 389.5 94 359.666666667 94 325 c 0
EndSplineSet
EndChar

StartChar: P
Encoding: 51 80 51
Width: 512
VWidth: 1024
Flags: HW
LayerCount: 2
Fore
SplineSet
30 660 m 1
 227 660 l 2
 243.666666667 660 264 658.666666667 288 656 c 128
 312 653.333333333 334.333333333 649.333333333 355 644 c 128
 375.666666667 638.666666667 396.666666667 628.5 418 613.5 c 128
 439.333333333 598.5 455.5 580.833333333 466.5 560.5 c 128
 477.5 540.166666667 484.5 512.5 487.5 477.5 c 128
 490.5 442.5 484.666666667 410.666666667 470 382 c 0
 458 357.333333333 442 339 422 327 c 128
 402 315 381.333333333 306 360 300 c 128
 338.666666667 294 323.166666667 290.333333333 313.5 289 c 128
 303.833333333 287.666666667 287.166666667 286.166666667 263.5 284.5 c 128
 239.833333333 282.833333333 221.333333333 282 208 282 c 2
 148 282 l 1
 148 33 l 2
 148 24.3333333333 150 16 154 8 c 128
 158 0 164.333333333 -6.33333333333 173 -11 c 128
 181.666666667 -15.6666666667 189.666666667 -18 197 -18 c 2
 213 -18 l 1
 213 -46 l 1
 24 -46 l 1
 24 -18 l 1
 36 -18 l 2
 46.6666666667 -18 56 -16.1666666667 64 -12.5 c 128
 72 -8.83333333333 78.8333333333 -2.16666666667 84.5 7.5 c 128
 90.1666666667 17.1666666667 93 29.3333333333 93 44 c 2
 93 571 l 2
 93 589 90.6666666667 601.666666667 86 609 c 128
 81.3333333333 616.333333333 75.5 622 68.5 626 c 128
 61.5 630 53.3333333333 632 44 632 c 2
 30 632 l 1
 30 660 l 1
148 310 m 1
 208 310 l 2
 224 310 239.833333333 310.666666667 255.5 312 c 128
 271.166666667 313.333333333 287.666666667 316 305 320 c 128
 322.333333333 324 339.833333333 330.666666667 357.5 340 c 128
 375.166666667 349.333333333 389.5 362 400.5 378 c 128
 411.5 394 418.333333333 411.333333333 421 430 c 128
 423.666666667 448.666666667 424.666666667 466 424 482 c 0
 422 515.333333333 414.5 542 401.5 562 c 128
 388.5 582 372.5 596.833333333 353.5 606.5 c 128
 334.5 616.166666667 316.5 622.833333333 299.5 626.5 c 128
 282.5 630.166666667 268 632 256 632 c 2
 220 632 l 2
 200 632 185.333333333 629.333333333 176 624 c 0
 168 619.333333333 161.333333333 613.166666667 156 605.5 c 128
 150.666666667 597.833333333 148 586.333333333 148 571 c 2
 148 310 l 1
EndSplineSet
EndChar

StartChar: Q
Encoding: 52 81 52
Width: 512
VWidth: 1024
Flags: HW
LayerCount: 2
Fore
SplineSet
144 49 m 1
 144.666666667 54.3333333333 145.5 59 146.5 63 c 128
 147.5 67 149 73.3333333333 151 82 c 128
 153 90.6666666667 156.666666667 100.333333333 162 111 c 128
 167.333333333 121.666666667 176 131.5 188 140.5 c 128
 200 149.5 214.666666667 154 232 154 c 0
 246.666666667 154 260 150.5 272 143.5 c 128
 284 136.5 293.833333333 126.833333333 301.5 114.5 c 128
 309.166666667 102.166666667 315.5 89.3333333333 320.5 76 c 128
 325.5 62.6666666667 330 48.3333333333 334 33 c 2
 337 22 l 1
 340 10 l 1
 345.333333333 16 350.333333333 21.6666666667 355 27 c 128
 359.666666667 32.3333333333 365.166666667 41.1666666667 371.5 53.5 c 128
 377.833333333 65.8333333333 382.5 77.3333333333 385.5 88 c 128
 388.5 98.6666666667 392 110.666666667 396 124 c 128
 400 137.333333333 403.333333333 153.333333333 406 172 c 128
 408.666666667 190.666666667 410.833333333 213.333333333 412.5 240 c 128
 414.166666667 266.666666667 415 290 415 310 c 0
 415 335.333333333 413.166666667 367.333333333 409.5 406 c 128
 405.833333333 444.666666667 400 479.166666667 392 509.5 c 128
 384 539.833333333 372.666666667 565.833333333 358 587.5 c 128
 343.333333333 609.166666667 328 624.666666667 312 634 c 128
 296 643.333333333 277.833333333 648 257.5 648 c 128
 237.166666667 648 219.5 643.5 204.5 634.5 c 128
 189.5 625.5 176 613.833333333 164 599.5 c 128
 152 585.166666667 141.333333333 567.833333333 132 547.5 c 128
 122.666666667 527.166666667 115.333333333 505.5 110 482.5 c 128
 104.666666667 459.5 100.666666667 436 98 412 c 128
 95.3333333333 388 93.5 367.333333333 92.5 350 c 128
 91.5 332.666666667 91.3333333333 320 92 312 c 0
 92 305.333333333 92.6666666667 289.166666667 94 263.5 c 128
 95.3333333333 237.833333333 96.6666666667 217.833333333 98 203.5 c 128
 99.3333333333 189.166666667 102 173.333333333 106 156 c 128
 110 138.666666667 114 123.666666667 118 111 c 128
 122 98.3333333333 125.333333333 89.3333333333 128 84 c 2
 140 58 l 1
 144 49 l 1
350 -29 m 1
 351.333333333 -35.6666666667 352.333333333 -39.8333333333 353 -41.5 c 128
 353.666666667 -43.1666666667 356.166666667 -50.6666666667 360.5 -64 c 128
 364.833333333 -77.3333333333 368.5 -86.6666666667 371.5 -92 c 128
 374.5 -97.3333333333 378.333333333 -102.333333333 383 -107 c 128
 387.666666667 -111.666666667 394.666666667 -114 404 -114 c 0
 412 -114 420.666666667 -111.333333333 430 -106 c 128
 439.333333333 -100.666666667 446 -94.6666666667 450 -88 c 2
 467 -66 l 1
 482 -73 l 1
 478 -81.6666666667 474 -89.5 470 -96.5 c 128
 466 -103.5 460 -111.833333333 452 -121.5 c 128
 444 -131.166666667 434.5 -139.333333333 423.5 -146 c 128
 412.5 -152.666666667 400 -156 386 -156 c 128
 372 -156 360.5 -153 351.5 -147 c 128
 342.5 -141 335.333333333 -132.333333333 330 -121 c 128
 324.666666667 -109.666666667 318.666666667 -92.3333333333 312 -69 c 2
 308 -51 l 1
 303.333333333 -52.3333333333 299.166666667 -53.6666666667 295.5 -55 c 128
 291.833333333 -56.3333333333 285.333333333 -58 276 -60 c 128
 266.666666667 -62 258 -63 250 -63 c 0
 236.666666667 -63.6666666667 221.666666667 -61.3333333333 205 -56 c 128
 188.333333333 -50.6666666667 171.333333333 -41.6666666667 154 -29 c 128
 136.666666667 -16.3333333333 121.5 -0.833333333333 108.5 17.5 c 128
 95.5 35.8333333333 85.8333333333 52.6666666667 79.5 68 c 128
 73.1666666667 83.3333333333 67.1666666667 98.5 61.5 113.5 c 128
 55.8333333333 128.5 50.6666666667 148.333333333 46 173 c 128
 41.3333333333 197.666666667 38.6666666667 219.333333333 38 238 c 0
 36.6666666667 258 36 278.666666667 36 300 c 0
 36 338.666666667 38 370.833333333 42 396.5 c 128
 46 422.166666667 50.8333333333 447.166666667 56.5 471.5 c 128
 62.1666666667 495.833333333 69.8333333333 518.666666667 79.5 540 c 128
 89.1666666667 561.333333333 101 581.333333333 115 600 c 128
 129 618.666666667 143.333333333 633.666666667 158 645 c 128
 172.666666667 656.333333333 188 664.5 204 669.5 c 128
 220 674.5 238 677 258 677 c 0
 282 677 302.333333333 673.5 319 666.5 c 128
 335.666666667 659.5 350.166666667 651 362.5 641 c 128
 374.833333333 631 388.166666667 615.666666667 402.5 595 c 128
 416.833333333 574.333333333 428.666666667 552.833333333 438 530.5 c 128
 447.333333333 508.166666667 454.333333333 484.5 459 459.5 c 128
 463.666666667 434.5 467 410 469 386 c 128
 471 362 472 334.666666667 472 304 c 0
 473.333333333 273.333333333 472.666666667 246 470 222 c 0
 467.333333333 195.333333333 462.666666667 170.333333333 456 147 c 128
 449.333333333 123.666666667 443.166666667 105.333333333 437.5 92 c 128
 431.833333333 78.6666666667 426.166666667 66.8333333333 420.5 56.5 c 128
 414.833333333 46.1666666667 406.333333333 32.8333333333 395 16.5 c 128
 383.666666667 0.166666666667 371.333333333 -13 358 -23 c 2
 350 -29 l 1
162 19 m 1
 166 13.6666666667 169.5 9.5 172.5 6.5 c 128
 175.5 3.5 180.666666667 -1.33333333333 188 -8 c 128
 195.333333333 -14.6666666667 204.666666667 -20 216 -24 c 0
 226.666666667 -26.6666666667 238 -28 250 -28 c 0
 266 -28 280 -25.6666666667 292 -21 c 2
 299 -18 l 1
 297.666666667 -11.3333333333 295 -0.166666666667 291 15.5 c 128
 287 31.1666666667 282.666666667 46.5 278 61.5 c 128
 273.333333333 76.5 267.666666667 89 261 99 c 128
 254.333333333 109 248.166666667 115.333333333 242.5 118 c 128
 236.833333333 120.666666667 230.5 122.333333333 223.5 123 c 128
 216.5 123.666666667 209.333333333 122.166666667 202 118.5 c 128
 194.666666667 114.833333333 188.833333333 109.5 184.5 102.5 c 128
 180.166666667 95.5 176.333333333 86.6666666667 173 76 c 128
 169.666666667 65.3333333333 167.333333333 55.3333333333 166 46 c 2
 164 29 l 1
 162 19 l 1
EndSplineSet
EndChar

StartChar: R
Encoding: 53 82 53
Width: 512
VWidth: 1024
Flags: HW
LayerCount: 2
Fore
SplineSet
284 308 m 1
 412 36 l 2
 416.666666667 25.3333333333 422 16 428 8 c 128
 434 0 441 -6 449 -10 c 0
 457.666666667 -15.3333333333 468.666666667 -18 482 -18 c 2
 490 -18 l 1
 490 -46 l 1
 384 -46 l 1
 228 304 l 1
 127 304 l 1
 127 28 l 2
 127 10.6666666667 129.833333333 -1.33333333333 135.5 -8 c 128
 141.166666667 -14.6666666667 151 -18 165 -18 c 2
 178 -18 l 1
 178 -46 l 1
 20 -46 l 1
 20 -18 l 1
 38 -18 l 2
 51.3333333333 -18 60.6666666667 -15 66 -9 c 0
 71.3333333333 -4.33333333333 74 7.33333333333 74 26 c 2
 74 594 l 2
 74 608.666666667 70.6666666667 618.666666667 64 624 c 128
 57.3333333333 629.333333333 48 632 36 632 c 2
 20 632 l 1
 20 660 l 1
 219 660 l 2
 227.666666667 660 239.333333333 659.333333333 254 658 c 128
 268.666666667 656.666666667 281.166666667 655 291.5 653 c 128
 301.833333333 651 314 647.333333333 328 642 c 128
 342 636.666666667 354.166666667 630.166666667 364.5 622.5 c 128
 374.833333333 614.833333333 385.333333333 604.5 396 591.5 c 128
 406.666666667 578.5 414.666666667 566 420 554 c 128
 425.333333333 542 428.666666667 529.333333333 430 516 c 128
 431.333333333 502.666666667 432 491 432 481 c 0
 432 475 431.333333333 466 430 454 c 128
 428.666666667 442 426.166666667 429.5 422.5 416.5 c 128
 418.833333333 403.5 412.5 390.5 403.5 377.5 c 128
 394.5 364.5 384.5 353.333333333 373.5 344 c 128
 362.5 334.666666667 349.5 326.833333333 334.5 320.5 c 128
 319.5 314.166666667 308 310.666666667 300 310 c 2
 284 308 l 1
127 332 m 1
 210 332 l 2
 216 332 224.166666667 332.333333333 234.5 333 c 128
 244.833333333 333.666666667 254.5 334.666666667 263.5 336 c 128
 272.5 337.333333333 281.166666667 339.166666667 289.5 341.5 c 128
 297.833333333 343.833333333 306.5 347.5 315.5 352.5 c 128
 324.5 357.5 332.5 364 339.5 372 c 128
 346.5 380 352.666666667 389.333333333 358 400 c 128
 363.333333333 410.666666667 367.5 423.333333333 370.5 438 c 128
 373.5 452.666666667 375.166666667 468 375.5 484 c 128
 375.833333333 500 374 515.166666667 370 529.5 c 128
 366 543.833333333 360 557 352 569 c 128
 344 581 335.833333333 590.666666667 327.5 598 c 128
 319.166666667 605.333333333 309.5 611.166666667 298.5 615.5 c 128
 287.5 619.833333333 278.166666667 623 270.5 625 c 128
 262.833333333 627 252.5 628.666666667 239.5 630 c 128
 226.5 631.333333333 216.666666667 632 210 632 c 2
 166 632 l 2
 154 632 144.5 628.666666667 137.5 622 c 128
 130.5 615.333333333 127 606 127 594 c 2
 127 332 l 1
EndSplineSet
EndChar

StartChar: S
Encoding: 54 83 54
Width: 512
VWidth: 1024
Flags: HW
LayerCount: 2
Fore
SplineSet
56 154 m 1
 60 144.666666667 63.8333333333 136.5 67.5 129.5 c 128
 71.1666666667 122.5 76.5 112.833333333 83.5 100.5 c 128
 90.5 88.1666666667 98 76 106 64 c 128
 114 52 124.5 39.3333333333 137.5 26 c 128
 150.5 12.6666666667 164.5 1.66666666667 179.5 -7 c 128
 194.5 -15.6666666667 206.333333333 -21.6666666667 215 -25 c 128
 223.666666667 -28.3333333333 233 -31 243 -33 c 128
 253 -35 262 -36 270 -36 c 0
 284.666666667 -36 299 -34 313 -30 c 128
 327 -26 338.666666667 -21.3333333333 348 -16 c 128
 357.333333333 -10.6666666667 366 -3.83333333333 374 4.5 c 128
 382 12.8333333333 389.5 22.5 396.5 33.5 c 128
 403.5 44.5 408.666666667 55 412 65 c 128
 415.333333333 75 417.833333333 86 419.5 98 c 128
 421.166666667 110 421.666666667 123.333333333 421 138 c 0
 419.666666667 150 416.5 165 411.5 183 c 128
 406.5 201 396 216.333333333 380 229 c 128
 364 241.666666667 346 252.666666667 326 262 c 0
 307.333333333 271.333333333 288.666666667 279.333333333 270 286 c 2
 184 315 l 2
 166 321 148.5 328.666666667 131.5 338 c 128
 114.5 347.333333333 98.6666666667 360.5 84 377.5 c 128
 69.3333333333 394.5 59.6666666667 413.5 55 434.5 c 128
 50.3333333333 455.5 48.3333333333 473.333333333 49 488 c 0
 49 500.666666667 50.3333333333 513.5 53 526.5 c 128
 55.6666666667 539.5 60.8333333333 554.666666667 68.5 572 c 128
 76.1666666667 589.333333333 88.3333333333 606.333333333 105 623 c 128
 121.666666667 639.666666667 138 651.5 154 658.5 c 128
 170 665.5 182.666666667 669.833333333 192 671.5 c 128
 201.333333333 673.166666667 210 674.333333333 218 675 c 128
 226 675.666666667 232.666666667 676.333333333 238 677 c 0
 248.666666667 677 259.666666667 675.833333333 271 673.5 c 128
 282.333333333 671.166666667 292.5 668.333333333 301.5 665 c 128
 310.5 661.666666667 318.666666667 658.666666667 326 656 c 2
 345 647 l 2
 349 645 353.833333333 642.666666667 359.5 640 c 128
 365.166666667 637.333333333 369.333333333 635.666666667 372 635 c 128
 374.666666667 634.333333333 377.333333333 634 380 634 c 0
 384.666666667 634 390 635.333333333 396 638 c 2
 405 644 l 1
 419 654 l 1
 466 472 l 1
 445 463 l 1
 440.333333333 472.333333333 436.833333333 479.166666667 434.5 483.5 c 128
 432.166666667 487.833333333 427.166666667 496.5 419.5 509.5 c 128
 411.833333333 522.5 404.666666667 534.5 398 545.5 c 128
 391.333333333 556.5 383.166666667 568.166666667 373.5 580.5 c 128
 363.833333333 592.833333333 355.166666667 602.5 347.5 609.5 c 128
 339.833333333 616.5 331 623 321 629 c 128
 311 635 302.5 639.166666667 295.5 641.5 c 128
 288.5 643.833333333 280.5 645.833333333 271.5 647.5 c 128
 262.5 649.166666667 252.333333333 650 241 650 c 0
 223.666666667 649.333333333 207.166666667 646.166666667 191.5 640.5 c 128
 175.833333333 634.833333333 161.333333333 626 148 614 c 128
 134.666666667 602 124.833333333 589 118.5 575 c 128
 112.166666667 561 107.833333333 547.333333333 105.5 534 c 128
 103.166666667 520.666666667 102.333333333 505.333333333 103 488 c 0
 103.666666667 468 106.666666667 451.666666667 112 439 c 128
 117.333333333 426.333333333 125.333333333 415 136 405 c 128
 146.666666667 395 158.333333333 386.666666667 171 380 c 128
 183.666666667 373.333333333 201.333333333 366.666666667 224 360 c 2
 301 334 l 2
 326.333333333 325.333333333 346.5 317 361.5 309 c 128
 376.5 301 390.166666667 292.5 402.5 283.5 c 128
 414.833333333 274.5 428.166666667 261 442.5 243 c 128
 456.833333333 225 466.666666667 205.333333333 472 184 c 128
 477.333333333 162.666666667 479.666666667 142.666666667 479 124 c 0
 477.666666667 94.6666666667 471.166666667 68.5 459.5 45.5 c 128
 447.833333333 22.5 434.333333333 4.16666666667 419 -9.5 c 128
 403.666666667 -23.1666666667 388.666666667 -33.3333333333 374 -40 c 128
 359.333333333 -46.6666666667 346 -51.5 334 -54.5 c 128
 322 -57.5 312.333333333 -59.5 305 -60.5 c 128
 297.666666667 -61.5 289.333333333 -62 280 -62 c 0
 265.333333333 -62 252.333333333 -61 241 -59 c 128
 229.666666667 -57 218.833333333 -54.3333333333 208.5 -51 c 128
 198.166666667 -47.6666666667 190.833333333 -45.3333333333 186.5 -44 c 128
 182.166666667 -42.6666666667 175.833333333 -40.5 167.5 -37.5 c 128
 159.166666667 -34.5 151.833333333 -32.1666666667 145.5 -30.5 c 128
 139.166666667 -28.8333333333 132.666666667 -28 126 -28 c 0
 122 -28 118.666666667 -28.3333333333 116 -29 c 0
 114 -30 114 -30 98 -38 c 2
 86 -46 l 1
 36 148 l 1
 56 154 l 1
EndSplineSet
EndChar

StartChar: T
Encoding: 55 84 55
Width: 512
VWidth: 1024
Flags: HW
LayerCount: 2
Fore
SplineSet
469 484 m 1
 462 498 462 498 458 506 c 2
 436 548 l 2
 429.333333333 558.666666667 422.666666667 569.166666667 416 579.5 c 128
 409.333333333 589.833333333 402.833333333 598.5 396.5 605.5 c 128
 390.166666667 612.5 382.833333333 618.666666667 374.5 624 c 128
 366.166666667 629.333333333 355.333333333 632 342 632 c 2
 324 632 l 2
 309.333333333 632 298.333333333 628.166666667 291 620.5 c 128
 283.666666667 612.833333333 280 602.666666667 280 590 c 2
 280 30 l 2
 280 15.3333333333 283.333333333 4 290 -4 c 0
 297.333333333 -13.3333333333 308.333333333 -18 323 -18 c 2
 351 -18 l 1
 351 -46 l 1
 157 -46 l 1
 158 -18 l 1
 179 -18 l 2
 197 -18 209 -14 215 -6 c 128
 221 2 224 14.6666666667 224 32 c 2
 224 590 l 2
 224 604 220.666666667 614.333333333 214 621 c 0
 206 628.333333333 196.666666667 632 186 632 c 2
 173 632 l 2
 158.333333333 632 144.166666667 628.166666667 130.5 620.5 c 128
 116.833333333 612.833333333 106.5 604.333333333 99.5 595 c 128
 92.5 585.666666667 86.1666666667 576.5 80.5 567.5 c 128
 74.8333333333 558.5 70.6666666667 550.666666667 68 544 c 2
 58 518 l 1
 46 492 l 1
 42 484 l 1
 22 484 l 1
 48 660 l 1
 460 660 l 1
 491 484 l 1
 469 484 l 1
EndSplineSet
EndChar

StartChar: U
Encoding: 56 85 56
Width: 512
VWidth: 1024
Flags: HW
LayerCount: 2
Fore
SplineSet
328 660 m 1
 484 660 l 1
 484 632 l 1
 464 632 l 2
 456 632 448.833333333 630 442.5 626 c 128
 436.166666667 622 431.5 617.5 428.5 612.5 c 128
 425.5 607.5 424 600 424 590 c 2
 424 128 l 2
 424 117.333333333 423.333333333 104.666666667 422 90 c 128
 420.666666667 75.3333333333 418.666666667 62.6666666667 416 52 c 128
 413.333333333 41.3333333333 408 28.8333333333 400 14.5 c 128
 392 0.166666666667 379.333333333 -14.6666666667 362 -30 c 128
 344.666666667 -45.3333333333 320.666666667 -55.6666666667 290 -61 c 0
 257.333333333 -67 229.166666667 -65.6666666667 205.5 -57 c 128
 181.833333333 -48.3333333333 164.833333333 -40.6666666667 154.5 -34 c 128
 144.166666667 -27.3333333333 135.166666667 -19.3333333333 127.5 -10 c 128
 119.833333333 -0.666666666667 113.333333333 8.66666666667 108 18 c 128
 102.666666667 27.3333333333 98.6666666667 38.6666666667 96 52 c 128
 93.3333333333 65.3333333333 91.6666666667 75.1666666667 91 81.5 c 128
 90.3333333333 87.8333333333 90 100 90 118 c 2
 90 594 l 2
 90 599.333333333 89 604.666666667 87 610 c 128
 85 615.333333333 82.3333333333 619.333333333 79 622 c 0
 77 624.666666667 72.8333333333 627 66.5 629 c 128
 60.1666666667 631 54 632 48 632 c 2
 25 632 l 1
 25 660 l 1
 210 660 l 1
 210 632 l 1
 206 632 l 2
 191.333333333 632 180.833333333 631.333333333 174.5 630 c 128
 168.166666667 628.666666667 162.666666667 626.666666667 158 624 c 128
 153.333333333 621.333333333 149.833333333 617.666666667 147.5 613 c 128
 145.166666667 608.333333333 144 602 144 594 c 2
 144 127 l 2
 144 113.666666667 144.333333333 102.166666667 145 92.5 c 128
 145.666666667 82.8333333333 147.333333333 73.3333333333 150 64 c 128
 152.666666667 54.6666666667 156 45.3333333333 160 36 c 128
 164 26.6666666667 170.666666667 17.6666666667 180 9 c 0
 188 -0.333333333333 197.166666667 -8.16666666667 207.5 -14.5 c 128
 217.833333333 -20.8333333333 227.666666667 -24.6666666667 237 -26 c 128
 246.333333333 -27.3333333333 256.333333333 -27.6666666667 267 -27 c 0
 282.333333333 -27 296.5 -25.1666666667 309.5 -21.5 c 128
 322.5 -17.8333333333 335 -11 347 -1 c 0
 359 7.66666666667 368 17.1666666667 374 27.5 c 128
 380 37.8333333333 384.166666667 48.1666666667 386.5 58.5 c 128
 388.833333333 68.8333333333 390.666666667 80.3333333333 392 93 c 0
 393.333333333 107 394 117.333333333 394 124 c 2
 394 590 l 2
 394 602 392 610.666666667 388 616 c 128
 384 621.333333333 378.666666667 625.333333333 372 628 c 128
 365.333333333 630.666666667 358 632 350 632 c 2
 328 632 l 1
 328 660 l 1
EndSplineSet
EndChar

StartChar: V
Encoding: 57 86 57
Width: 512
VWidth: 1024
Flags: HW
LayerCount: 2
Fore
SplineSet
487 632 m 1
 478 632 l 2
 463.333333333 632 452.666666667 628.666666667 446 622 c 0
 439.333333333 616.666666667 433.166666667 606.666666667 427.5 592 c 128
 421.833333333 577.333333333 416.333333333 559 411 537 c 2
 270 -64 l 1
 246 -64 l 1
 95 567 l 2
 91 581.666666667 86.6666666667 593.5 82 602.5 c 128
 77.3333333333 611.5 71.8333333333 618.666666667 65.5 624 c 128
 59.1666666667 629.333333333 50 632 38 632 c 2
 27 632 l 1
 27 660 l 1
 210 660 l 1
 208 632 l 1
 180 632 l 2
 167.333333333 632 157.833333333 630.5 151.5 627.5 c 128
 145.166666667 624.5 142.666666667 615.333333333 144 600 c 2
 151 570 l 1
 271 60 l 1
 380 533 l 1
 389 574 l 2
 393 590 394.666666667 602 394 610 c 0
 393.333333333 616.666666667 391.5 622 388.5 626 c 128
 385.5 630 380 632 372 632 c 2
 340 632 l 1
 338 660 l 1
 486 660 l 1
 487 632 l 1
EndSplineSet
EndChar

StartChar: W
Encoding: 58 87 58
Width: 512
VWidth: 1024
Flags: HW
LayerCount: 2
Fore
SplineSet
247 499 m 1
 236 590 l 2
 234.666666667 597.333333333 233.666666667 603.166666667 233 607.5 c 128
 232.333333333 611.833333333 230.833333333 616 228.5 620 c 128
 226.166666667 624 223.5 627 220.5 629 c 128
 217.5 631 212 632 204 632 c 2
 188 632 l 1
 188 660 l 1
 330 660 l 1
 330 632 l 1
 308 632 l 2
 299.333333333 632 293.666666667 630.333333333 291 627 c 0
 287.666666667 625 286.666666667 621.333333333 288 616 c 2
 356 120 l 1
 422 581 l 1
 424 603 l 2
 424.666666667 608.333333333 425 612 425 614 c 0
 425 620 423.833333333 624.5 421.5 627.5 c 128
 419.166666667 630.5 412 632 400 632 c 2
 385 632 l 1
 385 660 l 1
 498 660 l 1
 498 632 l 1
 488 632 l 2
 478.666666667 632 472 630.666666667 468 628 c 128
 464 625.333333333 460.666666667 622 458 618 c 0
 456.666666667 614 455.333333333 608 454 600 c 2
 450 582 l 1
 356 -63 l 1
 332 -63 l 1
 262 407 l 1
 184 -63 l 1
 160 -63 l 1
 60 591 l 2
 58.6666666667 600.333333333 57.3333333333 607.166666667 56 611.5 c 128
 54.6666666667 615.833333333 52.6666666667 619.333333333 50 622 c 128
 47.3333333333 624.666666667 43.6666666667 627 39 629 c 128
 34.3333333333 631 29 632 23 632 c 2
 14 632 l 1
 14 660 l 1
 150 660 l 1
 150 632 l 1
 131 632 l 2
 126.333333333 632 122.666666667 631.333333333 120 630 c 128
 117.333333333 628.666666667 115.333333333 626.666666667 114 624 c 128
 112.666666667 621.333333333 112 617.833333333 112 613.5 c 128
 112 609.166666667 112.333333333 603.333333333 113 596 c 2
 184 110 l 1
 247 499 l 1
EndSplineSet
EndChar

StartChar: X
Encoding: 59 88 59
Width: 512
VWidth: 1024
Flags: HW
LayerCount: 2
Fore
SplineSet
231 306 m 1
 124 566 l 2
 120 576.666666667 115.666666667 586 111 594 c 0
 107 603.333333333 102.833333333 610.333333333 98.5 615 c 128
 94.1666666667 619.666666667 88 623.666666667 80 627 c 128
 72 630.333333333 64 632 56 632 c 2
 38 632 l 1
 38 660 l 1
 214 660 l 1
 214 632 l 1
 191 632 l 2
 181.666666667 632 174.833333333 630.333333333 170.5 627 c 128
 166.166666667 623.666666667 164 618 164 610 c 0
 164 606 165.666666667 600 169 592 c 128
 172.333333333 584 175.333333333 577 178 571 c 2
 263 374 l 1
 352 567 l 2
 362.666666667 589.666666667 367.166666667 604.333333333 365.5 611 c 128
 363.833333333 617.666666667 361 622.833333333 357 626.5 c 128
 353 630.166666667 345.666666667 632 335 632 c 2
 304 632 l 1
 304 660 l 1
 466 660 l 1
 466 632 l 1
 456 632 l 2
 446.666666667 632 438.333333333 630.5 431 627.5 c 128
 423.666666667 624.5 416.666666667 619 410 611 c 128
 403.333333333 603 396.666666667 591 390 575 c 2
 279 338 l 1
 401 56 l 2
 407 41.3333333333 411.333333333 31.3333333333 414 26 c 128
 416.666666667 20.6666666667 420 15.1666666667 424 9.5 c 128
 428 3.83333333333 431.5 -0.5 434.5 -3.5 c 128
 437.5 -6.5 442.166666667 -9.33333333333 448.5 -12 c 128
 454.833333333 -14.6666666667 463 -16 473 -16 c 2
 486 -16 l 1
 486 -45 l 1
 297 -45 l 1
 297 -16 l 1
 320 -16 l 2
 332 -16 340 -15.3333333333 344 -14 c 0
 349.333333333 -12.6666666667 353 -10.6666666667 355 -8 c 128
 357 -5.33333333333 358 -1.33333333333 358 4 c 0
 358 7.33333333333 356 14.3333333333 352 25 c 128
 348 35.6666666667 345.333333333 42 344 44 c 2
 252 271 l 1
 148 58 l 1
 134 26 l 2
 130 16.6666666667 128 10.3333333333 128 7 c 0
 128 1 129.333333333 -3.33333333333 132 -6 c 128
 134.666666667 -8.66666666667 138.833333333 -11 144.5 -13 c 128
 150.166666667 -15 159.333333333 -16 172 -16 c 2
 199 -16 l 1
 199 -45 l 1
 23 -45 l 1
 23 -16 l 1
 36 -16 l 2
 46 -16 55.1666666667 -14 63.5 -10 c 128
 71.8333333333 -6 79.3333333333 0 86 8 c 0
 92.6666666667 14.6666666667 99.3333333333 25.3333333333 106 40 c 2
 231 306 l 1
EndSplineSet
EndChar

StartChar: Y
Encoding: 60 89 60
Width: 512
VWidth: 1024
Flags: HW
LayerCount: 2
Fore
SplineSet
488 632 m 1
 477 632 l 2
 465.666666667 632 456.666666667 629.666666667 450 625 c 128
 443.333333333 620.333333333 437.666666667 614.333333333 433 607 c 0
 427 599 420.666666667 586.333333333 414 569 c 2
 286 266 l 1
 286 32 l 2
 286 14.6666666667 289.333333333 2 296 -6 c 128
 302.666666667 -14 313 -18 327 -18 c 2
 344 -18 l 1
 344 -46 l 1
 174 -46 l 1
 174 -18 l 1
 187 -18 l 2
 204.333333333 -18 216.166666667 -14.3333333333 222.5 -7 c 128
 228.833333333 0.333333333333 232 13.3333333333 232 32 c 2
 232 250 l 1
 100 560 l 2
 92 577.333333333 85 591 79 601 c 128
 73 611 66.3333333333 618.666666667 59 624 c 128
 51.6666666667 629.333333333 43.3333333333 632 34 632 c 2
 24 632 l 1
 24 660 l 1
 194 660 l 1
 194 632 l 1
 166 632 l 2
 156.666666667 632 150.166666667 630 146.5 626 c 128
 142.833333333 622 141.166666667 616.666666667 141.5 610 c 128
 141.833333333 603.333333333 144.666666667 594.666666667 150 584 c 2
 270 300 l 1
 380 569 l 2
 385.333333333 581.666666667 388.666666667 590.666666667 390 596 c 128
 391.333333333 601.333333333 392 606.666666667 392 612 c 0
 390.666666667 620 387.666666667 625 383 627 c 0
 379.666666667 630.333333333 372 632 360 632 c 2
 333 632 l 1
 333 660 l 1
 488 660 l 1
 488 632 l 1
EndSplineSet
EndChar

StartChar: Z
Encoding: 61 90 61
Width: 512
VWidth: 1024
Flags: HW
LayerCount: 2
Fore
SplineSet
473 152 m 1
 429 -46 l 1
 40 -46 l 1
 40 -22 l 1
 400 632 l 1
 272 632 l 2
 267.333333333 632 257.666666667 631.166666667 243 629.5 c 128
 228.333333333 627.833333333 218.5 626.333333333 213.5 625 c 128
 208.5 623.666666667 201.666666667 621 193 617 c 128
 184.333333333 613 177.166666667 609.166666667 171.5 605.5 c 128
 165.833333333 601.833333333 159.5 596.333333333 152.5 589 c 128
 145.5 581.666666667 138.666666667 573.333333333 132 564 c 128
 125.333333333 554.666666667 117.5 542 108.5 526 c 128
 99.5 510 94.3333333333 500 93 496 c 2
 84 474 l 1
 64 474 l 1
 98 660 l 1
 465 660 l 1
 465 638 l 1
 102 -17 l 1
 261 -17 l 2
 275.666666667 -17 290.166666667 -15.3333333333 304.5 -12 c 128
 318.833333333 -8.66666666667 332 -3.66666666667 344 3 c 128
 356 9.66666666667 367.333333333 18.1666666667 378 28.5 c 128
 388.666666667 38.8333333333 398.666666667 51.3333333333 408 66 c 128
 417.333333333 80.6666666667 426.666666667 96.6666666667 436 114 c 2
 454 152 l 1
 473 152 l 1
EndSplineSet
EndChar

StartChar: bracketleft
Encoding: 62 91 62
Width: 512
VWidth: 1024
Flags: HW
LayerCount: 2
Fore
SplineSet
481 -174 m 1
 232 -174 l 1
 232 786 l 1
 481 786 l 1
 481 748 l 1
 271 748 l 1
 271 -136 l 1
 481 -136 l 1
 481 -174 l 1
EndSplineSet
EndChar

StartChar: backslash
Encoding: 63 92 63
Width: 512
VWidth: 1024
Flags: HW
LayerCount: 2
Fore
SplineSet
474 -134 m 1
 438 -152 l 1
 37 751 l 1
 69 770 l 1
 474 -134 l 1
EndSplineSet
EndChar

StartChar: bracketright
Encoding: 64 93 64
Width: 512
VWidth: 1024
Flags: HW
LayerCount: 2
Fore
SplineSet
280 -174 m 1
 30 -174 l 1
 30 -136 l 1
 240 -136 l 1
 240 748 l 1
 30 748 l 1
 30 786 l 1
 280 786 l 1
 280 -174 l 1
EndSplineSet
EndChar

StartChar: asciicircum
Encoding: 65 94 65
Width: 512
VWidth: 1024
Flags: HW
LayerCount: 2
Fore
SplineSet
429 682 m 1
 389 683 l 1
 256 771 l 1
 120 683 l 1
 82 683 l 1
 204 810 l 1
 307 810 l 1
 429 682 l 1
EndSplineSet
EndChar

StartChar: underscore
Encoding: 66 95 66
Width: 512
VWidth: 1024
Flags: HW
LayerCount: 2
Fore
SplineSet
512 -206 m 1
 0 -206 l 1
 0 -170 l 1
 512 -170 l 1
 512 -206 l 1
EndSplineSet
EndChar

StartChar: grave
Encoding: 67 96 67
Width: 512
VWidth: 1024
Flags: HW
LayerCount: 2
Fore
SplineSet
173 810 m 2
 411 716 l 2
 417.666666667 713.333333333 420.333333333 708.666666667 419 702 c 128
 417.666666667 695.333333333 413 692.666666667 405 694 c 2
 151 724 l 2
 133.666666667 726 120.166666667 732.333333333 110.5 743 c 128
 100.833333333 753.666666667 97.6666666667 767 101 783 c 128
 104.333333333 799 112.833333333 809.166666667 126.5 813.5 c 128
 140.166666667 817.833333333 155.666666667 816.666666667 173 810 c 2
EndSplineSet
EndChar

StartChar: a
Encoding: 68 97 68
Width: 512
VWidth: 1024
Flags: HW
LayerCount: 2
Fore
SplineSet
368 248 m 1
 368 272 l 2
 368 292 367.333333333 309.666666667 366 325 c 128
 364.666666667 340.333333333 362.333333333 353.333333333 359 364 c 128
 355.666666667 374.666666667 350.333333333 384.333333333 343 393 c 128
 335.666666667 401.666666667 326.5 408.333333333 315.5 413 c 128
 304.5 417.666666667 293.166666667 420.5 281.5 421.5 c 128
 269.833333333 422.5 258.666666667 423 248 423 c 0
 231.333333333 423 219 422.166666667 211 420.5 c 128
 203 418.833333333 194.833333333 416.666666667 186.5 414 c 128
 178.166666667 411.333333333 171 408.333333333 165 405 c 128
 159 401.666666667 153.666666667 396.666666667 149 390 c 128
 144.333333333 383.333333333 141 376 139 368 c 128
 137 360 136 352 136 344 c 2
 136 328 l 2
 134.666666667 316 130.833333333 306.666666667 124.5 300 c 128
 118.166666667 293.333333333 109.666666667 290.333333333 99 291 c 0
 89.6666666667 291.666666667 82.5 295.166666667 77.5 301.5 c 128
 72.5 307.833333333 70 316.833333333 70 328.5 c 128
 70 340.166666667 72.6666666667 352.333333333 78 365 c 0
 82.6666666667 375.666666667 88.5 384.5 95.5 391.5 c 128
 102.5 398.5 110 404.666666667 118 410 c 128
 126 415.333333333 136.166666667 420.666666667 148.5 426 c 128
 160.833333333 431.333333333 171.833333333 435 181.5 437 c 128
 191.166666667 439 203.333333333 441 218 443 c 128
 232.666666667 445 245.333333333 446 256 446 c 0
 268 446 281 445 295 443 c 128
 309 441 319.833333333 439 327.5 437 c 128
 335.166666667 435 345.5 430.666666667 358.5 424 c 128
 371.5 417.333333333 382.333333333 408.666666667 391 398 c 128
 399.666666667 387.333333333 406.333333333 373 411 355 c 128
 415.666666667 337 418 313.333333333 418 284 c 2
 418 0 l 2
 418 -6.66666666667 418.333333333 -11.3333333333 419 -14 c 128
 419.666666667 -16.6666666667 421 -18.6666666667 423 -20 c 128
 425 -21.3333333333 428.666666667 -20.3333333333 434 -17 c 2
 444 -11 l 1
 454 -4 l 1
 466 -24 l 1
 459.333333333 -32 454.5 -37.3333333333 451.5 -40 c 128
 448.5 -42.6666666667 442.833333333 -46.5 434.5 -51.5 c 128
 426.166666667 -56.5 420.333333333 -59.6666666667 417 -61 c 128
 413.666666667 -62.3333333333 408.666666667 -63.1666666667 402 -63.5 c 128
 395.333333333 -63.8333333333 389 -61.3333333333 383 -56 c 0
 377.666666667 -52 374 -46.6666666667 372 -40 c 0
 369.333333333 -34.6666666667 368 -26.6666666667 368 -16 c 2
 368 28 l 1
 356 20 347.666666667 13.3333333333 343 8 c 2
 308 -19 l 2
 296 -27 282.666666667 -34.5 268 -41.5 c 128
 253.333333333 -48.5 240 -53.3333333333 228 -56 c 128
 216 -58.6666666667 205.333333333 -60.6666666667 196 -62 c 0
 182 -62 182 -62 172 -62 c 0
 164 -62 155.333333333 -61.3333333333 146 -60 c 128
 136.666666667 -58.6666666667 125.666666667 -56 113 -52 c 128
 100.333333333 -48 88.5 -41.3333333333 77.5 -32 c 128
 66.5 -22.6666666667 58.8333333333 -13.6666666667 54.5 -5 c 128
 50.1666666667 3.66666666667 47.6666666667 10.6666666667 47 16 c 128
 46.3333333333 21.3333333333 46 27.3333333333 46 34 c 128
 46 44 46 44 46 57 c 0
 46.6666666667 67.6666666667 48.5 78.6666666667 51.5 90 c 128
 54.5 101.333333333 59 112 65 122 c 128
 71 132 78.1666666667 141.5 86.5 150.5 c 128
 94.8333333333 159.5 103.166666667 167.5 111.5 174.5 c 128
 119.833333333 181.5 130.166666667 188.833333333 142.5 196.5 c 128
 154.833333333 204.166666667 166.833333333 210.333333333 178.5 215 c 128
 190.166666667 219.666666667 204 224 220 228 c 128
 236 232 249.166666667 235 259.5 237 c 128
 269.833333333 239 286.166666667 241.333333333 308.5 244 c 128
 330.833333333 246.666666667 344.666666667 248 350 248 c 2
 368 248 l 1
368 224 m 1
 360.666666667 224.666666667 355 225 351 225 c 128
 347 225 336.833333333 223.666666667 320.5 221 c 128
 304.166666667 218.333333333 292.666666667 216.166666667 286 214.5 c 128
 279.333333333 212.833333333 268 209.666666667 252 205 c 128
 236 200.333333333 220.5 194.833333333 205.5 188.5 c 128
 190.5 182.166666667 174.833333333 172.833333333 158.5 160.5 c 128
 142.166666667 148.166666667 129.666666667 135.833333333 121 123.5 c 128
 112.333333333 111.166666667 106.333333333 99.1666666667 103 87.5 c 128
 99.6666666667 75.8333333333 98.6666666667 63.3333333333 100 50 c 0
 100 38 102 27 106 17 c 128
 110 7 116 -1.33333333333 124 -8 c 128
 132 -14.6666666667 140 -19.1666666667 148 -21.5 c 128
 156 -23.8333333333 164.333333333 -25.5 173 -26.5 c 128
 181.666666667 -27.5 188.666666667 -28 194 -28 c 0
 204.666666667 -28 216 -26.8333333333 228 -24.5 c 128
 240 -22.1666666667 252.333333333 -18.1666666667 265 -12.5 c 128
 277.666666667 -6.83333333333 288.666666667 -0.833333333333 298 5.5 c 128
 307.333333333 11.8333333333 318.666666667 20.3333333333 332 31 c 2
 368 60 l 1
 368 224 l 1
EndSplineSet
EndChar

StartChar: b
Encoding: 69 98 69
Width: 512
VWidth: 1024
Flags: HW
LayerCount: 2
Fore
SplineSet
158 362 m 1
 163.333333333 370 168.333333333 376.666666667 173 382 c 128
 177.666666667 387.333333333 184.666666667 394.5 194 403.5 c 128
 203.333333333 412.5 213.333333333 419.833333333 224 425.5 c 128
 234.666666667 431.166666667 246.666666667 436 260 440 c 128
 273.333333333 444 287 445.666666667 301 445 c 0
 311 444.333333333 320.666666667 442.666666667 330 440 c 128
 339.333333333 437.333333333 347.333333333 434.5 354 431.5 c 128
 360.666666667 428.5 369 424 379 418 c 0
 387.666666667 411.333333333 397.833333333 401.833333333 409.5 389.5 c 128
 421.166666667 377.166666667 430.5 365.5 437.5 354.5 c 128
 444.5 343.5 450.666666667 330.666666667 456 316 c 0
 461.333333333 302.666666667 465.333333333 287.333333333 468 270 c 128
 470.666666667 252.666666667 472.166666667 238 472.5 226 c 128
 472.833333333 214 473 200.666666667 473 186 c 128
 473 171.333333333 472.166666667 156.666666667 470.5 142 c 128
 468.833333333 127.333333333 465.666666667 111.333333333 461 94 c 128
 456.333333333 76.6666666667 449.333333333 59.5 440 42.5 c 128
 430.666666667 25.5 419.666666667 10.5 407 -2.5 c 128
 394.333333333 -15.5 381.333333333 -26 368 -34 c 128
 354.666666667 -42 343.333333333 -47.6666666667 334 -51 c 0
 323.333333333 -55 313 -57.6666666667 303 -59 c 0
 291.666666667 -61 281.333333333 -62 272 -62 c 0
 257.333333333 -62 244.666666667 -60 234 -56 c 0
 222 -52 212.666666667 -48.5 206 -45.5 c 128
 199.333333333 -42.5 192.333333333 -38.5 185 -33.5 c 128
 177.666666667 -28.5 171.333333333 -23.3333333333 166 -18 c 2
 156 -8 l 1
 126 -64 l 1
 108 -63 l 1
 108 585 l 2
 108 597.666666667 104.666666667 606.666666667 98 612 c 128
 91.3333333333 617.333333333 81.3333333333 620 68 620 c 2
 37 620 l 1
 37 645 l 1
 50 645 l 2
 56.6666666667 645 64.6666666667 645.666666667 74 647 c 0
 82 648.333333333 89.3333333333 649.666666667 96 651 c 128
 102.666666667 652.333333333 113.333333333 656.666666667 128 664 c 2
 158 678 l 1
 158 362 l 1
158 318 m 1
 158 66 l 2
 158 55.3333333333 159 47 161 41 c 128
 163 35 165.333333333 29.3333333333 168 24 c 128
 170.666666667 18.6666666667 174 13.3333333333 178 8 c 128
 182 2.66666666667 186.666666667 -2.16666666667 192 -6.5 c 128
 197.333333333 -10.8333333333 203.5 -15.1666666667 210.5 -19.5 c 128
 217.5 -23.8333333333 225.5 -27.5 234.5 -30.5 c 128
 243.5 -33.5 253.333333333 -35.3333333333 264 -36 c 0
 277.333333333 -37.3333333333 289.333333333 -36 300 -32 c 0
 310.666666667 -29.3333333333 322 -24.6666666667 334 -18 c 0
 344.666666667 -11.3333333333 354.833333333 -3.16666666667 364.5 6.5 c 128
 374.166666667 16.1666666667 382.166666667 27 388.5 39 c 128
 394.833333333 51 400 63.6666666667 404 77 c 128
 408 90.3333333333 411.333333333 103 414 115 c 128
 416.666666667 127 418 139.333333333 418 152 c 0
 419.333333333 165.333333333 420 182 420 202 c 0
 420 220.666666667 419.333333333 235.5 418 246.5 c 128
 416.666666667 257.5 414.333333333 270.333333333 411 285 c 128
 407.666666667 299.666666667 403.333333333 313.5 398 326.5 c 128
 392.666666667 339.5 386.5 351.333333333 379.5 362 c 128
 372.5 372.666666667 363.833333333 382.333333333 353.5 391 c 128
 343.166666667 399.666666667 332.333333333 406.166666667 321 410.5 c 128
 309.666666667 414.833333333 295.333333333 416.833333333 278 416.5 c 128
 260.666666667 416.166666667 240 406.666666667 216 388 c 0
 209.333333333 382.666666667 202.833333333 376.666666667 196.5 370 c 128
 190.166666667 363.333333333 183.833333333 355.666666667 177.5 347 c 128
 171.166666667 338.333333333 165.333333333 329.333333333 160 320 c 1
 158 318 l 1
EndSplineSet
EndChar

StartChar: c
Encoding: 70 99 70
Width: 512
VWidth: 1024
Flags: HW
LayerCount: 2
Fore
SplineSet
436 86 m 1
 452 74 l 1
 443.333333333 56.6666666667 435.666666667 43 429 33 c 128
 422.333333333 23 412.666666667 11.3333333333 400 -2 c 128
 387.333333333 -15.3333333333 374.666666667 -26.5 362 -35.5 c 128
 349.333333333 -44.5 336 -51.1666666667 322 -55.5 c 128
 308 -59.8333333333 295 -62 283 -62 c 0
 272.333333333 -62.6666666667 261 -62.3333333333 249 -61 c 128
 237 -59.6666666667 222.333333333 -56.5 205 -51.5 c 128
 187.666666667 -46.5 172 -39 158 -29 c 128
 144 -19 131 -7.33333333333 119 6 c 128
 107 19.3333333333 96.6666666667 34.8333333333 88 52.5 c 128
 79.3333333333 70.1666666667 72.6666666667 89.8333333333 68 111.5 c 128
 63.3333333333 133.166666667 60.6666666667 159.666666667 60 191 c 128
 59.3333333333 222.333333333 66 255.333333333 80 290 c 0
 85.3333333333 302 91.8333333333 314.666666667 99.5 328 c 128
 107.166666667 341.333333333 116.666666667 354.5 128 367.5 c 128
 139.333333333 380.5 150.833333333 391.833333333 162.5 401.5 c 128
 174.166666667 411.166666667 187 419.333333333 201 426 c 128
 215 432.666666667 226.5 437 235.5 439 c 128
 244.5 441 253.333333333 442.333333333 262 443 c 128
 270.666666667 443.666666667 276.666666667 444.166666667 280 444.5 c 128
 283.333333333 444.833333333 286.333333333 445 289 445 c 0
 298.333333333 445 307.333333333 444.5 316 443.5 c 128
 324.666666667 442.5 333.333333333 441 342 439 c 128
 350.666666667 437 361.666666667 433 375 427 c 128
 388.333333333 421 399.833333333 413.666666667 409.5 405 c 128
 419.166666667 396.333333333 427.166666667 386.666666667 433.5 376 c 128
 439.833333333 365.333333333 443.166666667 353.5 443.5 340.5 c 128
 443.833333333 327.5 440.5 317.166666667 433.5 309.5 c 128
 426.5 301.833333333 417.666666667 298.666666667 407 300 c 0
 401 300 396 301.333333333 392 304 c 128
 388 306.666666667 385.166666667 310.333333333 383.5 315 c 128
 381.833333333 319.666666667 381 324.333333333 381 329 c 128
 381 333.666666667 380.666666667 339 380 345 c 128
 379.333333333 351 378.666666667 356.666666667 378 362 c 128
 377.333333333 367.333333333 375.333333333 373.333333333 372 380 c 128
 368.666666667 386.666666667 365 392 361 396 c 128
 357 400 351.666666667 404 345 408 c 128
 338.333333333 412 331 415.333333333 323 418 c 0
 315 419.333333333 305 420 293 420 c 0
 292.333333333 420 286.833333333 419.666666667 276.5 419 c 128
 266.166666667 418.333333333 258.166666667 417.5 252.5 416.5 c 128
 246.833333333 415.5 237.333333333 411.833333333 224 405.5 c 128
 210.666666667 399.166666667 198.666666667 391.333333333 188 382 c 128
 177.333333333 372.666666667 166.666666667 361 156 347 c 128
 145.333333333 333 136.666666667 316 130 296 c 128
 123.333333333 276 118.833333333 257 116.5 239 c 128
 114.166666667 221 113 202.333333333 113 183 c 128
 113 163.666666667 114.833333333 143.666666667 118.5 123 c 128
 122.166666667 102.333333333 127.5 84.6666666667 134.5 70 c 128
 141.5 55.3333333333 149.666666667 42.1666666667 159 30.5 c 128
 168.333333333 18.8333333333 177.666666667 9.5 187 2.5 c 128
 196.333333333 -4.5 205.833333333 -9.83333333333 215.5 -13.5 c 128
 225.166666667 -17.1666666667 236.5 -20.5 249.5 -23.5 c 128
 262.5 -26.5 273.333333333 -27.6666666667 282 -27 c 0
 292.666666667 -27 303.833333333 -25.3333333333 315.5 -22 c 128
 327.166666667 -18.6666666667 337 -14.6666666667 345 -10 c 128
 353 -5.33333333333 361.666666667 0.666666666667 371 8 c 0
 381.666666667 16 391 25.3333333333 399 36 c 2
 416 59 l 1
 436 86 l 1
EndSplineSet
EndChar

StartChar: d
Encoding: 71 100 71
Width: 512
VWidth: 1024
Flags: HW
LayerCount: 2
Fore
SplineSet
464 -45 m 1
 358 -45 l 1
 358 -6 l 1
 352.666666667 -12 347.666666667 -17 343 -21 c 128
 338.333333333 -25 330.333333333 -31 319 -39 c 128
 307.666666667 -47 296 -53.1666666667 284 -57.5 c 128
 272 -61.8333333333 257.333333333 -64 240 -64 c 0
 209.333333333 -64.6666666667 182.333333333 -59 159 -47 c 128
 135.666666667 -35 115.5 -17.8333333333 98.5 4.5 c 128
 81.5 26.8333333333 68.6666666667 52.3333333333 60 81 c 128
 51.3333333333 109.666666667 47 144.333333333 47 185 c 0
 47 227 51.8333333333 263.333333333 61.5 294 c 128
 71.1666666667 324.666666667 85.3333333333 352 104 376 c 128
 122.666666667 400 143 417.333333333 165 428 c 128
 187 438.666666667 208.333333333 445.333333333 229 448 c 0
 241.666666667 449.333333333 253.333333333 448.833333333 264 446.5 c 128
 274.666666667 444.166666667 284.166666667 441.166666667 292.5 437.5 c 128
 300.833333333 433.833333333 311.166666667 428.666666667 323.5 422 c 128
 335.833333333 415.333333333 344 410 348 406 c 2
 358 395 l 1
 358 584 l 2
 358 596.666666667 355 605.833333333 349 611.5 c 128
 343 617.166666667 332.666666667 620 318 620 c 2
 290 620 l 1
 290 644 l 1
 301 644 l 2
 311.666666667 644 324.5 646.333333333 339.5 651 c 128
 354.5 655.666666667 366.333333333 660 375 664 c 2
 409 680 l 1
 409 48 l 2
 409 23.3333333333 410.833333333 7.66666666667 414.5 1 c 128
 418.166666667 -5.66666666667 423 -10.8333333333 429 -14.5 c 128
 435 -18.1666666667 442.666666667 -20 452 -20 c 2
 464 -20 l 1
 464 -45 l 1
358 352 m 1
 350 361.333333333 342.666666667 369.166666667 336 375.5 c 128
 329.333333333 381.833333333 321 388.5 311 395.5 c 128
 301 402.5 289.666666667 408.333333333 277 413 c 128
 264.333333333 417.666666667 249.833333333 419.333333333 233.5 418 c 128
 217.166666667 416.666666667 200.833333333 411.5 184.5 402.5 c 128
 168.166666667 393.5 152.833333333 378.166666667 138.5 356.5 c 128
 124.166666667 334.833333333 114.833333333 312 110.5 288 c 128
 106.166666667 264 103.333333333 243.666666667 102 227 c 128
 100.666666667 210.333333333 99.6666666667 196.333333333 99 185 c 128
 98.3333333333 173.666666667 99.1666666667 158 101.5 138 c 128
 103.833333333 118 107.5 98.6666666667 112.5 80 c 128
 117.5 61.3333333333 126.666666667 42.6666666667 140 24 c 128
 153.333333333 5.33333333333 168.666666667 -8.33333333333 186 -17 c 128
 203.333333333 -25.6666666667 219 -30.6666666667 233 -32 c 0
 251.666666667 -34.6666666667 269.5 -33 286.5 -27 c 128
 303.5 -21 317.333333333 -12 328 0 c 2
 358 32 l 1
 358 352 l 1
EndSplineSet
EndChar

StartChar: e
Encoding: 72 101 72
Width: 512
VWidth: 1024
Flags: HW
LayerCount: 2
Fore
SplineSet
116 192 m 1
 116.666666667 178.666666667 117.333333333 168.5 118 161.5 c 128
 118.666666667 154.5 119.666666667 145.666666667 121 135 c 128
 122.333333333 124.333333333 124.5 112.5 127.5 99.5 c 128
 130.5 86.5 134.666666667 74.6666666667 140 64 c 128
 145.333333333 53.3333333333 150.666666667 43.5 156 34.5 c 128
 161.333333333 25.5 167.666666667 17.5 175 10.5 c 128
 182.333333333 3.5 190.666666667 -2.5 200 -7.5 c 128
 209.333333333 -12.5 218.833333333 -16.5 228.5 -19.5 c 128
 238.166666667 -22.5 251.666666667 -24 269 -24 c 0
 288.333333333 -24 303.333333333 -22.6666666667 314 -20 c 128
 324.666666667 -17.3333333333 334 -13.8333333333 342 -9.5 c 128
 350 -5.16666666667 358.833333333 0.333333333333 368.5 7 c 128
 378.166666667 13.6666666667 386.166666667 20.3333333333 392.5 27 c 128
 398.833333333 33.6666666667 406.666666667 42.6666666667 416 54 c 2
 431 72 l 1
 446 62 l 1
 440 52.6666666667 435.166666667 44.6666666667 431.5 38 c 128
 427.833333333 31.3333333333 422 23.3333333333 414 14 c 128
 406 4.66666666667 397.833333333 -4 389.5 -12 c 128
 381.166666667 -20 371.666666667 -27.5 361 -34.5 c 128
 350.333333333 -41.5 340.666666667 -47 332 -51 c 128
 323.333333333 -55 313.5 -58.1666666667 302.5 -60.5 c 128
 291.5 -62.8333333333 279.333333333 -64 266 -64 c 0
 248 -64 230.166666667 -61.8333333333 212.5 -57.5 c 128
 194.833333333 -53.1666666667 178.666666667 -46 164 -36 c 128
 149.333333333 -26 136 -14.1666666667 124 -0.5 c 128
 112 13.1666666667 102.333333333 27.5 95 42.5 c 128
 87.6666666667 57.5 81.6666666667 71.6666666667 77 85 c 0
 73.6666666667 98.3333333333 70.8333333333 109.833333333 68.5 119.5 c 128
 66.1666666667 129.166666667 64.3333333333 140.666666667 63 154 c 128
 61.6666666667 167.333333333 61.1666666667 178.666666667 61.5 188 c 128
 61.8333333333 197.333333333 62 206.666666667 62 216 c 128
 62 225.333333333 63 238 65 254 c 0
 67.6666666667 268.666666667 73.6666666667 287.166666667 83 309.5 c 128
 92.3333333333 331.833333333 102.5 349.833333333 113.5 363.5 c 128
 124.5 377.166666667 135.666666667 389 147 399 c 0
 157.666666667 410.333333333 169.666666667 419.5 183 426.5 c 128
 196.333333333 433.5 209.833333333 438.5 223.5 441.5 c 128
 237.166666667 444.5 251.333333333 446 266 446 c 0
 290 445.333333333 311.333333333 440.833333333 330 432.5 c 128
 348.666666667 424.166666667 365.333333333 412.666666667 380 398 c 128
 394.666666667 383.333333333 407.166666667 366 417.5 346 c 128
 427.833333333 326 434.833333333 308.666666667 438.5 294 c 128
 442.166666667 279.333333333 444.666666667 265.5 446 252.5 c 128
 447.333333333 239.5 448.666666667 228.333333333 450 219 c 2
 450 192 l 1
 116 192 l 1
394 219 m 1
 394 230 394 230 394 250 c 128
 394 263.333333333 392.333333333 278 389 294 c 128
 385.666666667 310 381 324.666666667 375 338 c 128
 369 351.333333333 361 364.666666667 351 378 c 128
 341 391.333333333 328.666666667 401.666666667 314 409 c 128
 299.333333333 416.333333333 282.666666667 420 264 420 c 0
 246.666666667 419.333333333 231.333333333 415.5 218 408.5 c 128
 204.666666667 401.5 192 392 180 380 c 0
 169.333333333 368 160 354.833333333 152 340.5 c 128
 144 326.166666667 136.833333333 309.666666667 130.5 291 c 128
 124.166666667 272.333333333 121 258.666666667 121 250 c 2
 118 219 l 1
 394 219 l 1
EndSplineSet
EndChar

StartChar: f
Encoding: 73 102 73
Width: 512
VWidth: 1024
Flags: HW
LayerCount: 2
Fore
SplineSet
197 446 m 1
 197 461 l 2
 197 479 197.333333333 493.666666667 198 505 c 128
 198.666666667 516.333333333 199.666666667 528 201 540 c 128
 202.333333333 552 205.166666667 566.833333333 209.5 584.5 c 128
 213.833333333 602.166666667 222.333333333 619.5 235 636.5 c 128
 247.666666667 653.5 260.666666667 664.5 274 669.5 c 128
 287.333333333 674.5 301.333333333 677 316 677 c 0
 332 677 345.333333333 674.5 356 669.5 c 128
 366.666666667 664.5 376.333333333 656.333333333 385 645 c 128
 393.666666667 633.666666667 397.333333333 621.666666667 396 609 c 0
 394.666666667 600.333333333 392 593.166666667 388 587.5 c 128
 384 581.833333333 379.666666667 577.833333333 375 575.5 c 128
 370.333333333 573.166666667 364.666666667 572.333333333 358 573 c 0
 350 573.666666667 344 575.666666667 340 579 c 128
 336 582.333333333 333 586.333333333 331 591 c 0
 327.666666667 596.333333333 325.166666667 604 323.5 614 c 128
 321.833333333 624 319.5 631.166666667 316.5 635.5 c 128
 313.5 639.833333333 308 642.5 300 643.5 c 128
 292 644.5 283.333333333 639.333333333 274 628 c 0
 266 618 259.666666667 604.833333333 255 588.5 c 128
 250.333333333 572.166666667 248 554.333333333 248 535 c 2
 248 446 l 1
 360 446 l 1
 360 420 l 1
 248 420 l 1
 248 10 l 2
 248 0.666666666667 251 -6.66666666667 257 -12 c 128
 263 -17.3333333333 274 -20 290 -20 c 2
 320 -20 l 1
 320 -46 l 1
 128 -46 l 1
 128 -20 l 1
 154 -20 l 2
 171.333333333 -20 182.833333333 -17 188.5 -11 c 128
 194.166666667 -5 197 2 197 10 c 2
 197 420 l 1
 119 420 l 1
 119 446 l 1
 197 446 l 1
EndSplineSet
EndChar

StartChar: g
Encoding: 74 103 74
Width: 512
VWidth: 1024
Flags: HW
LayerCount: 2
Fore
SplineSet
340 290 m 0
 340 307.333333333 337.833333333 324 333.5 340 c 128
 329.166666667 356 323 369.333333333 315 380 c 128
 307 390.666666667 296.333333333 399.666666667 283 407 c 128
 269.666666667 414.333333333 253.166666667 418 233.5 418 c 128
 213.833333333 418 197.166666667 414.5 183.5 407.5 c 128
 169.833333333 400.5 158.5 390.833333333 149.5 378.5 c 128
 140.5 366.166666667 133.833333333 353.333333333 129.5 340 c 128
 125.166666667 326.666666667 122.833333333 307 122.5 281 c 128
 122.166666667 255 128 232.666666667 140 214 c 0
 148 200.666666667 159 190 173 182 c 0
 187.666666667 172.666666667 208 168.666666667 234 170 c 0
 252.666666667 170 268 173 280 179 c 128
 292 185 302.666666667 193.666666667 312 205 c 128
 321.333333333 216.333333333 328.333333333 228.5 333 241.5 c 128
 337.666666667 254.5 340 270.666666667 340 290 c 0
353 402 m 1
 355.666666667 405.333333333 361.166666667 411.166666667 369.5 419.5 c 128
 377.833333333 427.833333333 387.333333333 434.333333333 398 439 c 128
 408.666666667 443.666666667 418.666666667 446 428 446 c 0
 434.666666667 446 441 445 447 443 c 128
 453 441 458.333333333 438 463 434 c 128
 467.666666667 430 471.666666667 425.166666667 475 419.5 c 128
 478.333333333 413.833333333 480 407.5 480 400.5 c 128
 480 393.5 478 386.666666667 474 380 c 0
 471.333333333 376 468 372.666666667 464 370 c 128
 460 367.333333333 454.833333333 366.166666667 448.5 366.5 c 128
 442.166666667 366.833333333 436.833333333 368.166666667 432.5 370.5 c 128
 428.166666667 372.833333333 424.666666667 376.333333333 422 381 c 2
 420 386 l 2
 419.333333333 387.333333333 416.833333333 391 412.5 397 c 128
 408.166666667 403 402.666666667 405.333333333 396 404 c 0
 392 404 388 402 384 398 c 2
 370 384 l 1
 379.333333333 368 386.333333333 354 391 342 c 128
 395.666666667 330 398 313.333333333 398 292 c 0
 398 265.333333333 393.5 243 384.5 225 c 128
 375.5 207 363.666666667 192 349 180 c 128
 334.333333333 168 318.666666667 159 302 153 c 128
 285.333333333 147 271.5 143.666666667 260.5 143 c 128
 249.5 142.333333333 238 142 226 142 c 128
 214 142 198 141.666666667 178 141 c 128
 158 140.333333333 141.833333333 136 129.5 128 c 128
 117.166666667 120 109.5 113 106.5 107 c 128
 103.5 101 102 93.3333333333 102 84 c 0
 102 77.3333333333 103 72 105 68 c 128
 107 64 110.333333333 60.1666666667 115 56.5 c 128
 119.666666667 52.8333333333 126.166666667 50.1666666667 134.5 48.5 c 128
 142.833333333 46.8333333333 153.5 45.3333333333 166.5 44 c 128
 179.5 42.6666666667 201.333333333 42 232 42 c 0
 241 42 241 42 254.5 42 c 128
 268 42 268 42 273 42 c 0
 303 41.3333333333 326.666666667 38.8333333333 344 34.5 c 128
 361.333333333 30.1666666667 376 25.1666666667 388 19.5 c 128
 400 13.8333333333 410.666666667 3.5 420 -11.5 c 128
 429.333333333 -26.5 434 -45.3333333333 434 -68 c 0
 433.333333333 -89.3333333333 427.833333333 -109.166666667 417.5 -127.5 c 128
 407.166666667 -145.833333333 393 -160.333333333 375 -171 c 128
 357 -181.666666667 337 -189.833333333 315 -195.5 c 128
 293 -201.166666667 266 -204 234 -204 c 0
 198 -205.333333333 170 -204.333333333 150 -201 c 128
 130 -197.666666667 111.666666667 -193.333333333 95 -188 c 128
 78.3333333333 -182.666666667 64 -171.666666667 52 -155 c 128
 40 -138.333333333 34.6666666667 -119.333333333 36 -98 c 0
 36.6666666667 -83.3333333333 41.5 -68.6666666667 50.5 -54 c 128
 59.5 -39.3333333333 78 -26.3333333333 106 -15 c 2
 126 -6 l 1
 119.333333333 -4.66666666667 112.333333333 -3.33333333333 105 -2 c 128
 97.6666666667 -0.666666666667 90 3 82 9 c 128
 74 15 67.6666666667 22.3333333333 63 31 c 128
 58.3333333333 39.6666666667 56 51.3333333333 56 66 c 128
 56 80.6666666667 58.8333333333 93.6666666667 64.5 105 c 128
 70.1666666667 116.333333333 79.5 126.666666667 92.5 136 c 128
 105.5 145.333333333 121.333333333 152 140 156 c 2
 165 162 l 1
 155 166 143 171 129 177 c 128
 115 183 101 195.666666667 87 215 c 128
 73 234.333333333 66 257.333333333 66 284 c 128
 66 310.666666667 70.1666666667 333.166666667 78.5 351.5 c 128
 86.8333333333 369.833333333 99.1666666667 386.166666667 115.5 400.5 c 128
 131.833333333 414.833333333 149.5 425.5 168.5 432.5 c 128
 187.5 439.5 209.333333333 443.333333333 234 444 c 0
 262.666666667 444 285.666666667 440.333333333 303 433 c 128
 320.333333333 425.666666667 333 418.666666667 341 412 c 2
 353 402 l 1
174 -8 m 1
 166 -12.6666666667 155.333333333 -19.1666666667 142 -27.5 c 128
 128.666666667 -35.8333333333 117.666666667 -48 109 -64 c 128
 100.333333333 -80 96 -94 96 -106 c 128
 96 -118 98.6666666667 -128 104 -136 c 0
 109.333333333 -145.333333333 118.166666667 -153.333333333 130.5 -160 c 128
 142.833333333 -166.666666667 158 -171.666666667 176 -175 c 128
 194 -178.333333333 215.333333333 -179.333333333 240 -178 c 0
 256 -178 270.833333333 -176.666666667 284.5 -174 c 128
 298.166666667 -171.333333333 314.166666667 -165.333333333 332.5 -156 c 128
 350.833333333 -146.666666667 363.666666667 -136.666666667 371 -126 c 128
 378.333333333 -115.333333333 382.333333333 -107.333333333 383 -102 c 128
 383.666666667 -96.6666666667 384 -92 384 -88 c 0
 384 -72.6666666667 381 -59.8333333333 375 -49.5 c 128
 369 -39.1666666667 358.333333333 -29 343 -19 c 128
 327.666666667 -9 299.666666667 -4 259 -4 c 2
 238 -4 l 1
 200 -5 l 1
 174 -8 l 1
EndSplineSet
EndChar

StartChar: h
Encoding: 75 104 75
Width: 512
VWidth: 1024
Flags: HW
LayerCount: 2
Fore
SplineSet
483 -45 m 1
 316 -45 l 1
 316 -20 l 1
 332 -20 l 2
 345.333333333 -20 355.666666667 -15.3333333333 363 -6 c 128
 370.333333333 3.33333333333 374 18.6666666667 374 40 c 2
 374 278 l 2
 374 299.333333333 372 317.666666667 368 333 c 0
 364 347 358.5 360.5 351.5 373.5 c 128
 344.5 386.5 334.666666667 396.833333333 322 404.5 c 128
 309.333333333 412.166666667 293.333333333 416 274 416 c 0
 260.666666667 416 246 413.166666667 230 407.5 c 128
 214 401.833333333 198.666666667 390.833333333 184 374.5 c 128
 169.333333333 358.166666667 158 342 150 326 c 128
 142 310 138.333333333 297 139 287 c 2
 139 40 l 2
 138.333333333 21.3333333333 140 8 144 0 c 128
 148 -8 152.833333333 -13.3333333333 158.5 -16 c 128
 164.166666667 -18.6666666667 171.666666667 -20 181 -20 c 2
 192 -20 l 1
 192 -45 l 1
 28 -45 l 1
 28 -20 l 1
 38 -20 l 2
 46 -20 54 -18 62 -14 c 0
 68.6666666667 -10 74.6666666667 -4 80 4 c 128
 85.3333333333 12 88 24 88 40 c 2
 88 585 l 2
 88 597.666666667 84.6666666667 606.666666667 78 612 c 128
 71.3333333333 617.333333333 62 620 50 620 c 2
 28 620 l 1
 28 644 l 1
 38 644 l 2
 52.6666666667 644 66.6666666667 646.333333333 80 651 c 128
 93.3333333333 655.666666667 104.333333333 660.666666667 113 666 c 2
 139 680 l 1
 139 364 l 1
 143.666666667 371.333333333 148.333333333 378.5 153 385.5 c 128
 157.666666667 392.5 165.166666667 400.666666667 175.5 410 c 128
 185.833333333 419.333333333 199.5 427.5 216.5 434.5 c 128
 233.5 441.5 252.666666667 445.333333333 274 446 c 0
 300.666666667 446 322 442 338 434 c 128
 354 426 367 417.333333333 377 408 c 0
 387 400 396 388 404 372 c 128
 412 356 417.333333333 339.333333333 420 322 c 128
 422.666666667 304.666666667 424 281 424 251 c 2
 424 40 l 2
 424 18.6666666667 428.5 3.33333333333 437.5 -6 c 128
 446.5 -15.3333333333 457 -20 469 -20 c 2
 483 -20 l 1
 483 -45 l 1
EndSplineSet
EndChar

StartChar: i
Encoding: 76 105 76
Width: 512
VWidth: 1024
Flags: HW
LayerCount: 2
Fore
SplineSet
282 445 m 1
 282 20 l 2
 282 5.33333333333 285.666666667 -4.66666666667 293 -10 c 0
 301 -16.6666666667 311.666666667 -20 325 -20 c 2
 348 -20 l 1
 348 -46 l 1
 164 -46 l 1
 164 -20 l 1
 188 -20 l 2
 204 -20 215.166666667 -15.1666666667 221.5 -5.5 c 128
 227.833333333 4.16666666667 231 12.6666666667 231 20 c 2
 231 334 l 2
 231 349.333333333 227.5 361.166666667 220.5 369.5 c 128
 213.5 377.833333333 202.666666667 382 188 382 c 2
 170 382 l 1
 170 407 l 1
 178 407 184.166666667 407.5 188.5 408.5 c 128
 192.833333333 409.5 202.5 412 217.5 416 c 128
 232.5 420 241.333333333 423 244 425 c 2
 282 445 l 1
241 660 m 1
 257 660 269.166666667 657.833333333 277.5 653.5 c 128
 285.833333333 649.166666667 292.166666667 642.833333333 296.5 634.5 c 128
 300.833333333 626.166666667 303.166666667 617.333333333 303.5 608 c 128
 303.833333333 598.666666667 302 590.333333333 298 583 c 0
 293.333333333 574.333333333 286.833333333 568 278.5 564 c 128
 270.166666667 560 261.666666667 558 253 558 c 128
 244.333333333 558 236 560.166666667 228 564.5 c 128
 220 568.833333333 213.5 575 208.5 583 c 128
 203.5 591 201.166666667 599.5 201.5 608.5 c 128
 201.833333333 617.5 204.333333333 626 209 634 c 128
 213.666666667 642 220 648.333333333 228 653 c 2
 241 660 l 1
EndSplineSet
EndChar

StartChar: j
Encoding: 77 106 77
Width: 512
VWidth: 1024
Flags: HW
LayerCount: 2
Fore
SplineSet
230 382 m 1
 230 408 l 1
 238 408 244.333333333 408.166666667 249 408.5 c 128
 253.666666667 408.833333333 263 411.166666667 277 415.5 c 128
 291 419.833333333 300 423.333333333 304 426 c 2
 342 446 l 1
 342 12 l 2
 342 -18.6666666667 341.333333333 -42.8333333333 340 -60.5 c 128
 338.666666667 -78.1666666667 336.833333333 -93.8333333333 334.5 -107.5 c 128
 332.166666667 -121.166666667 327.166666667 -136 319.5 -152 c 128
 311.833333333 -168 300 -180.666666667 284 -190 c 128
 268 -199.333333333 252.666666667 -204 238 -204 c 0
 222 -205.333333333 207.333333333 -203 194 -197 c 0
 182 -191.666666667 172 -184.833333333 164 -176.5 c 128
 156 -168.166666667 151.166666667 -161.333333333 149.5 -156 c 128
 147.833333333 -150.666666667 147 -142.666666667 147 -132 c 128
 147 -121.333333333 149.666666667 -112.666666667 155 -106 c 128
 160.333333333 -99.3333333333 167.833333333 -95.6666666667 177.5 -95 c 128
 187.166666667 -94.3333333333 195.333333333 -97.3333333333 202 -104 c 0
 205.333333333 -108 208.333333333 -114 211 -122 c 2
 218 -146 l 2
 220.666666667 -152.666666667 224.166666667 -158.666666667 228.5 -164 c 128
 232.833333333 -169.333333333 239.833333333 -172.5 249.5 -173.5 c 128
 259.166666667 -174.5 268.666666667 -166 278 -148 c 0
 283.333333333 -137.333333333 286.666666667 -122.333333333 288 -103 c 0
 289.333333333 -82.3333333333 290 -70 290 -66 c 2
 291 334 l 2
 291 349.333333333 287.5 361.166666667 280.5 369.5 c 128
 273.5 377.833333333 262.666666667 382 248 382 c 2
 230 382 l 1
304 660 m 1
 320 660 332 657.666666667 340 653 c 0
 349.333333333 649 356 642.833333333 360 634.5 c 128
 364 626.166666667 366 617.333333333 366 608 c 128
 366 598.666666667 364 590.333333333 360 583 c 0
 355.333333333 574.333333333 349.166666667 568 341.5 564 c 128
 333.833333333 560 325.333333333 558 316 558 c 128
 306.666666667 558 298 560.166666667 290 564.5 c 128
 282 568.833333333 275.666666667 575 271 583 c 128
 266.333333333 591 264 599.5 264 608.5 c 128
 264 617.5 266.5 626 271.5 634 c 128
 276.5 642 283 648.333333333 291 653 c 2
 304 660 l 1
EndSplineSet
EndChar

StartChar: k
Encoding: 78 107 78
Width: 512
VWidth: 1024
Flags: HW
LayerCount: 2
Fore
SplineSet
144 186 m 1
 276 330 l 1
 300 359 l 2
 304.666666667 364.333333333 308.833333333 370.5 312.5 377.5 c 128
 316.166666667 384.5 315.333333333 390.666666667 310 396 c 128
 304.666666667 401.333333333 296.666666667 404 286 404 c 2
 270 404 l 1
 270 428 l 1
 446 428 l 1
 446 404 l 1
 429 404 l 2
 420.333333333 404 409.666666667 401.333333333 397 396 c 128
 384.333333333 390.666666667 374.666666667 385.666666667 368 381 c 128
 361.333333333 376.333333333 351 366.666666667 337 352 c 2
 255 264 l 1
 380 44 l 2
 390.666666667 25.3333333333 399.833333333 11.3333333333 407.5 2 c 128
 415.166666667 -7.33333333333 422.666666667 -13.3333333333 430 -16 c 0
 436.666666667 -20 446 -22 458 -22 c 2
 478 -22 l 1
 478 -46 l 1
 294 -46 l 1
 294 -22 l 1
 312 -22 l 2
 324 -22 331.333333333 -20.3333333333 334 -17 c 0
 338 -14.3333333333 340.333333333 -10.8333333333 341 -6.5 c 128
 341.666666667 -2.16666666667 334.666666667 14 320 42 c 2
 218 226 l 1
 144 146 l 1
 144 39 l 2
 144 14.3333333333 148 -2 156 -10 c 128
 164 -18 175 -22 189 -22 c 2
 202 -22 l 1
 202 -46 l 1
 34 -46 l 1
 34 -22 l 1
 50 -22 l 2
 63.3333333333 -22 74 -17.3333333333 82 -8 c 0
 88.6666666667 1.33333333333 92 17 92 39 c 2
 92 570 l 2
 92 586 88.6666666667 598 82 606 c 128
 75.3333333333 614 64.6666666667 618 50 618 c 2
 32 618 l 1
 32 644 l 1
 40 644 47.6666666667 644.333333333 55 645 c 0
 63.6666666667 646.333333333 73.5 649 84.5 653 c 128
 95.5 657 102.666666667 660 106 662 c 2
 144 682 l 1
 144 186 l 1
EndSplineSet
EndChar

StartChar: l
Encoding: 79 108 79
Width: 512
VWidth: 1024
Flags: HW
LayerCount: 2
Fore
SplineSet
168 618 m 1
 168 642 l 1
 176 642 182.333333333 642.666666667 187 644 c 0
 192.333333333 644 201.5 646 214.5 650 c 128
 227.5 654 236.666666667 657.333333333 242 660 c 2
 278 680 l 1
 278 32 l 2
 278 12 282.5 -2 291.5 -10 c 128
 300.5 -18 314.333333333 -22 333 -22 c 2
 348 -22 l 1
 348 -46 l 1
 164 -46 l 1
 164 -22 l 1
 180 -22 l 2
 196 -22 208.166666667 -17.6666666667 216.5 -9 c 128
 224.833333333 -0.333333333333 229 13.3333333333 229 32 c 2
 229 569 l 2
 228.333333333 585.666666667 224.666666667 598 218 606 c 128
 211.333333333 614 200.666666667 618 186 618 c 2
 168 618 l 1
EndSplineSet
EndChar

StartChar: m
Encoding: 80 109 80
Width: 512
VWidth: 1024
Flags: HW
LayerCount: 2
Fore
SplineSet
498 -46 m 1
 373 -46 l 1
 373 -22 l 1
 380 -22 l 2
 389.333333333 -22 396.666666667 -18.6666666667 402 -12 c 128
 407.333333333 -5.33333333333 410 8.66666666667 410 30 c 2
 410 322 l 2
 410 328.666666667 409.5 338.666666667 408.5 352 c 128
 407.5 365.333333333 405.833333333 376.333333333 403.5 385 c 128
 401.166666667 393.666666667 396.833333333 401.333333333 390.5 408 c 128
 384.166666667 414.666666667 376.333333333 418 367 418 c 128
 357.666666667 418 347.833333333 414.333333333 337.5 407 c 128
 327.166666667 399.666666667 319.666666667 391 315 381 c 128
 310.333333333 371 304.666666667 357.333333333 298 340 c 0
 290 322 286 312.333333333 286 311 c 2
 281 292 l 1
 281 30 l 2
 281 8.66666666667 284.166666667 -5.33333333333 290.5 -12 c 128
 296.833333333 -18.6666666667 304 -22 312 -22 c 2
 320 -22 l 1
 320 -46 l 1
 194 -46 l 1
 194 -22 l 1
 198 -22 l 2
 208 -22 215.833333333 -18.6666666667 221.5 -12 c 128
 227.166666667 -5.33333333333 230 8.66666666667 230 30 c 2
 230 322 l 2
 230 328.666666667 229.5 341.666666667 228.5 361 c 128
 227.5 380.333333333 223.833333333 394.666666667 217.5 404 c 128
 211.166666667 413.333333333 201.666666667 418 189 418 c 0
 178.333333333 418 168 412.666666667 158 402 c 128
 148 391.333333333 138.833333333 377.666666667 130.5 361 c 128
 122.166666667 344.333333333 116.666666667 332.333333333 114 325 c 2
 104 290 l 1
 104 20 l 2
 104 1.33333333333 107 -10.3333333333 113 -15 c 128
 119 -19.6666666667 125.333333333 -22 132 -22 c 2
 142 -22 l 1
 142 -46 l 1
 14 -46 l 1
 14 -22 l 1
 28 -22 l 2
 36 -22 42.3333333333 -18.6666666667 47 -12 c 128
 51.6666666667 -5.33333333333 54 5.33333333333 54 20 c 2
 54 354 l 2
 54 366 51.6666666667 374.5 47 379.5 c 128
 42.3333333333 384.5 33.3333333333 387 20 387 c 2
 13 387 l 1
 13 412 l 1
 19.6666666667 412 26.1666666667 412.5 32.5 413.5 c 128
 38.8333333333 414.5 46.3333333333 416.5 55 419.5 c 128
 63.6666666667 422.5 71.3333333333 426.333333333 78 431 c 2
 104 446 l 1
 104 367 l 1
 108.666666667 376.333333333 113 384.666666667 117 392 c 128
 121 399.333333333 127.333333333 407.833333333 136 417.5 c 128
 144.666666667 427.166666667 154.166666667 434.333333333 164.5 439 c 128
 174.833333333 443.666666667 187.166666667 446 201.5 446 c 128
 215.833333333 446 227.833333333 443.333333333 237.5 438 c 128
 247.166666667 432.666666667 255.666666667 425 263 415 c 128
 270.333333333 405 274.666666667 395.333333333 276 386 c 2
 280 367 l 1
 282.666666667 374.333333333 285.666666667 381.333333333 289 388 c 128
 292.333333333 394.666666667 296.166666667 401.333333333 300.5 408 c 128
 304.833333333 414.666666667 311.166666667 421.333333333 319.5 428 c 128
 327.833333333 434.666666667 336.666666667 439.666666667 346 443 c 128
 355.333333333 446.333333333 366.333333333 447.333333333 379 446 c 0
 399 444 415.166666667 437.666666667 427.5 427 c 128
 439.833333333 416.333333333 448.333333333 401.833333333 453 383.5 c 128
 457.666666667 365.166666667 460 344.666666667 460 322 c 2
 460 12 l 2
 460 -0.666666666667 462 -9.5 466 -14.5 c 128
 470 -19.5 476 -22 484 -22 c 2
 498 -22 l 1
 498 -46 l 1
EndSplineSet
EndChar

StartChar: n
Encoding: 81 110 81
Width: 512
VWidth: 1024
Flags: HW
LayerCount: 2
Fore
SplineSet
476 -46 m 1
 329 -46 l 1
 329 -22 l 1
 340 -22 l 2
 345.333333333 -22 350.666666667 -20.6666666667 356 -18 c 128
 361.333333333 -15.3333333333 365.166666667 -12 367.5 -8 c 128
 369.833333333 -4 371.833333333 0.666666666667 373.5 6 c 128
 375.166666667 11.3333333333 376 18.6666666667 376 28 c 2
 376 281 l 2
 376 309.666666667 374.666666667 330.666666667 372 344 c 128
 369.333333333 357.333333333 364.166666667 370 356.5 382 c 128
 348.833333333 394 338.166666667 403.5 324.5 410.5 c 128
 310.833333333 417.5 293.666666667 420.333333333 273 419 c 0
 248.333333333 416.333333333 227.333333333 408.5 210 395.5 c 128
 192.666666667 382.5 177.833333333 368 165.5 352 c 128
 153.166666667 336 145.666666667 323 143 313 c 2
 138 300 l 1
 138 22 l 2
 138 12.6666666667 139.166666667 4.83333333333 141.5 -1.5 c 128
 143.833333333 -7.83333333333 147.166666667 -12.8333333333 151.5 -16.5 c 128
 155.833333333 -20.1666666667 163 -22 173 -22 c 2
 186 -22 l 1
 186 -46 l 1
 39 -46 l 1
 39 -22 l 1
 53 -22 l 2
 63 -22 71.3333333333 -18.6666666667 78 -12 c 128
 84.6666666667 -5.33333333333 87.6666666667 6 87 22 c 2
 87 356 l 2
 87 366.666666667 83.8333333333 374.833333333 77.5 380.5 c 128
 71.1666666667 386.166666667 63 389 53 389 c 2
 35 389 l 1
 35 414 l 1
 47.6666666667 414 58 414.666666667 66 416 c 128
 74 417.333333333 82 419.333333333 90 422 c 128
 98 424.666666667 106 428.333333333 114 433 c 2
 138 448 l 1
 138 356 l 1
 145.333333333 367.333333333 151.833333333 376.166666667 157.5 382.5 c 128
 163.166666667 388.833333333 172 397.333333333 184 408 c 128
 196 418.666666667 209.333333333 427.333333333 224 434 c 128
 238.666666667 440.666666667 256.666666667 444.666666667 278 446 c 0
 291.333333333 446 304.666666667 444.666666667 318 442 c 128
 331.333333333 439.333333333 344.833333333 434.666666667 358.5 428 c 128
 372.166666667 421.333333333 384.166666667 411.333333333 394.5 398 c 128
 404.833333333 384.666666667 412 370.666666667 416 356 c 128
 420 341.333333333 422.666666667 329.5 424 320.5 c 128
 425.333333333 311.5 426 301.666666667 426 291 c 2
 426 28 l 2
 426 20 426.833333333 12.6666666667 428.5 6 c 128
 430.166666667 -0.666666666667 432.333333333 -5.83333333333 435 -9.5 c 128
 437.666666667 -13.1666666667 441.833333333 -16.1666666667 447.5 -18.5 c 128
 453.166666667 -20.8333333333 460.666666667 -22 470 -22 c 2
 476 -22 l 1
 476 -46 l 1
EndSplineSet
EndChar

StartChar: o
Encoding: 82 111 82
Width: 512
VWidth: 1024
Flags: HW
LayerCount: 2
Fore
SplineSet
254 -63 m 0
 244.666666667 -63 234.5 -62.3333333333 223.5 -61 c 128
 212.5 -59.6666666667 201.333333333 -57.3333333333 190 -54 c 128
 178.666666667 -50.6666666667 165.333333333 -43 150 -31 c 128
 134.666666667 -19 121.166666667 -5.5 109.5 9.5 c 128
 97.8333333333 24.5 87.5 44 78.5 68 c 128
 69.5 92 63.8333333333 114.666666667 61.5 136 c 128
 59.1666666667 157.333333333 58 177.333333333 58 196 c 0
 58 218 59.8333333333 239.833333333 63.5 261.5 c 128
 67.1666666667 283.166666667 73.1666666667 304 81.5 324 c 128
 89.8333333333 344 100.666666667 362.333333333 114 379 c 0
 126.666666667 394.333333333 141.166666667 407.166666667 157.5 417.5 c 128
 173.833333333 427.833333333 189.333333333 435.166666667 204 439.5 c 128
 218.666666667 443.833333333 235.333333333 446 254 446 c 0
 274 446 291.666666667 443.666666667 307 439 c 128
 322.333333333 434.333333333 336 428.333333333 348 421 c 128
 360 413.666666667 372.666666667 403.333333333 386 390 c 128
 399.333333333 376.666666667 410.666666667 360.5 420 341.5 c 128
 429.333333333 322.5 436.333333333 304.5 441 287.5 c 128
 445.666666667 270.5 449 253.333333333 451 236 c 128
 453 218.666666667 454 203 454 189 c 0
 454 177.666666667 453.166666667 163.833333333 451.5 147.5 c 128
 449.833333333 131.166666667 446.833333333 115 442.5 99 c 128
 438.166666667 83 432 66.3333333333 424 49 c 128
 416 31.6666666667 405.666666667 15.5 393 0.5 c 128
 380.333333333 -14.5 366.666666667 -26.6666666667 352 -36 c 128
 337.333333333 -45.3333333333 324.333333333 -51.8333333333 313 -55.5 c 128
 301.666666667 -59.1666666667 290.666666667 -61.3333333333 280 -62 c 128
 269.333333333 -62.6666666667 260.666666667 -63 254 -63 c 0
254 420 m 0
 248 420 239.166666667 419.333333333 227.5 418 c 128
 215.833333333 416.666666667 201.166666667 410.166666667 183.5 398.5 c 128
 165.833333333 386.833333333 152.166666667 370.5 142.5 349.5 c 128
 132.833333333 328.5 126 309.333333333 122 292 c 128
 118 274.666666667 115 256.333333333 113 237 c 0
 112.333333333 217.666666667 112 199.333333333 112 182 c 128
 112 164.666666667 113.333333333 145.333333333 116 124 c 128
 118.666666667 102.666666667 122 84 126 68 c 0
 130 53.3333333333 136.666666667 39.3333333333 146 26 c 128
 155.333333333 12.6666666667 165 1.5 175 -7.5 c 128
 185 -16.5 196.333333333 -23.8333333333 209 -29.5 c 128
 221.666666667 -35.1666666667 236.666666667 -38 254 -38 c 0
 264.666666667 -38 277.666666667 -35.8333333333 293 -31.5 c 128
 308.333333333 -27.1666666667 321.5 -20.5 332.5 -11.5 c 128
 343.5 -2.5 353.166666667 9.33333333333 361.5 24 c 128
 369.833333333 38.6666666667 376.666666667 53.6666666667 382 69 c 128
 387.333333333 84.3333333333 391.333333333 101.333333333 394 120 c 128
 396.666666667 138.666666667 398 159 398 181 c 128
 398 203 397.333333333 221.666666667 396 237 c 0
 394.666666667 245 393.166666667 255.833333333 391.5 269.5 c 128
 389.833333333 283.166666667 386.333333333 298.5 381 315.5 c 128
 375.666666667 332.5 368.666666667 347.833333333 360 361.5 c 128
 351.333333333 375.166666667 342.666666667 385.666666667 334 393 c 128
 325.333333333 400.333333333 316.333333333 406 307 410 c 128
 297.666666667 414 287.833333333 416.666666667 277.5 418 c 128
 267.166666667 419.333333333 259.333333333 420 254 420 c 0
EndSplineSet
EndChar

StartChar: p
Encoding: 83 112 83
Width: 512
VWidth: 1024
Flags: HW
LayerCount: 2
Fore
SplineSet
160 381 m 1
 168 389 174.333333333 395.5 179 400.5 c 128
 183.666666667 405.5 190 411.166666667 198 417.5 c 128
 206 423.833333333 215.333333333 429.166666667 226 433.5 c 128
 236.666666667 437.833333333 247.666666667 441.333333333 259 444 c 128
 270.333333333 446.666666667 284 447.333333333 300 446 c 0
 325.333333333 443.333333333 348 436 368 424 c 128
 388 412 405.333333333 395.333333333 420 374 c 128
 434.666666667 352.666666667 445 332 451 312 c 128
 457 292 460.833333333 274.666666667 462.5 260 c 128
 464.166666667 245.333333333 465.333333333 233.666666667 466 225 c 128
 466.666666667 216.333333333 466.833333333 202.666666667 466.5 184 c 128
 466.166666667 165.333333333 465.333333333 146.666666667 464 128 c 0
 461.333333333 109.333333333 457.333333333 89.8333333333 452 69.5 c 128
 446.666666667 49.1666666667 437.666666667 30.3333333333 425 13 c 128
 412.333333333 -4.33333333333 399.5 -18 386.5 -28 c 128
 373.5 -38 362.5 -45 353.5 -49 c 128
 344.5 -53 335.333333333 -56.3333333333 326 -59 c 128
 316.666666667 -61.6666666667 304 -63 288 -63 c 128
 272 -63 257 -61.3333333333 243 -58 c 128
 229 -54.6666666667 215.5 -48.8333333333 202.5 -40.5 c 128
 189.5 -32.1666666667 180.333333333 -25.3333333333 175 -20 c 2
 160 -6 l 1
 160 -116 l 2
 160 -132 162.333333333 -144 167 -152 c 128
 171.666666667 -160 177.833333333 -166.5 185.5 -171.5 c 128
 193.166666667 -176.5 204.333333333 -179 219 -179 c 2
 228 -179 l 1
 228 -206 l 1
 42 -206 l 1
 42 -179 l 1
 50 -179 l 2
 64.6666666667 -179 75.6666666667 -176.5 83 -171.5 c 128
 90.3333333333 -166.5 96.3333333333 -160 101 -152 c 128
 105.666666667 -144 108 -132 108 -116 c 2
 108 347 l 2
 108 362.333333333 106.166666667 372.666666667 102.5 378 c 128
 98.8333333333 383.333333333 93.6666666667 386.666666667 87 388 c 0
 80.3333333333 390.666666667 72.6666666667 392 64 392 c 2
 52 392 l 1
 52 418 l 1
 56 417.333333333 59.3333333333 417 62 417 c 128
 64.6666666667 417 71 417.666666667 81 419 c 128
 91 420.333333333 101 422.333333333 111 425 c 0
 119.666666667 427.666666667 128.666666667 431.333333333 138 436 c 2
 160 447 l 1
 160 381 l 1
160 342 m 1
 160 34 l 1
 166.666666667 26 172.666666667 19 178 13 c 128
 183.333333333 7 191.5 0 202.5 -8 c 128
 213.5 -16 226.166666667 -22.8333333333 240.5 -28.5 c 128
 254.833333333 -34.1666666667 270.666666667 -36.6666666667 288 -36 c 128
 305.333333333 -35.3333333333 320 -31.6666666667 332 -25 c 128
 344 -18.3333333333 354 -10.5 362 -1.5 c 128
 370 7.5 378 19.3333333333 386 34 c 128
 394 48.6666666667 399.833333333 63.3333333333 403.5 78 c 128
 407.166666667 92.6666666667 410.166666667 110.833333333 412.5 132.5 c 128
 414.833333333 154.166666667 416 175.333333333 416 196 c 0
 416 228.666666667 413.333333333 256.833333333 408 280.5 c 128
 402.666666667 304.166666667 394.666666667 327.5 384 350.5 c 128
 373.333333333 373.5 359 390.666666667 341 402 c 128
 323 413.333333333 305 419.333333333 287 420 c 0
 274.333333333 420 262.666666667 418.166666667 252 414.5 c 128
 241.333333333 410.833333333 232 406.833333333 224 402.5 c 128
 216 398.166666667 206.666666667 391.666666667 196 383 c 0
 185.333333333 375.666666667 177.666666667 368 173 360 c 2
 160 342 l 1
EndSplineSet
EndChar

StartChar: q
Encoding: 84 113 84
Width: 512
VWidth: 1024
Flags: HW
LayerCount: 2
Fore
SplineSet
361 388 m 1
 389 442 l 1
 408 442 l 1
 407 -116 l 2
 407 -132 409.5 -144 414.5 -152 c 128
 419.5 -160 425.666666667 -166.5 433 -171.5 c 128
 440.333333333 -176.5 451.333333333 -179 466 -179 c 2
 476 -179 l 1
 476 -206 l 1
 290 -206 l 1
 290 -179 l 1
 299 -179 l 2
 313.666666667 -179 324.666666667 -176.5 332 -171.5 c 128
 339.333333333 -166.5 345.333333333 -160 350 -152 c 128
 354.666666667 -144 357 -132 357 -116 c 2
 357 3 l 1
 347 -7.66666666667 337.833333333 -16.6666666667 329.5 -24 c 128
 321.166666667 -31.3333333333 310.333333333 -38.5 297 -45.5 c 128
 283.666666667 -52.5 272.166666667 -57.1666666667 262.5 -59.5 c 128
 252.833333333 -61.8333333333 241.333333333 -63 228 -63 c 0
 206.666666667 -63 191.166666667 -61.6666666667 181.5 -59 c 128
 171.833333333 -56.3333333333 162.333333333 -53 153 -49 c 128
 143.666666667 -45 132.833333333 -38.1666666667 120.5 -28.5 c 128
 108.166666667 -18.8333333333 95.6666666667 -5.33333333333 83 12 c 128
 70.3333333333 29.3333333333 61 48.6666666667 55 70 c 0
 49.6666666667 90 45.8333333333 110 43.5 130 c 128
 41.1666666667 150 40.1666666667 171.166666667 40.5 193.5 c 128
 40.8333333333 215.833333333 42.8333333333 238 46.5 260 c 128
 50.1666666667 282 56 303 64 323 c 128
 72 343 82.8333333333 361 96.5 377 c 128
 110.166666667 393 123.833333333 405.833333333 137.5 415.5 c 128
 151.166666667 425.166666667 164.666666667 432.666666667 178 438 c 128
 191.333333333 443.333333333 207.333333333 446 226 446 c 0
 238 446 249.666666667 445 261 443 c 128
 272.333333333 441 282.5 438.5 291.5 435.5 c 128
 300.5 432.5 310.333333333 427.5 321 420.5 c 128
 331.666666667 413.5 339 408 343 404 c 2
 361 388 l 1
357 342 m 1
 351.666666667 350 346.333333333 357.166666667 341 363.5 c 128
 335.666666667 369.833333333 328.333333333 376.166666667 319 382.5 c 128
 309.666666667 388.833333333 300.833333333 394.666666667 292.5 400 c 128
 284.166666667 405.333333333 275.333333333 409.333333333 266 412 c 128
 256.666666667 414.666666667 244.666666667 416 230 416 c 0
 213.333333333 414.666666667 199 410.833333333 187 404.5 c 128
 175 398.166666667 162.5 388.333333333 149.5 375 c 128
 136.5 361.666666667 125.666666667 345.833333333 117 327.5 c 128
 108.333333333 309.166666667 102.166666667 290.166666667 98.5 270.5 c 128
 94.8333333333 250.833333333 93 226 93 196 c 0
 93 173.333333333 93.8333333333 152.5 95.5 133.5 c 128
 97.1666666667 114.5 100.166666667 97.1666666667 104.5 81.5 c 128
 108.833333333 65.8333333333 114.333333333 51.3333333333 121 38 c 128
 127.666666667 24.6666666667 135.5 13.3333333333 144.5 4 c 128
 153.5 -5.33333333333 164.166666667 -13.3333333333 176.5 -20 c 128
 188.833333333 -26.6666666667 206 -30 228 -30 c 0
 248 -30 264.5 -27.3333333333 277.5 -22 c 128
 290.5 -16.6666666667 303 -9 315 1 c 128
 327 11 335.666666667 20 341 28 c 2
 357 48 l 1
 357 342 l 1
EndSplineSet
EndChar

StartChar: r
Encoding: 85 114 85
Width: 512
VWidth: 1024
Flags: HW
LayerCount: 2
Fore
SplineSet
212 322 m 1
 220 338 226.666666667 350.333333333 232 359 c 0
 237.333333333 366.333333333 243.333333333 375.333333333 250 386 c 0
 256.666666667 395.333333333 264.5 404.5 273.5 413.5 c 128
 282.5 422.5 291.166666667 429.5 299.5 434.5 c 128
 307.833333333 439.5 315.333333333 442.666666667 322 444 c 128
 328.666666667 445.333333333 336.333333333 446 345 446 c 0
 352.333333333 446 360.666666667 444.666666667 370 442 c 128
 379.333333333 439.333333333 388 433.5 396 424.5 c 128
 404 415.5 408.333333333 405 409 393 c 128
 409.666666667 381 406.666666667 371.833333333 400 365.5 c 128
 393.333333333 359.166666667 385.833333333 356 377.5 356 c 128
 369.166666667 356 363 357.833333333 359 361.5 c 128
 355 365.166666667 351 369.666666667 347 375 c 128
 343 380.333333333 340.333333333 383.833333333 339 385.5 c 128
 337.666666667 387.166666667 334.833333333 389.666666667 330.5 393 c 128
 326.166666667 396.333333333 320.666666667 398 314 398 c 128
 307.333333333 398 301.166666667 396.333333333 295.5 393 c 128
 289.833333333 389.666666667 283.666666667 385 277 379 c 0
 271 371.666666667 264.666666667 362.666666667 258 352 c 2
 241 322 l 1
 226 296 l 1
 212 268 l 1
 212 20 l 2
 212 13.3333333333 213.333333333 7.33333333333 216 2 c 128
 218.666666667 -3.33333333333 222.166666667 -7.33333333333 226.5 -10 c 128
 230.833333333 -12.6666666667 236.833333333 -15 244.5 -17 c 128
 252.166666667 -19 260 -20 268 -20 c 2
 275 -20 l 1
 275 -46 l 1
 102 -46 l 1
 102 -20 l 1
 116 -20 l 2
 132 -20 144 -16.6666666667 152 -10 c 0
 158.666666667 -3.33333333333 162 6.66666666667 162 20 c 2
 162 346 l 2
 162 359.333333333 158.833333333 369 152.5 375 c 128
 146.166666667 381 138.333333333 384 129 384 c 2
 101 384 l 1
 101 411 l 1
 111.666666667 412.333333333 120.5 413.5 127.5 414.5 c 128
 134.5 415.5 144.166666667 418 156.5 422 c 128
 168.833333333 426 178.333333333 429.666666667 185 433 c 2
 212 446 l 1
 212 322 l 1
EndSplineSet
EndChar

